%TF.GenerationSoftware,KiCad,Pcbnew,9.0.1*%
%TF.CreationDate,2025-06-18T06:06:38+01:00*%
%TF.ProjectId,cube_pcb,63756265-5f70-4636-922e-6b696361645f,rev?*%
%TF.SameCoordinates,Original*%
%TF.FileFunction,Copper,L1,Top*%
%TF.FilePolarity,Positive*%
%FSLAX46Y46*%
G04 Gerber Fmt 4.6, Leading zero omitted, Abs format (unit mm)*
G04 Created by KiCad (PCBNEW 9.0.1) date 2025-06-18 06:06:38*
%MOMM*%
%LPD*%
G01*
G04 APERTURE LIST*
G04 Aperture macros list*
%AMRoundRect*
0 Rectangle with rounded corners*
0 $1 Rounding radius*
0 $2 $3 $4 $5 $6 $7 $8 $9 X,Y pos of 4 corners*
0 Add a 4 corners polygon primitive as box body*
4,1,4,$2,$3,$4,$5,$6,$7,$8,$9,$2,$3,0*
0 Add four circle primitives for the rounded corners*
1,1,$1+$1,$2,$3*
1,1,$1+$1,$4,$5*
1,1,$1+$1,$6,$7*
1,1,$1+$1,$8,$9*
0 Add four rect primitives between the rounded corners*
20,1,$1+$1,$2,$3,$4,$5,0*
20,1,$1+$1,$4,$5,$6,$7,0*
20,1,$1+$1,$6,$7,$8,$9,0*
20,1,$1+$1,$8,$9,$2,$3,0*%
G04 Aperture macros list end*
%TA.AperFunction,ComponentPad*%
%ADD10C,1.600000*%
%TD*%
%TA.AperFunction,ComponentPad*%
%ADD11R,1.600000X1.600000*%
%TD*%
%TA.AperFunction,ComponentPad*%
%ADD12C,1.500000*%
%TD*%
%TA.AperFunction,ComponentPad*%
%ADD13RoundRect,0.250000X-0.550000X-0.550000X0.550000X-0.550000X0.550000X0.550000X-0.550000X0.550000X0*%
%TD*%
%TA.AperFunction,ComponentPad*%
%ADD14O,1.600000X1.600000*%
%TD*%
%TA.AperFunction,ComponentPad*%
%ADD15R,1.700000X1.700000*%
%TD*%
%TA.AperFunction,ComponentPad*%
%ADD16C,1.700000*%
%TD*%
%TA.AperFunction,ViaPad*%
%ADD17C,0.600000*%
%TD*%
%TA.AperFunction,Conductor*%
%ADD18C,0.500000*%
%TD*%
%TA.AperFunction,Conductor*%
%ADD19C,0.250000*%
%TD*%
G04 APERTURE END LIST*
D10*
%TO.P,C1,2*%
%TO.N,/5V*%
X124817621Y-90500000D03*
D11*
%TO.P,C1,1*%
%TO.N,/GND*%
X122317621Y-90500000D03*
%TD*%
D10*
%TO.P,C3,2*%
%TO.N,/GND*%
X131205113Y-86500000D03*
D11*
%TO.P,C3,1*%
%TO.N,Net-(U2-XTAL1{slash}PB6)*%
X133705113Y-86500000D03*
%TD*%
D12*
%TO.P,Y1,1,1*%
%TO.N,Net-(U2-XTAL2{slash}PB7)*%
X132500000Y-99450000D03*
%TO.P,Y1,2,2*%
%TO.N,Net-(U2-XTAL1{slash}PB6)*%
X132500000Y-94570000D03*
%TD*%
D13*
%TO.P,U2,1,~{RESET}/PC6*%
%TO.N,/5 RST*%
X138880000Y-75600000D03*
D10*
%TO.P,U2,2,PD0*%
%TO.N,unconnected-(U2-PD0-Pad2)*%
X138880000Y-78140000D03*
%TO.P,U2,3,PD1*%
%TO.N,unconnected-(U2-PD1-Pad3)*%
X138880000Y-80680000D03*
%TO.P,U2,4,PD2*%
%TO.N,/INT0*%
X138880000Y-83220000D03*
%TO.P,U2,5,PD3*%
%TO.N,unconnected-(U2-PD3-Pad5)*%
X138880000Y-85760000D03*
%TO.P,U2,6,PD4*%
%TO.N,unconnected-(U2-PD4-Pad6)*%
X138880000Y-88300000D03*
%TO.P,U2,7,VCC*%
%TO.N,/5V*%
X138880000Y-90840000D03*
%TO.P,U2,8,GND*%
%TO.N,/GND*%
X138880000Y-93380000D03*
%TO.P,U2,9,XTAL1/PB6*%
%TO.N,Net-(U2-XTAL1{slash}PB6)*%
X138880000Y-95920000D03*
%TO.P,U2,10,XTAL2/PB7*%
%TO.N,Net-(U2-XTAL2{slash}PB7)*%
X138880000Y-98460000D03*
%TO.P,U2,11,PD5*%
%TO.N,unconnected-(U2-PD5-Pad11)*%
X138880000Y-101000000D03*
%TO.P,U2,12,PD6*%
%TO.N,unconnected-(U2-PD6-Pad12)*%
X138880000Y-103540000D03*
%TO.P,U2,13,PD7*%
%TO.N,unconnected-(U2-PD7-Pad13)*%
X138880000Y-106080000D03*
%TO.P,U2,14,PB0*%
%TO.N,unconnected-(U2-PB0-Pad14)*%
X138880000Y-108620000D03*
%TO.P,U2,15,PB1*%
%TO.N,unconnected-(U2-PB1-Pad15)*%
X146500000Y-108620000D03*
%TO.P,U2,16,PB2*%
%TO.N,unconnected-(U2-PB2-Pad16)*%
X146500000Y-106080000D03*
%TO.P,U2,17,PB3*%
%TO.N,/4 MOSI*%
X146500000Y-103540000D03*
%TO.P,U2,18,PB4*%
%TO.N,/1 MISO*%
X146500000Y-101000000D03*
%TO.P,U2,19,PB5*%
%TO.N,/3 SCK*%
X146500000Y-98460000D03*
%TO.P,U2,20,AVCC*%
%TO.N,Net-(U2-AVCC)*%
X146500000Y-95920000D03*
%TO.P,U2,21,AREF*%
%TO.N,unconnected-(U2-AREF-Pad21)*%
X146500000Y-93380000D03*
%TO.P,U2,22,GND*%
%TO.N,/GND*%
X146500000Y-90840000D03*
%TO.P,U2,23,PC0*%
%TO.N,unconnected-(U2-PC0-Pad23)*%
X146500000Y-88300000D03*
%TO.P,U2,24,PC1*%
%TO.N,unconnected-(U2-PC1-Pad24)*%
X146500000Y-85760000D03*
%TO.P,U2,25,PC2*%
%TO.N,unconnected-(U2-PC2-Pad25)*%
X146500000Y-83220000D03*
%TO.P,U2,26,PC3*%
%TO.N,unconnected-(U2-PC3-Pad26)*%
X146500000Y-80680000D03*
%TO.P,U2,27,PC4*%
%TO.N,/SDA*%
X146500000Y-78140000D03*
%TO.P,U2,28,PC5*%
%TO.N,/SCL*%
X146500000Y-75600000D03*
%TD*%
%TO.P,R3,1*%
%TO.N,/SCL*%
X150500000Y-76000000D03*
D14*
%TO.P,R3,2*%
%TO.N,/5V*%
X163200000Y-76000000D03*
%TD*%
D10*
%TO.P,R2,1*%
%TO.N,/SDA*%
X150650000Y-82000000D03*
D14*
%TO.P,R2,2*%
%TO.N,/5V*%
X163350000Y-82000000D03*
%TD*%
D10*
%TO.P,R1,1*%
%TO.N,/5V*%
X124000000Y-73000000D03*
D14*
%TO.P,R1,2*%
%TO.N,/5 RST*%
X131620000Y-73000000D03*
%TD*%
D15*
%TO.P,J4,1,Pin_1*%
%TO.N,/5V*%
X111500000Y-88000000D03*
D16*
%TO.P,J4,2,Pin_2*%
%TO.N,/GND*%
X111500000Y-85460000D03*
%TD*%
D15*
%TO.P,J3,1,Pin_1*%
%TO.N,/5V*%
X181500000Y-106080000D03*
D16*
%TO.P,J3,2,Pin_2*%
%TO.N,/GND*%
X181500000Y-103540000D03*
%TO.P,J3,3,Pin_3*%
%TO.N,/SDA*%
X181500000Y-101000000D03*
%TO.P,J3,4,Pin_4*%
%TO.N,/SCL*%
X181500000Y-98460000D03*
%TO.P,J3,5,Pin_5*%
%TO.N,unconnected-(J3-Pin_5-Pad5)*%
X181500000Y-95920000D03*
%TO.P,J3,6,Pin_6*%
%TO.N,unconnected-(J3-Pin_6-Pad6)*%
X181500000Y-93380000D03*
%TO.P,J3,7,Pin_7*%
%TO.N,unconnected-(J3-Pin_7-Pad7)*%
X181500000Y-90840000D03*
%TO.P,J3,8,Pin_8*%
%TO.N,/INT0*%
X181500000Y-88300000D03*
%TD*%
D15*
%TO.P,J2,1,Pin_1*%
%TO.N,/1 MISO*%
X156350000Y-117500000D03*
D16*
%TO.P,J2,2,Pin_2*%
%TO.N,/5V*%
X153810000Y-117500000D03*
%TO.P,J2,3,Pin_3*%
%TO.N,/3 SCK*%
X151270000Y-117500000D03*
%TO.P,J2,4,Pin_4*%
%TO.N,/4 MOSI*%
X148730000Y-117500000D03*
%TO.P,J2,5,Pin_5*%
%TO.N,/5 RST*%
X146190000Y-117500000D03*
%TO.P,J2,6,Pin_6*%
%TO.N,/GND*%
X143650000Y-117500000D03*
%TD*%
D15*
%TO.P,J1,1,Pin_1*%
%TO.N,/SDA*%
X158080000Y-61500000D03*
D16*
%TO.P,J1,2,Pin_2*%
%TO.N,/SCL*%
X155540000Y-61500000D03*
%TO.P,J1,3,Pin_3*%
%TO.N,/5V*%
X153000000Y-61500000D03*
%TO.P,J1,4,Pin_4*%
%TO.N,/GND*%
X150460000Y-61500000D03*
%TD*%
D11*
%TO.P,C4,1*%
%TO.N,Net-(U2-XTAL2{slash}PB7)*%
X133205113Y-107500000D03*
D10*
%TO.P,C4,2*%
%TO.N,/GND*%
X130705113Y-107500000D03*
%TD*%
D11*
%TO.P,C2,1*%
%TO.N,/GND*%
X154500000Y-95500000D03*
D10*
%TO.P,C2,2*%
%TO.N,Net-(U2-AVCC)*%
X152000000Y-95500000D03*
%TD*%
D17*
%TO.N,/INT0*%
X152250000Y-85750000D03*
X166500000Y-88626000D03*
%TD*%
D18*
%TO.N,/GND*%
X138880000Y-93380000D02*
X143960000Y-93380000D01*
X143960000Y-93380000D02*
X146500000Y-90840000D01*
D19*
%TO.N,/5 RST*%
X131620000Y-73000000D02*
X136280000Y-73000000D01*
X136280000Y-73000000D02*
X138880000Y-75600000D01*
D18*
%TO.N,/5V*%
X124000000Y-73000000D02*
X124000000Y-89682379D01*
X124000000Y-89682379D02*
X124817621Y-90500000D01*
X138880000Y-90840000D02*
X140131000Y-89589000D01*
X140131000Y-89589000D02*
X161691000Y-89589000D01*
X161691000Y-89589000D02*
X163350000Y-87930000D01*
D19*
%TO.N,/INT0*%
X152250000Y-85750000D02*
X151134000Y-84634000D01*
X151134000Y-84634000D02*
X140294000Y-84634000D01*
X140294000Y-84634000D02*
X138880000Y-83220000D01*
X166500000Y-89000000D02*
X166500000Y-88626000D01*
X166650000Y-89150000D02*
X166500000Y-89000000D01*
X180650000Y-89150000D02*
X166650000Y-89150000D01*
X181500000Y-88300000D02*
X180650000Y-89150000D01*
D18*
%TO.N,/5V*%
X111500000Y-89000000D02*
X113750000Y-91250000D01*
X153810000Y-117500000D02*
X149810000Y-121500000D01*
X149810000Y-121500000D02*
X131000000Y-121500000D01*
X131000000Y-121500000D02*
X113750000Y-104250000D01*
X113750000Y-104250000D02*
X113750000Y-91250000D01*
X113750000Y-91250000D02*
X120500000Y-98000000D01*
D19*
%TO.N,/3 SCK*%
X151270000Y-117500000D02*
X151270000Y-99770000D01*
X151270000Y-99770000D02*
X149960000Y-98460000D01*
X149960000Y-98460000D02*
X146500000Y-98460000D01*
D18*
%TO.N,/5V*%
X163350000Y-82000000D02*
X163350000Y-87930000D01*
X163350000Y-87930000D02*
X181500000Y-106080000D01*
X163200000Y-76000000D02*
X163200000Y-81850000D01*
X163200000Y-81850000D02*
X163350000Y-82000000D01*
X155000000Y-59500000D02*
X162000000Y-59500000D01*
X153000000Y-61500000D02*
X155000000Y-59500000D01*
X162000000Y-59500000D02*
X163200000Y-60700000D01*
X163200000Y-60700000D02*
X163200000Y-76000000D01*
D19*
%TO.N,/SDA*%
X149000000Y-75640000D02*
X149000000Y-69500000D01*
X146500000Y-78140000D02*
X149000000Y-75640000D01*
X149000000Y-69500000D02*
X150080000Y-69500000D01*
X150080000Y-69500000D02*
X158080000Y-61500000D01*
%TO.N,/SCL*%
X146500000Y-75600000D02*
X146500000Y-67500000D01*
X146500000Y-67500000D02*
X151000000Y-63000000D01*
X151000000Y-63000000D02*
X155000000Y-63000000D01*
X155000000Y-63000000D02*
X155000000Y-62040000D01*
X155000000Y-62040000D02*
X155540000Y-61500000D01*
%TO.N,Net-(U2-XTAL2{slash}PB7)*%
X132500000Y-99450000D02*
X137890000Y-99450000D01*
X137890000Y-99450000D02*
X138880000Y-98460000D01*
%TO.N,Net-(U2-XTAL1{slash}PB6)*%
X132500000Y-94570000D02*
X137530000Y-94570000D01*
X137530000Y-94570000D02*
X138880000Y-95920000D01*
D18*
%TO.N,/5V*%
X120500000Y-98000000D02*
X126000000Y-98000000D01*
X129000000Y-95000000D02*
X129000000Y-90500000D01*
X111500000Y-88000000D02*
X111500000Y-89000000D01*
X126000000Y-98000000D02*
X129000000Y-95000000D01*
X124817621Y-90500000D02*
X129000000Y-90500000D01*
X129000000Y-90500000D02*
X138540000Y-90500000D01*
X138540000Y-90500000D02*
X138880000Y-90840000D01*
%TO.N,Net-(U2-AVCC)*%
X146500000Y-95920000D02*
X151580000Y-95920000D01*
X151580000Y-95920000D02*
X152000000Y-95500000D01*
%TD*%
M02*
