M48
; DRILL file {KiCad 9.0.1} date 2025-06-18T06:07:31+0100
; FORMAT={-:-/ absolute / metric / decimal}
; #@! TF.CreationDate,2025-06-18T06:07:31+01:00
; #@! TF.GenerationSoftware,Kicad,Pcbnew,9.0.1
; #@! TF.FileFunction,Plated,1,2,PTH
FMAT,2
METRIC
; #@! TA.AperFunction,Plated,PTH,ViaDrill
T1C0.300
; #@! TA.AperFunction,Plated,PTH,ComponentDrill
T2C0.800
; #@! TA.AperFunction,Plated,PTH,ComponentDrill
T3C1.000
%
G90
G05
T1
X152.25Y-85.75
X166.5Y-88.626
T2
X122.318Y-90.5
X124.0Y-73.0
X124.818Y-90.5
X130.705Y-107.5
X131.205Y-86.5
X131.62Y-73.0
X132.5Y-94.57
X132.5Y-99.45
X133.205Y-107.5
X133.705Y-86.5
X138.88Y-75.6
X138.88Y-78.14
X138.88Y-80.68
X138.88Y-83.22
X138.88Y-85.76
X138.88Y-88.3
X138.88Y-90.84
X138.88Y-93.38
X138.88Y-95.92
X138.88Y-98.46
X138.88Y-101.0
X138.88Y-103.54
X138.88Y-106.08
X138.88Y-108.62
X146.5Y-75.6
X146.5Y-78.14
X146.5Y-80.68
X146.5Y-83.22
X146.5Y-85.76
X146.5Y-88.3
X146.5Y-90.84
X146.5Y-93.38
X146.5Y-95.92
X146.5Y-98.46
X146.5Y-101.0
X146.5Y-103.54
X146.5Y-106.08
X146.5Y-108.62
X150.5Y-76.0
X150.65Y-82.0
X152.0Y-95.5
X154.5Y-95.5
X163.2Y-76.0
X163.35Y-82.0
T3
X111.5Y-85.46
X111.5Y-88.0
X143.65Y-117.5
X146.19Y-117.5
X148.73Y-117.5
X150.46Y-61.5
X151.27Y-117.5
X153.0Y-61.5
X153.81Y-117.5
X155.54Y-61.5
X156.35Y-117.5
X158.08Y-61.5
X181.5Y-88.3
X181.5Y-90.84
X181.5Y-93.38
X181.5Y-95.92
X181.5Y-98.46
X181.5Y-101.0
X181.5Y-103.54
X181.5Y-106.08
M30
