%TF.GenerationSoftware,KiCad,Pcbnew,9.0.1*%
%TF.CreationDate,2025-06-18T08:05:51+01:00*%
%TF.ProjectId,station_pcb,73746174-696f-46e5-9f70-63622e6b6963,rev?*%
%TF.SameCoordinates,Original*%
%TF.FileFunction,Copper,L1,Top*%
%TF.FilePolarity,Positive*%
%FSLAX46Y46*%
G04 Gerber Fmt 4.6, Leading zero omitted, Abs format (unit mm)*
G04 Created by KiCad (PCBNEW 9.0.1) date 2025-06-18 08:05:51*
%MOMM*%
%LPD*%
G01*
G04 APERTURE LIST*
G04 Aperture macros list*
%AMRoundRect*
0 Rectangle with rounded corners*
0 $1 Rounding radius*
0 $2 $3 $4 $5 $6 $7 $8 $9 X,Y pos of 4 corners*
0 Add a 4 corners polygon primitive as box body*
4,1,4,$2,$3,$4,$5,$6,$7,$8,$9,$2,$3,0*
0 Add four circle primitives for the rounded corners*
1,1,$1+$1,$2,$3*
1,1,$1+$1,$4,$5*
1,1,$1+$1,$6,$7*
1,1,$1+$1,$8,$9*
0 Add four rect primitives between the rounded corners*
20,1,$1+$1,$2,$3,$4,$5,0*
20,1,$1+$1,$4,$5,$6,$7,0*
20,1,$1+$1,$6,$7,$8,$9,0*
20,1,$1+$1,$8,$9,$2,$3,0*%
G04 Aperture macros list end*
%TA.AperFunction,ComponentPad*%
%ADD10O,1.600000X1.600000*%
%TD*%
%TA.AperFunction,ComponentPad*%
%ADD11C,1.600000*%
%TD*%
%TA.AperFunction,ComponentPad*%
%ADD12C,1.700000*%
%TD*%
%TA.AperFunction,ComponentPad*%
%ADD13R,1.700000X1.700000*%
%TD*%
%TA.AperFunction,ComponentPad*%
%ADD14R,1.600000X1.600000*%
%TD*%
%TA.AperFunction,ComponentPad*%
%ADD15C,1.500000*%
%TD*%
%TA.AperFunction,ComponentPad*%
%ADD16RoundRect,0.250000X-0.550000X-0.550000X0.550000X-0.550000X0.550000X0.550000X-0.550000X0.550000X0*%
%TD*%
%TA.AperFunction,ViaPad*%
%ADD17C,0.600000*%
%TD*%
%TA.AperFunction,Conductor*%
%ADD18C,0.500000*%
%TD*%
%TA.AperFunction,Conductor*%
%ADD19C,0.250000*%
%TD*%
G04 APERTURE END LIST*
D10*
%TO.P,R2,2*%
%TO.N,/SDA*%
X165769182Y-55000000D03*
D11*
%TO.P,R2,1*%
%TO.N,/5V*%
X153069182Y-55000000D03*
%TD*%
D12*
%TO.P,J4,6,Pin_6*%
%TO.N,/GND*%
X142069182Y-107500000D03*
%TO.P,J4,5,Pin_5*%
%TO.N,/5 RST*%
X144609182Y-107500000D03*
%TO.P,J4,4,Pin_4*%
%TO.N,/4 MOSI*%
X147149182Y-107500000D03*
%TO.P,J4,3,Pin_3*%
%TO.N,/3 SCK*%
X149689182Y-107500000D03*
%TO.P,J4,2,Pin_2*%
%TO.N,/5V*%
X152229182Y-107500000D03*
D13*
%TO.P,J4,1,Pin_1*%
%TO.N,/1 MISO*%
X154769182Y-107500000D03*
%TD*%
D11*
%TO.P,C1,2*%
%TO.N,Net-(U1-XTAL1{slash}PB6)*%
X135269182Y-67500000D03*
D14*
%TO.P,C1,1*%
%TO.N,/GND*%
X132769182Y-67500000D03*
%TD*%
D15*
%TO.P,Y1,2,2*%
%TO.N,Net-(U1-XTAL1{slash}PB6)*%
X133769182Y-76000000D03*
%TO.P,Y1,1,1*%
%TO.N,Net-(U1-XTAL2{slash}PB7)*%
X133769182Y-80880000D03*
%TD*%
D11*
%TO.P,C3,2*%
%TO.N,/GND*%
X159269182Y-78000000D03*
D14*
%TO.P,C3,1*%
%TO.N,Net-(U1-AVCC)*%
X156769182Y-78000000D03*
%TD*%
D16*
%TO.P,U1,1,~{RESET}/PC6*%
%TO.N,/5 RST*%
X140399182Y-57600000D03*
D11*
%TO.P,U1,2,PD0*%
%TO.N,unconnected-(U1-PD0-Pad2)*%
X140399182Y-60140000D03*
%TO.P,U1,3,PD1*%
%TO.N,unconnected-(U1-PD1-Pad3)*%
X140399182Y-62680000D03*
%TO.P,U1,4,PD2*%
%TO.N,unconnected-(U1-PD2-Pad4)*%
X140399182Y-65220000D03*
%TO.P,U1,5,PD3*%
%TO.N,unconnected-(U1-PD3-Pad5)*%
X140399182Y-67760000D03*
%TO.P,U1,6,PD4*%
%TO.N,unconnected-(U1-PD4-Pad6)*%
X140399182Y-70300000D03*
%TO.P,U1,7,VCC*%
%TO.N,/5V*%
X140399182Y-72840000D03*
%TO.P,U1,8,GND*%
%TO.N,/GND*%
X140399182Y-75380000D03*
%TO.P,U1,9,XTAL1/PB6*%
%TO.N,Net-(U1-XTAL1{slash}PB6)*%
X140399182Y-77920000D03*
%TO.P,U1,10,XTAL2/PB7*%
%TO.N,Net-(U1-XTAL2{slash}PB7)*%
X140399182Y-80460000D03*
%TO.P,U1,11,PD5*%
%TO.N,unconnected-(U1-PD5-Pad11)*%
X140399182Y-83000000D03*
%TO.P,U1,12,PD6*%
%TO.N,unconnected-(U1-PD6-Pad12)*%
X140399182Y-85540000D03*
%TO.P,U1,13,PD7*%
%TO.N,unconnected-(U1-PD7-Pad13)*%
X140399182Y-88080000D03*
%TO.P,U1,14,PB0*%
%TO.N,unconnected-(U1-PB0-Pad14)*%
X140399182Y-90620000D03*
%TO.P,U1,15,PB1*%
%TO.N,unconnected-(U1-PB1-Pad15)*%
X148019182Y-90620000D03*
%TO.P,U1,16,PB2*%
%TO.N,unconnected-(U1-PB2-Pad16)*%
X148019182Y-88080000D03*
%TO.P,U1,17,PB3*%
%TO.N,/4 MOSI*%
X148019182Y-85540000D03*
%TO.P,U1,18,PB4*%
%TO.N,/1 MISO*%
X148019182Y-83000000D03*
%TO.P,U1,19,PB5*%
%TO.N,/3 SCK*%
X148019182Y-80460000D03*
%TO.P,U1,20,AVCC*%
%TO.N,Net-(U1-AVCC)*%
X148019182Y-77920000D03*
%TO.P,U1,21,AREF*%
%TO.N,unconnected-(U1-AREF-Pad21)*%
X148019182Y-75380000D03*
%TO.P,U1,22,GND*%
%TO.N,/GND*%
X148019182Y-72840000D03*
%TO.P,U1,23,PC0*%
%TO.N,unconnected-(U1-PC0-Pad23)*%
X148019182Y-70300000D03*
%TO.P,U1,24,PC1*%
%TO.N,unconnected-(U1-PC1-Pad24)*%
X148019182Y-67760000D03*
%TO.P,U1,25,PC2*%
%TO.N,unconnected-(U1-PC2-Pad25)*%
X148019182Y-65220000D03*
%TO.P,U1,26,PC3*%
%TO.N,unconnected-(U1-PC3-Pad26)*%
X148019182Y-62680000D03*
%TO.P,U1,27,PC4*%
%TO.N,/SDA*%
X148019182Y-60140000D03*
%TO.P,U1,28,PC5*%
%TO.N,/SCL*%
X148019182Y-57600000D03*
%TD*%
%TO.P,R3,1*%
%TO.N,/SCL*%
X153069182Y-63000000D03*
D10*
%TO.P,R3,2*%
%TO.N,/5V*%
X165769182Y-63000000D03*
%TD*%
D11*
%TO.P,R1,1*%
%TO.N,/5V*%
X119269182Y-55000000D03*
D10*
%TO.P,R1,2*%
%TO.N,/5 RST*%
X126889182Y-55000000D03*
%TD*%
D13*
%TO.P,J3,1,Pin_1*%
%TO.N,/GND*%
X177189182Y-109000000D03*
D12*
%TO.P,J3,2,Pin_2*%
%TO.N,/5V*%
X179729182Y-109000000D03*
%TO.P,J3,3,Pin_3*%
%TO.N,/SDA*%
X182269182Y-109000000D03*
%TO.P,J3,4,Pin_4*%
%TO.N,/SCL*%
X184809182Y-109000000D03*
%TD*%
D13*
%TO.P,J2,1,Pin_1*%
%TO.N,/SDA*%
X187769182Y-50920000D03*
D12*
%TO.P,J2,2,Pin_2*%
%TO.N,/SCL*%
X187769182Y-53460000D03*
%TO.P,J2,3,Pin_3*%
%TO.N,/5V*%
X187769182Y-56000000D03*
%TO.P,J2,4,Pin_4*%
%TO.N,/GND*%
X187769182Y-58540000D03*
%TD*%
D13*
%TO.P,J1,1,Pin_1*%
%TO.N,/5V*%
X105769182Y-59960000D03*
D12*
%TO.P,J1,2,Pin_2*%
%TO.N,/GND*%
X105769182Y-62500000D03*
%TD*%
D14*
%TO.P,C4,1*%
%TO.N,/5V*%
X121769182Y-71000000D03*
D11*
%TO.P,C4,2*%
%TO.N,/GND*%
X124269182Y-71000000D03*
%TD*%
D14*
%TO.P,C2,1*%
%TO.N,/GND*%
X135769182Y-89500000D03*
D11*
%TO.P,C2,2*%
%TO.N,Net-(U1-XTAL2{slash}PB7)*%
X133269182Y-89500000D03*
%TD*%
D17*
%TO.N,/GND*%
X143269182Y-72500000D03*
%TO.N,/SCL*%
X182269182Y-60500000D03*
%TO.N,/5V*%
X165769182Y-60500000D03*
%TD*%
D18*
%TO.N,/5V*%
X149229182Y-110500000D02*
X123769182Y-110500000D01*
X152229182Y-107500000D02*
X149229182Y-110500000D01*
X123769182Y-110500000D02*
X123769182Y-73000000D01*
X123769182Y-73000000D02*
X121769182Y-71000000D01*
%TO.N,/GND*%
X143269182Y-72500000D02*
X147679182Y-72500000D01*
X147679182Y-72500000D02*
X148019182Y-72840000D01*
D19*
%TO.N,/SCL*%
X182269182Y-60500000D02*
X182269182Y-58960000D01*
X182269182Y-58960000D02*
X187769182Y-53460000D01*
%TO.N,/SDA*%
X175769182Y-62500000D02*
X177066066Y-62500000D01*
X177066066Y-62500000D02*
X187769182Y-51796884D01*
X187769182Y-51796884D02*
X187769182Y-50920000D01*
D18*
%TO.N,/5V*%
X119269182Y-49000000D02*
X118769182Y-49500000D01*
X147069182Y-49000000D02*
X119269182Y-49000000D01*
X153069182Y-55000000D02*
X147069182Y-49000000D01*
X118769182Y-49500000D02*
X119269182Y-50000000D01*
X119269182Y-50000000D02*
X119269182Y-55000000D01*
X158769182Y-59500000D02*
X164769182Y-59500000D01*
X164769182Y-59500000D02*
X165769182Y-60500000D01*
X165769182Y-60500000D02*
X165769182Y-63000000D01*
X154269182Y-55000000D02*
X158769182Y-59500000D01*
X153069182Y-55000000D02*
X154269182Y-55000000D01*
D19*
%TO.N,/SCL*%
X149369182Y-57600000D02*
X153269182Y-61500000D01*
X148019182Y-57600000D02*
X149369182Y-57600000D01*
X153269182Y-61500000D02*
X153069182Y-61700000D01*
X153069182Y-61700000D02*
X153069182Y-63000000D01*
X190269182Y-103540000D02*
X190269182Y-54500000D01*
X184809182Y-109000000D02*
X190269182Y-103540000D01*
X190269182Y-54500000D02*
X188809182Y-54500000D01*
X188809182Y-54500000D02*
X187769182Y-53460000D01*
D18*
%TO.N,/5V*%
X156229182Y-111500000D02*
X179269182Y-111500000D01*
X152229182Y-107500000D02*
X156229182Y-111500000D01*
X179269182Y-111500000D02*
X179269182Y-109460000D01*
X179269182Y-109460000D02*
X179729182Y-109000000D01*
D19*
%TO.N,/3 SCK*%
X151269182Y-105920000D02*
X151269182Y-81500000D01*
X149689182Y-107500000D02*
X151269182Y-105920000D01*
X151269182Y-81500000D02*
X150229182Y-80460000D01*
X150229182Y-80460000D02*
X148019182Y-80460000D01*
%TO.N,Net-(U1-XTAL1{slash}PB6)*%
X133769182Y-76000000D02*
X135689182Y-77920000D01*
X135689182Y-77920000D02*
X140399182Y-77920000D01*
%TO.N,Net-(U1-XTAL2{slash}PB7)*%
X133769182Y-80880000D02*
X139979182Y-80880000D01*
X139979182Y-80880000D02*
X140399182Y-80460000D01*
D18*
%TO.N,/5V*%
X121769182Y-71000000D02*
X123609182Y-72840000D01*
X123609182Y-72840000D02*
X140399182Y-72840000D01*
D19*
%TO.N,/5 RST*%
X126889182Y-55000000D02*
X137799182Y-55000000D01*
X137799182Y-55000000D02*
X140399182Y-57600000D01*
D18*
%TO.N,/5V*%
X110729182Y-59960000D02*
X115689182Y-55000000D01*
X115689182Y-55000000D02*
X119269182Y-55000000D01*
X105769182Y-59960000D02*
X110729182Y-59960000D01*
X110729182Y-59960000D02*
X121769182Y-71000000D01*
%TO.N,Net-(U1-AVCC)*%
X148019182Y-77920000D02*
X156689182Y-77920000D01*
X156689182Y-77920000D02*
X156769182Y-78000000D01*
D19*
%TO.N,/SDA*%
X175769182Y-62500000D02*
X175769182Y-102500000D01*
X165769182Y-55000000D02*
X168269182Y-55000000D01*
X175769182Y-102500000D02*
X182269182Y-109000000D01*
X168269182Y-55000000D02*
X175769182Y-62500000D01*
%TD*%
M02*
