%TF.GenerationSoftware,KiCad,Pcbnew,9.0.1*%
%TF.CreationDate,2025-06-18T08:05:51+01:00*%
%TF.ProjectId,station_pcb,73746174-696f-46e5-9f70-63622e6b6963,rev?*%
%TF.SameCoordinates,Original*%
%TF.FileFunction,Legend,Top*%
%TF.FilePolarity,Positive*%
%FSLAX46Y46*%
G04 Gerber Fmt 4.6, Leading zero omitted, Abs format (unit mm)*
G04 Created by KiCad (PCBNEW 9.0.1) date 2025-06-18 08:05:51*
%MOMM*%
%LPD*%
G01*
G04 APERTURE LIST*
%ADD10C,0.150000*%
%ADD11C,0.120000*%
G04 APERTURE END LIST*
D10*
X159252515Y-52734819D02*
X158919182Y-52258628D01*
X158681087Y-52734819D02*
X158681087Y-51734819D01*
X158681087Y-51734819D02*
X159062039Y-51734819D01*
X159062039Y-51734819D02*
X159157277Y-51782438D01*
X159157277Y-51782438D02*
X159204896Y-51830057D01*
X159204896Y-51830057D02*
X159252515Y-51925295D01*
X159252515Y-51925295D02*
X159252515Y-52068152D01*
X159252515Y-52068152D02*
X159204896Y-52163390D01*
X159204896Y-52163390D02*
X159157277Y-52211009D01*
X159157277Y-52211009D02*
X159062039Y-52258628D01*
X159062039Y-52258628D02*
X158681087Y-52258628D01*
X159633468Y-51830057D02*
X159681087Y-51782438D01*
X159681087Y-51782438D02*
X159776325Y-51734819D01*
X159776325Y-51734819D02*
X160014420Y-51734819D01*
X160014420Y-51734819D02*
X160109658Y-51782438D01*
X160109658Y-51782438D02*
X160157277Y-51830057D01*
X160157277Y-51830057D02*
X160204896Y-51925295D01*
X160204896Y-51925295D02*
X160204896Y-52020533D01*
X160204896Y-52020533D02*
X160157277Y-52163390D01*
X160157277Y-52163390D02*
X159585849Y-52734819D01*
X159585849Y-52734819D02*
X160204896Y-52734819D01*
X156604001Y-107833333D02*
X157318286Y-107833333D01*
X157318286Y-107833333D02*
X157461143Y-107880952D01*
X157461143Y-107880952D02*
X157556382Y-107976190D01*
X157556382Y-107976190D02*
X157604001Y-108119047D01*
X157604001Y-108119047D02*
X157604001Y-108214285D01*
X156937334Y-106928571D02*
X157604001Y-106928571D01*
X156556382Y-107166666D02*
X157270667Y-107404761D01*
X157270667Y-107404761D02*
X157270667Y-106785714D01*
X133852515Y-64109580D02*
X133804896Y-64157200D01*
X133804896Y-64157200D02*
X133662039Y-64204819D01*
X133662039Y-64204819D02*
X133566801Y-64204819D01*
X133566801Y-64204819D02*
X133423944Y-64157200D01*
X133423944Y-64157200D02*
X133328706Y-64061961D01*
X133328706Y-64061961D02*
X133281087Y-63966723D01*
X133281087Y-63966723D02*
X133233468Y-63776247D01*
X133233468Y-63776247D02*
X133233468Y-63633390D01*
X133233468Y-63633390D02*
X133281087Y-63442914D01*
X133281087Y-63442914D02*
X133328706Y-63347676D01*
X133328706Y-63347676D02*
X133423944Y-63252438D01*
X133423944Y-63252438D02*
X133566801Y-63204819D01*
X133566801Y-63204819D02*
X133662039Y-63204819D01*
X133662039Y-63204819D02*
X133804896Y-63252438D01*
X133804896Y-63252438D02*
X133852515Y-63300057D01*
X134804896Y-64204819D02*
X134233468Y-64204819D01*
X134519182Y-64204819D02*
X134519182Y-63204819D01*
X134519182Y-63204819D02*
X134423944Y-63347676D01*
X134423944Y-63347676D02*
X134328706Y-63442914D01*
X134328706Y-63442914D02*
X134233468Y-63490533D01*
X130222810Y-78916190D02*
X130699001Y-78916190D01*
X129699001Y-79249523D02*
X130222810Y-78916190D01*
X130222810Y-78916190D02*
X129699001Y-78582857D01*
X130699001Y-77725714D02*
X130699001Y-78297142D01*
X130699001Y-78011428D02*
X129699001Y-78011428D01*
X129699001Y-78011428D02*
X129841858Y-78106666D01*
X129841858Y-78106666D02*
X129937096Y-78201904D01*
X129937096Y-78201904D02*
X129984715Y-78297142D01*
X157602515Y-83109580D02*
X157554896Y-83157200D01*
X157554896Y-83157200D02*
X157412039Y-83204819D01*
X157412039Y-83204819D02*
X157316801Y-83204819D01*
X157316801Y-83204819D02*
X157173944Y-83157200D01*
X157173944Y-83157200D02*
X157078706Y-83061961D01*
X157078706Y-83061961D02*
X157031087Y-82966723D01*
X157031087Y-82966723D02*
X156983468Y-82776247D01*
X156983468Y-82776247D02*
X156983468Y-82633390D01*
X156983468Y-82633390D02*
X157031087Y-82442914D01*
X157031087Y-82442914D02*
X157078706Y-82347676D01*
X157078706Y-82347676D02*
X157173944Y-82252438D01*
X157173944Y-82252438D02*
X157316801Y-82204819D01*
X157316801Y-82204819D02*
X157412039Y-82204819D01*
X157412039Y-82204819D02*
X157554896Y-82252438D01*
X157554896Y-82252438D02*
X157602515Y-82300057D01*
X157935849Y-82204819D02*
X158554896Y-82204819D01*
X158554896Y-82204819D02*
X158221563Y-82585771D01*
X158221563Y-82585771D02*
X158364420Y-82585771D01*
X158364420Y-82585771D02*
X158459658Y-82633390D01*
X158459658Y-82633390D02*
X158507277Y-82681009D01*
X158507277Y-82681009D02*
X158554896Y-82776247D01*
X158554896Y-82776247D02*
X158554896Y-83014342D01*
X158554896Y-83014342D02*
X158507277Y-83109580D01*
X158507277Y-83109580D02*
X158459658Y-83157200D01*
X158459658Y-83157200D02*
X158364420Y-83204819D01*
X158364420Y-83204819D02*
X158078706Y-83204819D01*
X158078706Y-83204819D02*
X157983468Y-83157200D01*
X157983468Y-83157200D02*
X157935849Y-83109580D01*
X143447277Y-54724819D02*
X143447277Y-55534342D01*
X143447277Y-55534342D02*
X143494896Y-55629580D01*
X143494896Y-55629580D02*
X143542515Y-55677200D01*
X143542515Y-55677200D02*
X143637753Y-55724819D01*
X143637753Y-55724819D02*
X143828229Y-55724819D01*
X143828229Y-55724819D02*
X143923467Y-55677200D01*
X143923467Y-55677200D02*
X143971086Y-55629580D01*
X143971086Y-55629580D02*
X144018705Y-55534342D01*
X144018705Y-55534342D02*
X144018705Y-54724819D01*
X145018705Y-55724819D02*
X144447277Y-55724819D01*
X144732991Y-55724819D02*
X144732991Y-54724819D01*
X144732991Y-54724819D02*
X144637753Y-54867676D01*
X144637753Y-54867676D02*
X144542515Y-54962914D01*
X144542515Y-54962914D02*
X144447277Y-55010533D01*
X159252515Y-60734819D02*
X158919182Y-60258628D01*
X158681087Y-60734819D02*
X158681087Y-59734819D01*
X158681087Y-59734819D02*
X159062039Y-59734819D01*
X159062039Y-59734819D02*
X159157277Y-59782438D01*
X159157277Y-59782438D02*
X159204896Y-59830057D01*
X159204896Y-59830057D02*
X159252515Y-59925295D01*
X159252515Y-59925295D02*
X159252515Y-60068152D01*
X159252515Y-60068152D02*
X159204896Y-60163390D01*
X159204896Y-60163390D02*
X159157277Y-60211009D01*
X159157277Y-60211009D02*
X159062039Y-60258628D01*
X159062039Y-60258628D02*
X158681087Y-60258628D01*
X159585849Y-59734819D02*
X160204896Y-59734819D01*
X160204896Y-59734819D02*
X159871563Y-60115771D01*
X159871563Y-60115771D02*
X160014420Y-60115771D01*
X160014420Y-60115771D02*
X160109658Y-60163390D01*
X160109658Y-60163390D02*
X160157277Y-60211009D01*
X160157277Y-60211009D02*
X160204896Y-60306247D01*
X160204896Y-60306247D02*
X160204896Y-60544342D01*
X160204896Y-60544342D02*
X160157277Y-60639580D01*
X160157277Y-60639580D02*
X160109658Y-60687200D01*
X160109658Y-60687200D02*
X160014420Y-60734819D01*
X160014420Y-60734819D02*
X159728706Y-60734819D01*
X159728706Y-60734819D02*
X159633468Y-60687200D01*
X159633468Y-60687200D02*
X159585849Y-60639580D01*
X122912515Y-53084819D02*
X122579182Y-52608628D01*
X122341087Y-53084819D02*
X122341087Y-52084819D01*
X122341087Y-52084819D02*
X122722039Y-52084819D01*
X122722039Y-52084819D02*
X122817277Y-52132438D01*
X122817277Y-52132438D02*
X122864896Y-52180057D01*
X122864896Y-52180057D02*
X122912515Y-52275295D01*
X122912515Y-52275295D02*
X122912515Y-52418152D01*
X122912515Y-52418152D02*
X122864896Y-52513390D01*
X122864896Y-52513390D02*
X122817277Y-52561009D01*
X122817277Y-52561009D02*
X122722039Y-52608628D01*
X122722039Y-52608628D02*
X122341087Y-52608628D01*
X123864896Y-53084819D02*
X123293468Y-53084819D01*
X123579182Y-53084819D02*
X123579182Y-52084819D01*
X123579182Y-52084819D02*
X123483944Y-52227676D01*
X123483944Y-52227676D02*
X123388706Y-52322914D01*
X123388706Y-52322914D02*
X123293468Y-52370533D01*
X174264001Y-109333333D02*
X174978286Y-109333333D01*
X174978286Y-109333333D02*
X175121143Y-109380952D01*
X175121143Y-109380952D02*
X175216382Y-109476190D01*
X175216382Y-109476190D02*
X175264001Y-109619047D01*
X175264001Y-109619047D02*
X175264001Y-109714285D01*
X174264001Y-108952380D02*
X174264001Y-108333333D01*
X174264001Y-108333333D02*
X174644953Y-108666666D01*
X174644953Y-108666666D02*
X174644953Y-108523809D01*
X174644953Y-108523809D02*
X174692572Y-108428571D01*
X174692572Y-108428571D02*
X174740191Y-108380952D01*
X174740191Y-108380952D02*
X174835429Y-108333333D01*
X174835429Y-108333333D02*
X175073524Y-108333333D01*
X175073524Y-108333333D02*
X175168762Y-108380952D01*
X175168762Y-108380952D02*
X175216382Y-108428571D01*
X175216382Y-108428571D02*
X175264001Y-108523809D01*
X175264001Y-108523809D02*
X175264001Y-108809523D01*
X175264001Y-108809523D02*
X175216382Y-108904761D01*
X175216382Y-108904761D02*
X175168762Y-108952380D01*
X187435848Y-47994819D02*
X187435848Y-48709104D01*
X187435848Y-48709104D02*
X187388229Y-48851961D01*
X187388229Y-48851961D02*
X187292991Y-48947200D01*
X187292991Y-48947200D02*
X187150134Y-48994819D01*
X187150134Y-48994819D02*
X187054896Y-48994819D01*
X187864420Y-48090057D02*
X187912039Y-48042438D01*
X187912039Y-48042438D02*
X188007277Y-47994819D01*
X188007277Y-47994819D02*
X188245372Y-47994819D01*
X188245372Y-47994819D02*
X188340610Y-48042438D01*
X188340610Y-48042438D02*
X188388229Y-48090057D01*
X188388229Y-48090057D02*
X188435848Y-48185295D01*
X188435848Y-48185295D02*
X188435848Y-48280533D01*
X188435848Y-48280533D02*
X188388229Y-48423390D01*
X188388229Y-48423390D02*
X187816801Y-48994819D01*
X187816801Y-48994819D02*
X188435848Y-48994819D01*
X105435848Y-57034819D02*
X105435848Y-57749104D01*
X105435848Y-57749104D02*
X105388229Y-57891961D01*
X105388229Y-57891961D02*
X105292991Y-57987200D01*
X105292991Y-57987200D02*
X105150134Y-58034819D01*
X105150134Y-58034819D02*
X105054896Y-58034819D01*
X106435848Y-58034819D02*
X105864420Y-58034819D01*
X106150134Y-58034819D02*
X106150134Y-57034819D01*
X106150134Y-57034819D02*
X106054896Y-57177676D01*
X106054896Y-57177676D02*
X105959658Y-57272914D01*
X105959658Y-57272914D02*
X105864420Y-57320533D01*
X122852515Y-66959580D02*
X122804896Y-67007200D01*
X122804896Y-67007200D02*
X122662039Y-67054819D01*
X122662039Y-67054819D02*
X122566801Y-67054819D01*
X122566801Y-67054819D02*
X122423944Y-67007200D01*
X122423944Y-67007200D02*
X122328706Y-66911961D01*
X122328706Y-66911961D02*
X122281087Y-66816723D01*
X122281087Y-66816723D02*
X122233468Y-66626247D01*
X122233468Y-66626247D02*
X122233468Y-66483390D01*
X122233468Y-66483390D02*
X122281087Y-66292914D01*
X122281087Y-66292914D02*
X122328706Y-66197676D01*
X122328706Y-66197676D02*
X122423944Y-66102438D01*
X122423944Y-66102438D02*
X122566801Y-66054819D01*
X122566801Y-66054819D02*
X122662039Y-66054819D01*
X122662039Y-66054819D02*
X122804896Y-66102438D01*
X122804896Y-66102438D02*
X122852515Y-66150057D01*
X123709658Y-66388152D02*
X123709658Y-67054819D01*
X123471563Y-66007200D02*
X123233468Y-66721485D01*
X123233468Y-66721485D02*
X123852515Y-66721485D01*
X134352515Y-93609580D02*
X134304896Y-93657200D01*
X134304896Y-93657200D02*
X134162039Y-93704819D01*
X134162039Y-93704819D02*
X134066801Y-93704819D01*
X134066801Y-93704819D02*
X133923944Y-93657200D01*
X133923944Y-93657200D02*
X133828706Y-93561961D01*
X133828706Y-93561961D02*
X133781087Y-93466723D01*
X133781087Y-93466723D02*
X133733468Y-93276247D01*
X133733468Y-93276247D02*
X133733468Y-93133390D01*
X133733468Y-93133390D02*
X133781087Y-92942914D01*
X133781087Y-92942914D02*
X133828706Y-92847676D01*
X133828706Y-92847676D02*
X133923944Y-92752438D01*
X133923944Y-92752438D02*
X134066801Y-92704819D01*
X134066801Y-92704819D02*
X134162039Y-92704819D01*
X134162039Y-92704819D02*
X134304896Y-92752438D01*
X134304896Y-92752438D02*
X134352515Y-92800057D01*
X134733468Y-92800057D02*
X134781087Y-92752438D01*
X134781087Y-92752438D02*
X134876325Y-92704819D01*
X134876325Y-92704819D02*
X135114420Y-92704819D01*
X135114420Y-92704819D02*
X135209658Y-92752438D01*
X135209658Y-92752438D02*
X135257277Y-92800057D01*
X135257277Y-92800057D02*
X135304896Y-92895295D01*
X135304896Y-92895295D02*
X135304896Y-92990533D01*
X135304896Y-92990533D02*
X135257277Y-93133390D01*
X135257277Y-93133390D02*
X134685849Y-93704819D01*
X134685849Y-93704819D02*
X135304896Y-93704819D01*
D11*
%TO.C,R2*%
X164729182Y-55000000D02*
X164039182Y-55000000D01*
X164039182Y-56720000D02*
X164039182Y-53280000D01*
X164039182Y-53280000D02*
X154799182Y-53280000D01*
X154799182Y-56720000D02*
X164039182Y-56720000D01*
X154799182Y-53280000D02*
X154799182Y-56720000D01*
X154109182Y-55000000D02*
X154799182Y-55000000D01*
%TO.C,J4*%
X153499182Y-108880000D02*
X140689182Y-108880000D01*
X140689182Y-106120000D02*
X140689182Y-108880000D01*
X153499182Y-106120000D02*
X153499182Y-108880000D01*
X153499182Y-106120000D02*
X140689182Y-106120000D01*
X154769182Y-106120000D02*
X156149182Y-106120000D01*
X156149182Y-106120000D02*
X156149182Y-107500000D01*
%TO.C,C1*%
X136639182Y-67500000D02*
G75*
G02*
X131399182Y-67500000I-2620000J0D01*
G01*
X131399182Y-67500000D02*
G75*
G02*
X136639182Y-67500000I2620000J0D01*
G01*
X136619182Y-67217000D02*
X136619182Y-67783000D01*
X136579182Y-66983000D02*
X136579182Y-68017000D01*
X136539182Y-66823000D02*
X136539182Y-68177000D01*
X136499182Y-66695000D02*
X136499182Y-68305000D01*
X136459182Y-66586000D02*
X136459182Y-68414000D01*
X136419182Y-66489000D02*
X136419182Y-68511000D01*
X136379182Y-66402000D02*
X136379182Y-68598000D01*
X136339182Y-66323000D02*
X136339182Y-68677000D01*
X136299182Y-68540000D02*
X136299182Y-68751000D01*
X136299182Y-66249000D02*
X136299182Y-66460000D01*
X136259182Y-68540000D02*
X136259182Y-68819000D01*
X136259182Y-66181000D02*
X136259182Y-66460000D01*
X136219182Y-68540000D02*
X136219182Y-68883000D01*
X136219182Y-66117000D02*
X136219182Y-66460000D01*
X136179182Y-68540000D02*
X136179182Y-68943000D01*
X136179182Y-66057000D02*
X136179182Y-66460000D01*
X136139182Y-68540000D02*
X136139182Y-68999000D01*
X136139182Y-66001000D02*
X136139182Y-66460000D01*
X136099182Y-68540000D02*
X136099182Y-69053000D01*
X136099182Y-65947000D02*
X136099182Y-66460000D01*
X136059182Y-68540000D02*
X136059182Y-69104000D01*
X136059182Y-65896000D02*
X136059182Y-66460000D01*
X136019182Y-68540000D02*
X136019182Y-69152000D01*
X136019182Y-65848000D02*
X136019182Y-66460000D01*
X135979182Y-68540000D02*
X135979182Y-69199000D01*
X135979182Y-65801000D02*
X135979182Y-66460000D01*
X135939182Y-68540000D02*
X135939182Y-69243000D01*
X135939182Y-65757000D02*
X135939182Y-66460000D01*
X135899182Y-68540000D02*
X135899182Y-69285000D01*
X135899182Y-65715000D02*
X135899182Y-66460000D01*
X135859182Y-68540000D02*
X135859182Y-69325000D01*
X135859182Y-65675000D02*
X135859182Y-66460000D01*
X135819182Y-68540000D02*
X135819182Y-69364000D01*
X135819182Y-65636000D02*
X135819182Y-66460000D01*
X135779182Y-68540000D02*
X135779182Y-69401000D01*
X135779182Y-65599000D02*
X135779182Y-66460000D01*
X135739182Y-68540000D02*
X135739182Y-69436000D01*
X135739182Y-65564000D02*
X135739182Y-66460000D01*
X135699182Y-68540000D02*
X135699182Y-69470000D01*
X135699182Y-65530000D02*
X135699182Y-66460000D01*
X135659182Y-68540000D02*
X135659182Y-69503000D01*
X135659182Y-65497000D02*
X135659182Y-66460000D01*
X135619182Y-68540000D02*
X135619182Y-69535000D01*
X135619182Y-65465000D02*
X135619182Y-66460000D01*
X135579182Y-68540000D02*
X135579182Y-69565000D01*
X135579182Y-65435000D02*
X135579182Y-66460000D01*
X135539182Y-68540000D02*
X135539182Y-69594000D01*
X135539182Y-65406000D02*
X135539182Y-66460000D01*
X135499182Y-68540000D02*
X135499182Y-69622000D01*
X135499182Y-65378000D02*
X135499182Y-66460000D01*
X135459182Y-68540000D02*
X135459182Y-69649000D01*
X135459182Y-65351000D02*
X135459182Y-66460000D01*
X135419182Y-68540000D02*
X135419182Y-69675000D01*
X135419182Y-65325000D02*
X135419182Y-66460000D01*
X135379182Y-68540000D02*
X135379182Y-69699000D01*
X135379182Y-65301000D02*
X135379182Y-66460000D01*
X135339182Y-68540000D02*
X135339182Y-69723000D01*
X135339182Y-65277000D02*
X135339182Y-66460000D01*
X135299182Y-68540000D02*
X135299182Y-69746000D01*
X135299182Y-65254000D02*
X135299182Y-66460000D01*
X135259182Y-68540000D02*
X135259182Y-69768000D01*
X135259182Y-65232000D02*
X135259182Y-66460000D01*
X135219182Y-68540000D02*
X135219182Y-69789000D01*
X135219182Y-65211000D02*
X135219182Y-66460000D01*
X135179182Y-68540000D02*
X135179182Y-69809000D01*
X135179182Y-65191000D02*
X135179182Y-66460000D01*
X135139182Y-68540000D02*
X135139182Y-69829000D01*
X135139182Y-65171000D02*
X135139182Y-66460000D01*
X135099182Y-68540000D02*
X135099182Y-69847000D01*
X135099182Y-65153000D02*
X135099182Y-66460000D01*
X135059182Y-68540000D02*
X135059182Y-69865000D01*
X135059182Y-65135000D02*
X135059182Y-66460000D01*
X135019182Y-68540000D02*
X135019182Y-69882000D01*
X135019182Y-65118000D02*
X135019182Y-66460000D01*
X134979182Y-68540000D02*
X134979182Y-69898000D01*
X134979182Y-65102000D02*
X134979182Y-66460000D01*
X134939182Y-68540000D02*
X134939182Y-69913000D01*
X134939182Y-65087000D02*
X134939182Y-66460000D01*
X134899182Y-68540000D02*
X134899182Y-69928000D01*
X134899182Y-65072000D02*
X134899182Y-66460000D01*
X134859182Y-68540000D02*
X134859182Y-69942000D01*
X134859182Y-65058000D02*
X134859182Y-66460000D01*
X134819182Y-68540000D02*
X134819182Y-69955000D01*
X134819182Y-65045000D02*
X134819182Y-66460000D01*
X134779182Y-68540000D02*
X134779182Y-69967000D01*
X134779182Y-65033000D02*
X134779182Y-66460000D01*
X134739182Y-68540000D02*
X134739182Y-69979000D01*
X134739182Y-65021000D02*
X134739182Y-66460000D01*
X134699182Y-68540000D02*
X134699182Y-69990000D01*
X134699182Y-65010000D02*
X134699182Y-66460000D01*
X134659182Y-68540000D02*
X134659182Y-70001000D01*
X134659182Y-64999000D02*
X134659182Y-66460000D01*
X134619182Y-68540000D02*
X134619182Y-70010000D01*
X134619182Y-64990000D02*
X134619182Y-66460000D01*
X134579182Y-68540000D02*
X134579182Y-70019000D01*
X134579182Y-64981000D02*
X134579182Y-66460000D01*
X134539182Y-68540000D02*
X134539182Y-70028000D01*
X134539182Y-64972000D02*
X134539182Y-66460000D01*
X134499182Y-68540000D02*
X134499182Y-70036000D01*
X134499182Y-64964000D02*
X134499182Y-66460000D01*
X134459182Y-68540000D02*
X134459182Y-70043000D01*
X134459182Y-64957000D02*
X134459182Y-66460000D01*
X134419182Y-68540000D02*
X134419182Y-70049000D01*
X134419182Y-64951000D02*
X134419182Y-66460000D01*
X134379182Y-68540000D02*
X134379182Y-70055000D01*
X134379182Y-64945000D02*
X134379182Y-66460000D01*
X134339182Y-68540000D02*
X134339182Y-70060000D01*
X134339182Y-64940000D02*
X134339182Y-66460000D01*
X134299182Y-68540000D02*
X134299182Y-70065000D01*
X134299182Y-64935000D02*
X134299182Y-66460000D01*
X134259182Y-68540000D02*
X134259182Y-70069000D01*
X134259182Y-64931000D02*
X134259182Y-66460000D01*
X134219182Y-64928000D02*
X134219182Y-70072000D01*
X134179182Y-64925000D02*
X134179182Y-70075000D01*
X134139182Y-64923000D02*
X134139182Y-70077000D01*
X134099182Y-64921000D02*
X134099182Y-70079000D01*
X134059182Y-64920000D02*
X134059182Y-70080000D01*
X134019182Y-64920000D02*
X134019182Y-70080000D01*
X131464407Y-65775000D02*
X131464407Y-66275000D01*
X131214407Y-66025000D02*
X131714407Y-66025000D01*
%TO.C,Y1*%
X131244182Y-75315000D02*
G75*
G02*
X136294182Y-75315000I2525000J0D01*
G01*
X136294182Y-81565000D02*
G75*
G02*
X131244182Y-81565000I-2525000J0D01*
G01*
X136294182Y-81565000D02*
X136294182Y-75315000D01*
X131244182Y-81565000D02*
X131244182Y-75315000D01*
%TO.C,C3*%
X161289182Y-78000000D02*
G75*
G02*
X154749182Y-78000000I-3270000J0D01*
G01*
X154749182Y-78000000D02*
G75*
G02*
X161289182Y-78000000I3270000J0D01*
G01*
X161259182Y-77598000D02*
X161259182Y-78402000D01*
X161219182Y-77367000D02*
X161219182Y-78633000D01*
X161179182Y-77199000D02*
X161179182Y-78801000D01*
X161139182Y-77061000D02*
X161139182Y-78939000D01*
X161099182Y-76942000D02*
X161099182Y-79058000D01*
X161059182Y-76835000D02*
X161059182Y-79165000D01*
X161019182Y-76739000D02*
X161019182Y-79261000D01*
X160979182Y-76650000D02*
X160979182Y-79350000D01*
X160939182Y-76568000D02*
X160939182Y-79432000D01*
X160899182Y-76491000D02*
X160899182Y-79509000D01*
X160859182Y-76419000D02*
X160859182Y-79581000D01*
X160819182Y-76351000D02*
X160819182Y-79649000D01*
X160779182Y-76286000D02*
X160779182Y-79714000D01*
X160739182Y-76225000D02*
X160739182Y-79775000D01*
X160699182Y-76166000D02*
X160699182Y-79834000D01*
X160659182Y-76110000D02*
X160659182Y-79890000D01*
X160619182Y-76057000D02*
X160619182Y-79943000D01*
X160579182Y-76005000D02*
X160579182Y-79995000D01*
X160539182Y-75956000D02*
X160539182Y-80044000D01*
X160499182Y-75909000D02*
X160499182Y-80091000D01*
X160459182Y-75863000D02*
X160459182Y-80137000D01*
X160419182Y-75819000D02*
X160419182Y-80181000D01*
X160379182Y-75777000D02*
X160379182Y-80223000D01*
X160339182Y-75736000D02*
X160339182Y-80264000D01*
X160299182Y-79040000D02*
X160299182Y-80304000D01*
X160299182Y-75696000D02*
X160299182Y-76960000D01*
X160259182Y-79040000D02*
X160259182Y-80342000D01*
X160259182Y-75658000D02*
X160259182Y-76960000D01*
X160219182Y-79040000D02*
X160219182Y-80379000D01*
X160219182Y-75621000D02*
X160219182Y-76960000D01*
X160179182Y-79040000D02*
X160179182Y-80415000D01*
X160179182Y-75585000D02*
X160179182Y-76960000D01*
X160139182Y-79040000D02*
X160139182Y-80450000D01*
X160139182Y-75550000D02*
X160139182Y-76960000D01*
X160099182Y-79040000D02*
X160099182Y-80483000D01*
X160099182Y-75517000D02*
X160099182Y-76960000D01*
X160059182Y-79040000D02*
X160059182Y-80516000D01*
X160059182Y-75484000D02*
X160059182Y-76960000D01*
X160019182Y-79040000D02*
X160019182Y-80547000D01*
X160019182Y-75453000D02*
X160019182Y-76960000D01*
X159979182Y-79040000D02*
X159979182Y-80577000D01*
X159979182Y-75423000D02*
X159979182Y-76960000D01*
X159939182Y-79040000D02*
X159939182Y-80607000D01*
X159939182Y-75393000D02*
X159939182Y-76960000D01*
X159899182Y-79040000D02*
X159899182Y-80636000D01*
X159899182Y-75364000D02*
X159899182Y-76960000D01*
X159859182Y-79040000D02*
X159859182Y-80663000D01*
X159859182Y-75337000D02*
X159859182Y-76960000D01*
X159819182Y-79040000D02*
X159819182Y-80690000D01*
X159819182Y-75310000D02*
X159819182Y-76960000D01*
X159779182Y-79040000D02*
X159779182Y-80716000D01*
X159779182Y-75284000D02*
X159779182Y-76960000D01*
X159739182Y-79040000D02*
X159739182Y-80741000D01*
X159739182Y-75259000D02*
X159739182Y-76960000D01*
X159699182Y-79040000D02*
X159699182Y-80765000D01*
X159699182Y-75235000D02*
X159699182Y-76960000D01*
X159659182Y-79040000D02*
X159659182Y-80789000D01*
X159659182Y-75211000D02*
X159659182Y-76960000D01*
X159619182Y-79040000D02*
X159619182Y-80812000D01*
X159619182Y-75188000D02*
X159619182Y-76960000D01*
X159579182Y-79040000D02*
X159579182Y-80834000D01*
X159579182Y-75166000D02*
X159579182Y-76960000D01*
X159539182Y-79040000D02*
X159539182Y-80855000D01*
X159539182Y-75145000D02*
X159539182Y-76960000D01*
X159499182Y-79040000D02*
X159499182Y-80876000D01*
X159499182Y-75124000D02*
X159499182Y-76960000D01*
X159459182Y-79040000D02*
X159459182Y-80896000D01*
X159459182Y-75104000D02*
X159459182Y-76960000D01*
X159419182Y-79040000D02*
X159419182Y-80915000D01*
X159419182Y-75085000D02*
X159419182Y-76960000D01*
X159379182Y-79040000D02*
X159379182Y-80934000D01*
X159379182Y-75066000D02*
X159379182Y-76960000D01*
X159339182Y-79040000D02*
X159339182Y-80952000D01*
X159339182Y-75048000D02*
X159339182Y-76960000D01*
X159299182Y-79040000D02*
X159299182Y-80969000D01*
X159299182Y-75031000D02*
X159299182Y-76960000D01*
X159259182Y-79040000D02*
X159259182Y-80986000D01*
X159259182Y-75014000D02*
X159259182Y-76960000D01*
X159219182Y-79040000D02*
X159219182Y-81002000D01*
X159219182Y-74998000D02*
X159219182Y-76960000D01*
X159179182Y-79040000D02*
X159179182Y-81017000D01*
X159179182Y-74983000D02*
X159179182Y-76960000D01*
X159139182Y-79040000D02*
X159139182Y-81032000D01*
X159139182Y-74968000D02*
X159139182Y-76960000D01*
X159099182Y-79040000D02*
X159099182Y-81047000D01*
X159099182Y-74953000D02*
X159099182Y-76960000D01*
X159059182Y-79040000D02*
X159059182Y-81060000D01*
X159059182Y-74940000D02*
X159059182Y-76960000D01*
X159019182Y-79040000D02*
X159019182Y-81073000D01*
X159019182Y-74927000D02*
X159019182Y-76960000D01*
X158979182Y-79040000D02*
X158979182Y-81086000D01*
X158979182Y-74914000D02*
X158979182Y-76960000D01*
X158939182Y-79040000D02*
X158939182Y-81098000D01*
X158939182Y-74902000D02*
X158939182Y-76960000D01*
X158899182Y-79040000D02*
X158899182Y-81109000D01*
X158899182Y-74891000D02*
X158899182Y-76960000D01*
X158859182Y-79040000D02*
X158859182Y-81120000D01*
X158859182Y-74880000D02*
X158859182Y-76960000D01*
X158819182Y-79040000D02*
X158819182Y-81131000D01*
X158819182Y-74869000D02*
X158819182Y-76960000D01*
X158779182Y-79040000D02*
X158779182Y-81140000D01*
X158779182Y-74860000D02*
X158779182Y-76960000D01*
X158739182Y-79040000D02*
X158739182Y-81150000D01*
X158739182Y-74850000D02*
X158739182Y-76960000D01*
X158699182Y-79040000D02*
X158699182Y-81159000D01*
X158699182Y-74841000D02*
X158699182Y-76960000D01*
X158659182Y-79040000D02*
X158659182Y-81167000D01*
X158659182Y-74833000D02*
X158659182Y-76960000D01*
X158619182Y-79040000D02*
X158619182Y-81174000D01*
X158619182Y-74826000D02*
X158619182Y-76960000D01*
X158579182Y-79040000D02*
X158579182Y-81182000D01*
X158579182Y-74818000D02*
X158579182Y-76960000D01*
X158539182Y-79040000D02*
X158539182Y-81188000D01*
X158539182Y-74812000D02*
X158539182Y-76960000D01*
X158499182Y-79040000D02*
X158499182Y-81195000D01*
X158499182Y-74805000D02*
X158499182Y-76960000D01*
X158459182Y-79040000D02*
X158459182Y-81200000D01*
X158459182Y-74800000D02*
X158459182Y-76960000D01*
X158419182Y-79040000D02*
X158419182Y-81205000D01*
X158419182Y-74795000D02*
X158419182Y-76960000D01*
X158379182Y-79040000D02*
X158379182Y-81210000D01*
X158379182Y-74790000D02*
X158379182Y-76960000D01*
X158339182Y-79040000D02*
X158339182Y-81214000D01*
X158339182Y-74786000D02*
X158339182Y-76960000D01*
X158299182Y-79040000D02*
X158299182Y-81218000D01*
X158299182Y-74782000D02*
X158299182Y-76960000D01*
X158259182Y-79040000D02*
X158259182Y-81221000D01*
X158259182Y-74779000D02*
X158259182Y-76960000D01*
X158219182Y-74776000D02*
X158219182Y-81224000D01*
X158179182Y-74774000D02*
X158179182Y-81226000D01*
X158139182Y-74772000D02*
X158139182Y-81228000D01*
X158099182Y-74771000D02*
X158099182Y-81229000D01*
X158059182Y-74770000D02*
X158059182Y-81230000D01*
X158019182Y-74770000D02*
X158019182Y-81230000D01*
X154833941Y-75846000D02*
X154833941Y-76476000D01*
X154518941Y-76161000D02*
X155148941Y-76161000D01*
%TO.C,U1*%
X141559182Y-56270000D02*
X141559182Y-91950000D01*
X141559182Y-91950000D02*
X146859182Y-91950000D01*
X143209182Y-56270000D02*
X141559182Y-56270000D01*
X146859182Y-56270000D02*
X145209182Y-56270000D01*
X146859182Y-91950000D02*
X146859182Y-56270000D01*
X145209182Y-56270000D02*
G75*
G02*
X143209182Y-56270000I-1000000J0D01*
G01*
%TO.C,R3*%
X154109182Y-63000000D02*
X154799182Y-63000000D01*
X154799182Y-61280000D02*
X154799182Y-64720000D01*
X154799182Y-64720000D02*
X164039182Y-64720000D01*
X164039182Y-61280000D02*
X154799182Y-61280000D01*
X164039182Y-64720000D02*
X164039182Y-61280000D01*
X164729182Y-63000000D02*
X164039182Y-63000000D01*
%TO.C,R1*%
X119809182Y-53630000D02*
X126349182Y-53630000D01*
X119809182Y-53960000D02*
X119809182Y-53630000D01*
X119809182Y-56040000D02*
X119809182Y-56370000D01*
X119809182Y-56370000D02*
X126349182Y-56370000D01*
X126349182Y-53630000D02*
X126349182Y-53960000D01*
X126349182Y-56370000D02*
X126349182Y-56040000D01*
%TO.C,J3*%
X175809182Y-110380000D02*
X175809182Y-109000000D01*
X177189182Y-110380000D02*
X175809182Y-110380000D01*
X178459182Y-110380000D02*
X186189182Y-110380000D01*
X178459182Y-110380000D02*
X178459182Y-107620000D01*
X186189182Y-110380000D02*
X186189182Y-107620000D01*
X178459182Y-107620000D02*
X186189182Y-107620000D01*
%TO.C,J2*%
X186389182Y-49540000D02*
X187769182Y-49540000D01*
X186389182Y-50920000D02*
X186389182Y-49540000D01*
X186389182Y-52190000D02*
X186389182Y-59920000D01*
X186389182Y-52190000D02*
X189149182Y-52190000D01*
X186389182Y-59920000D02*
X189149182Y-59920000D01*
X189149182Y-52190000D02*
X189149182Y-59920000D01*
%TO.C,J1*%
X104389182Y-58580000D02*
X105769182Y-58580000D01*
X104389182Y-59960000D02*
X104389182Y-58580000D01*
X104389182Y-61230000D02*
X104389182Y-63880000D01*
X104389182Y-61230000D02*
X107149182Y-61230000D01*
X104389182Y-63880000D02*
X107149182Y-63880000D01*
X107149182Y-61230000D02*
X107149182Y-63880000D01*
%TO.C,C4*%
X119518941Y-69161000D02*
X120148941Y-69161000D01*
X119833941Y-68846000D02*
X119833941Y-69476000D01*
X123019182Y-67770000D02*
X123019182Y-74230000D01*
X123059182Y-67770000D02*
X123059182Y-74230000D01*
X123099182Y-67771000D02*
X123099182Y-74229000D01*
X123139182Y-67772000D02*
X123139182Y-74228000D01*
X123179182Y-67774000D02*
X123179182Y-74226000D01*
X123219182Y-67776000D02*
X123219182Y-74224000D01*
X123259182Y-67779000D02*
X123259182Y-69960000D01*
X123259182Y-72040000D02*
X123259182Y-74221000D01*
X123299182Y-67782000D02*
X123299182Y-69960000D01*
X123299182Y-72040000D02*
X123299182Y-74218000D01*
X123339182Y-67786000D02*
X123339182Y-69960000D01*
X123339182Y-72040000D02*
X123339182Y-74214000D01*
X123379182Y-67790000D02*
X123379182Y-69960000D01*
X123379182Y-72040000D02*
X123379182Y-74210000D01*
X123419182Y-67795000D02*
X123419182Y-69960000D01*
X123419182Y-72040000D02*
X123419182Y-74205000D01*
X123459182Y-67800000D02*
X123459182Y-69960000D01*
X123459182Y-72040000D02*
X123459182Y-74200000D01*
X123499182Y-67805000D02*
X123499182Y-69960000D01*
X123499182Y-72040000D02*
X123499182Y-74195000D01*
X123539182Y-67812000D02*
X123539182Y-69960000D01*
X123539182Y-72040000D02*
X123539182Y-74188000D01*
X123579182Y-67818000D02*
X123579182Y-69960000D01*
X123579182Y-72040000D02*
X123579182Y-74182000D01*
X123619182Y-67826000D02*
X123619182Y-69960000D01*
X123619182Y-72040000D02*
X123619182Y-74174000D01*
X123659182Y-67833000D02*
X123659182Y-69960000D01*
X123659182Y-72040000D02*
X123659182Y-74167000D01*
X123699182Y-67841000D02*
X123699182Y-69960000D01*
X123699182Y-72040000D02*
X123699182Y-74159000D01*
X123739182Y-67850000D02*
X123739182Y-69960000D01*
X123739182Y-72040000D02*
X123739182Y-74150000D01*
X123779182Y-67860000D02*
X123779182Y-69960000D01*
X123779182Y-72040000D02*
X123779182Y-74140000D01*
X123819182Y-67869000D02*
X123819182Y-69960000D01*
X123819182Y-72040000D02*
X123819182Y-74131000D01*
X123859182Y-67880000D02*
X123859182Y-69960000D01*
X123859182Y-72040000D02*
X123859182Y-74120000D01*
X123899182Y-67891000D02*
X123899182Y-69960000D01*
X123899182Y-72040000D02*
X123899182Y-74109000D01*
X123939182Y-67902000D02*
X123939182Y-69960000D01*
X123939182Y-72040000D02*
X123939182Y-74098000D01*
X123979182Y-67914000D02*
X123979182Y-69960000D01*
X123979182Y-72040000D02*
X123979182Y-74086000D01*
X124019182Y-67927000D02*
X124019182Y-69960000D01*
X124019182Y-72040000D02*
X124019182Y-74073000D01*
X124059182Y-67940000D02*
X124059182Y-69960000D01*
X124059182Y-72040000D02*
X124059182Y-74060000D01*
X124099182Y-67953000D02*
X124099182Y-69960000D01*
X124099182Y-72040000D02*
X124099182Y-74047000D01*
X124139182Y-67968000D02*
X124139182Y-69960000D01*
X124139182Y-72040000D02*
X124139182Y-74032000D01*
X124179182Y-67983000D02*
X124179182Y-69960000D01*
X124179182Y-72040000D02*
X124179182Y-74017000D01*
X124219182Y-67998000D02*
X124219182Y-69960000D01*
X124219182Y-72040000D02*
X124219182Y-74002000D01*
X124259182Y-68014000D02*
X124259182Y-69960000D01*
X124259182Y-72040000D02*
X124259182Y-73986000D01*
X124299182Y-68031000D02*
X124299182Y-69960000D01*
X124299182Y-72040000D02*
X124299182Y-73969000D01*
X124339182Y-68048000D02*
X124339182Y-69960000D01*
X124339182Y-72040000D02*
X124339182Y-73952000D01*
X124379182Y-68066000D02*
X124379182Y-69960000D01*
X124379182Y-72040000D02*
X124379182Y-73934000D01*
X124419182Y-68085000D02*
X124419182Y-69960000D01*
X124419182Y-72040000D02*
X124419182Y-73915000D01*
X124459182Y-68104000D02*
X124459182Y-69960000D01*
X124459182Y-72040000D02*
X124459182Y-73896000D01*
X124499182Y-68124000D02*
X124499182Y-69960000D01*
X124499182Y-72040000D02*
X124499182Y-73876000D01*
X124539182Y-68145000D02*
X124539182Y-69960000D01*
X124539182Y-72040000D02*
X124539182Y-73855000D01*
X124579182Y-68166000D02*
X124579182Y-69960000D01*
X124579182Y-72040000D02*
X124579182Y-73834000D01*
X124619182Y-68188000D02*
X124619182Y-69960000D01*
X124619182Y-72040000D02*
X124619182Y-73812000D01*
X124659182Y-68211000D02*
X124659182Y-69960000D01*
X124659182Y-72040000D02*
X124659182Y-73789000D01*
X124699182Y-68235000D02*
X124699182Y-69960000D01*
X124699182Y-72040000D02*
X124699182Y-73765000D01*
X124739182Y-68259000D02*
X124739182Y-69960000D01*
X124739182Y-72040000D02*
X124739182Y-73741000D01*
X124779182Y-68284000D02*
X124779182Y-69960000D01*
X124779182Y-72040000D02*
X124779182Y-73716000D01*
X124819182Y-68310000D02*
X124819182Y-69960000D01*
X124819182Y-72040000D02*
X124819182Y-73690000D01*
X124859182Y-68337000D02*
X124859182Y-69960000D01*
X124859182Y-72040000D02*
X124859182Y-73663000D01*
X124899182Y-68364000D02*
X124899182Y-69960000D01*
X124899182Y-72040000D02*
X124899182Y-73636000D01*
X124939182Y-68393000D02*
X124939182Y-69960000D01*
X124939182Y-72040000D02*
X124939182Y-73607000D01*
X124979182Y-68423000D02*
X124979182Y-69960000D01*
X124979182Y-72040000D02*
X124979182Y-73577000D01*
X125019182Y-68453000D02*
X125019182Y-69960000D01*
X125019182Y-72040000D02*
X125019182Y-73547000D01*
X125059182Y-68484000D02*
X125059182Y-69960000D01*
X125059182Y-72040000D02*
X125059182Y-73516000D01*
X125099182Y-68517000D02*
X125099182Y-69960000D01*
X125099182Y-72040000D02*
X125099182Y-73483000D01*
X125139182Y-68550000D02*
X125139182Y-69960000D01*
X125139182Y-72040000D02*
X125139182Y-73450000D01*
X125179182Y-68585000D02*
X125179182Y-69960000D01*
X125179182Y-72040000D02*
X125179182Y-73415000D01*
X125219182Y-68621000D02*
X125219182Y-69960000D01*
X125219182Y-72040000D02*
X125219182Y-73379000D01*
X125259182Y-68658000D02*
X125259182Y-69960000D01*
X125259182Y-72040000D02*
X125259182Y-73342000D01*
X125299182Y-68696000D02*
X125299182Y-69960000D01*
X125299182Y-72040000D02*
X125299182Y-73304000D01*
X125339182Y-68736000D02*
X125339182Y-73264000D01*
X125379182Y-68777000D02*
X125379182Y-73223000D01*
X125419182Y-68819000D02*
X125419182Y-73181000D01*
X125459182Y-68863000D02*
X125459182Y-73137000D01*
X125499182Y-68909000D02*
X125499182Y-73091000D01*
X125539182Y-68956000D02*
X125539182Y-73044000D01*
X125579182Y-69005000D02*
X125579182Y-72995000D01*
X125619182Y-69057000D02*
X125619182Y-72943000D01*
X125659182Y-69110000D02*
X125659182Y-72890000D01*
X125699182Y-69166000D02*
X125699182Y-72834000D01*
X125739182Y-69225000D02*
X125739182Y-72775000D01*
X125779182Y-69286000D02*
X125779182Y-72714000D01*
X125819182Y-69351000D02*
X125819182Y-72649000D01*
X125859182Y-69419000D02*
X125859182Y-72581000D01*
X125899182Y-69491000D02*
X125899182Y-72509000D01*
X125939182Y-69568000D02*
X125939182Y-72432000D01*
X125979182Y-69650000D02*
X125979182Y-72350000D01*
X126019182Y-69739000D02*
X126019182Y-72261000D01*
X126059182Y-69835000D02*
X126059182Y-72165000D01*
X126099182Y-69942000D02*
X126099182Y-72058000D01*
X126139182Y-70061000D02*
X126139182Y-71939000D01*
X126179182Y-70199000D02*
X126179182Y-71801000D01*
X126219182Y-70367000D02*
X126219182Y-71633000D01*
X126259182Y-70598000D02*
X126259182Y-71402000D01*
X126289182Y-71000000D02*
G75*
G02*
X119749182Y-71000000I-3270000J0D01*
G01*
X119749182Y-71000000D02*
G75*
G02*
X126289182Y-71000000I3270000J0D01*
G01*
%TO.C,C2*%
X137323957Y-90975000D02*
X136823957Y-90975000D01*
X137073957Y-91225000D02*
X137073957Y-90725000D01*
X134519182Y-92080000D02*
X134519182Y-86920000D01*
X134479182Y-92080000D02*
X134479182Y-86920000D01*
X134439182Y-92079000D02*
X134439182Y-86921000D01*
X134399182Y-92077000D02*
X134399182Y-86923000D01*
X134359182Y-92075000D02*
X134359182Y-86925000D01*
X134319182Y-92072000D02*
X134319182Y-86928000D01*
X134279182Y-92069000D02*
X134279182Y-90540000D01*
X134279182Y-88460000D02*
X134279182Y-86931000D01*
X134239182Y-92065000D02*
X134239182Y-90540000D01*
X134239182Y-88460000D02*
X134239182Y-86935000D01*
X134199182Y-92060000D02*
X134199182Y-90540000D01*
X134199182Y-88460000D02*
X134199182Y-86940000D01*
X134159182Y-92055000D02*
X134159182Y-90540000D01*
X134159182Y-88460000D02*
X134159182Y-86945000D01*
X134119182Y-92049000D02*
X134119182Y-90540000D01*
X134119182Y-88460000D02*
X134119182Y-86951000D01*
X134079182Y-92043000D02*
X134079182Y-90540000D01*
X134079182Y-88460000D02*
X134079182Y-86957000D01*
X134039182Y-92036000D02*
X134039182Y-90540000D01*
X134039182Y-88460000D02*
X134039182Y-86964000D01*
X133999182Y-92028000D02*
X133999182Y-90540000D01*
X133999182Y-88460000D02*
X133999182Y-86972000D01*
X133959182Y-92019000D02*
X133959182Y-90540000D01*
X133959182Y-88460000D02*
X133959182Y-86981000D01*
X133919182Y-92010000D02*
X133919182Y-90540000D01*
X133919182Y-88460000D02*
X133919182Y-86990000D01*
X133879182Y-92001000D02*
X133879182Y-90540000D01*
X133879182Y-88460000D02*
X133879182Y-86999000D01*
X133839182Y-91990000D02*
X133839182Y-90540000D01*
X133839182Y-88460000D02*
X133839182Y-87010000D01*
X133799182Y-91979000D02*
X133799182Y-90540000D01*
X133799182Y-88460000D02*
X133799182Y-87021000D01*
X133759182Y-91967000D02*
X133759182Y-90540000D01*
X133759182Y-88460000D02*
X133759182Y-87033000D01*
X133719182Y-91955000D02*
X133719182Y-90540000D01*
X133719182Y-88460000D02*
X133719182Y-87045000D01*
X133679182Y-91942000D02*
X133679182Y-90540000D01*
X133679182Y-88460000D02*
X133679182Y-87058000D01*
X133639182Y-91928000D02*
X133639182Y-90540000D01*
X133639182Y-88460000D02*
X133639182Y-87072000D01*
X133599182Y-91913000D02*
X133599182Y-90540000D01*
X133599182Y-88460000D02*
X133599182Y-87087000D01*
X133559182Y-91898000D02*
X133559182Y-90540000D01*
X133559182Y-88460000D02*
X133559182Y-87102000D01*
X133519182Y-91882000D02*
X133519182Y-90540000D01*
X133519182Y-88460000D02*
X133519182Y-87118000D01*
X133479182Y-91865000D02*
X133479182Y-90540000D01*
X133479182Y-88460000D02*
X133479182Y-87135000D01*
X133439182Y-91847000D02*
X133439182Y-90540000D01*
X133439182Y-88460000D02*
X133439182Y-87153000D01*
X133399182Y-91829000D02*
X133399182Y-90540000D01*
X133399182Y-88460000D02*
X133399182Y-87171000D01*
X133359182Y-91809000D02*
X133359182Y-90540000D01*
X133359182Y-88460000D02*
X133359182Y-87191000D01*
X133319182Y-91789000D02*
X133319182Y-90540000D01*
X133319182Y-88460000D02*
X133319182Y-87211000D01*
X133279182Y-91768000D02*
X133279182Y-90540000D01*
X133279182Y-88460000D02*
X133279182Y-87232000D01*
X133239182Y-91746000D02*
X133239182Y-90540000D01*
X133239182Y-88460000D02*
X133239182Y-87254000D01*
X133199182Y-91723000D02*
X133199182Y-90540000D01*
X133199182Y-88460000D02*
X133199182Y-87277000D01*
X133159182Y-91699000D02*
X133159182Y-90540000D01*
X133159182Y-88460000D02*
X133159182Y-87301000D01*
X133119182Y-91675000D02*
X133119182Y-90540000D01*
X133119182Y-88460000D02*
X133119182Y-87325000D01*
X133079182Y-91649000D02*
X133079182Y-90540000D01*
X133079182Y-88460000D02*
X133079182Y-87351000D01*
X133039182Y-91622000D02*
X133039182Y-90540000D01*
X133039182Y-88460000D02*
X133039182Y-87378000D01*
X132999182Y-91594000D02*
X132999182Y-90540000D01*
X132999182Y-88460000D02*
X132999182Y-87406000D01*
X132959182Y-91565000D02*
X132959182Y-90540000D01*
X132959182Y-88460000D02*
X132959182Y-87435000D01*
X132919182Y-91535000D02*
X132919182Y-90540000D01*
X132919182Y-88460000D02*
X132919182Y-87465000D01*
X132879182Y-91503000D02*
X132879182Y-90540000D01*
X132879182Y-88460000D02*
X132879182Y-87497000D01*
X132839182Y-91470000D02*
X132839182Y-90540000D01*
X132839182Y-88460000D02*
X132839182Y-87530000D01*
X132799182Y-91436000D02*
X132799182Y-90540000D01*
X132799182Y-88460000D02*
X132799182Y-87564000D01*
X132759182Y-91401000D02*
X132759182Y-90540000D01*
X132759182Y-88460000D02*
X132759182Y-87599000D01*
X132719182Y-91364000D02*
X132719182Y-90540000D01*
X132719182Y-88460000D02*
X132719182Y-87636000D01*
X132679182Y-91325000D02*
X132679182Y-90540000D01*
X132679182Y-88460000D02*
X132679182Y-87675000D01*
X132639182Y-91285000D02*
X132639182Y-90540000D01*
X132639182Y-88460000D02*
X132639182Y-87715000D01*
X132599182Y-91243000D02*
X132599182Y-90540000D01*
X132599182Y-88460000D02*
X132599182Y-87757000D01*
X132559182Y-91199000D02*
X132559182Y-90540000D01*
X132559182Y-88460000D02*
X132559182Y-87801000D01*
X132519182Y-91152000D02*
X132519182Y-90540000D01*
X132519182Y-88460000D02*
X132519182Y-87848000D01*
X132479182Y-91104000D02*
X132479182Y-90540000D01*
X132479182Y-88460000D02*
X132479182Y-87896000D01*
X132439182Y-91053000D02*
X132439182Y-90540000D01*
X132439182Y-88460000D02*
X132439182Y-87947000D01*
X132399182Y-90999000D02*
X132399182Y-90540000D01*
X132399182Y-88460000D02*
X132399182Y-88001000D01*
X132359182Y-90943000D02*
X132359182Y-90540000D01*
X132359182Y-88460000D02*
X132359182Y-88057000D01*
X132319182Y-90883000D02*
X132319182Y-90540000D01*
X132319182Y-88460000D02*
X132319182Y-88117000D01*
X132279182Y-90819000D02*
X132279182Y-90540000D01*
X132279182Y-88460000D02*
X132279182Y-88181000D01*
X132239182Y-90751000D02*
X132239182Y-90540000D01*
X132239182Y-88460000D02*
X132239182Y-88249000D01*
X132199182Y-90677000D02*
X132199182Y-88323000D01*
X132159182Y-90598000D02*
X132159182Y-88402000D01*
X132119182Y-90511000D02*
X132119182Y-88489000D01*
X132079182Y-90414000D02*
X132079182Y-88586000D01*
X132039182Y-90305000D02*
X132039182Y-88695000D01*
X131999182Y-90177000D02*
X131999182Y-88823000D01*
X131959182Y-90017000D02*
X131959182Y-88983000D01*
X131919182Y-89783000D02*
X131919182Y-89217000D01*
X137139182Y-89500000D02*
G75*
G02*
X131899182Y-89500000I-2620000J0D01*
G01*
X131899182Y-89500000D02*
G75*
G02*
X137139182Y-89500000I2620000J0D01*
G01*
%TD*%
M02*
