M48
; DRILL file {KiCad 9.0.1} date 2025-06-18T08:07:24+0100
; FORMAT={-:-/ absolute / metric / decimal}
; #@! TF.CreationDate,2025-06-18T08:07:24+01:00
; #@! TF.GenerationSoftware,Kicad,Pcbnew,9.0.1
; #@! TF.FileFunction,Plated,1,2,PTH
FMAT,2
METRIC
; #@! TA.AperFunction,Plated,PTH,ViaDrill
T1C0.300
; #@! TA.AperFunction,Plated,PTH,ComponentDrill
T2C0.800
; #@! TA.AperFunction,Plated,PTH,ComponentDrill
T3C1.000
%
G90
G05
T1
X143.269Y-72.5
X165.769Y-60.5
X182.269Y-60.5
T2
X119.269Y-55.0
X121.769Y-71.0
X124.269Y-71.0
X126.889Y-55.0
X132.769Y-67.5
X133.269Y-89.5
X133.769Y-76.0
X133.769Y-80.88
X135.269Y-67.5
X135.769Y-89.5
X140.399Y-57.6
X140.399Y-60.14
X140.399Y-62.68
X140.399Y-65.22
X140.399Y-67.76
X140.399Y-70.3
X140.399Y-72.84
X140.399Y-75.38
X140.399Y-77.92
X140.399Y-80.46
X140.399Y-83.0
X140.399Y-85.54
X140.399Y-88.08
X140.399Y-90.62
X148.019Y-57.6
X148.019Y-60.14
X148.019Y-62.68
X148.019Y-65.22
X148.019Y-67.76
X148.019Y-70.3
X148.019Y-72.84
X148.019Y-75.38
X148.019Y-77.92
X148.019Y-80.46
X148.019Y-83.0
X148.019Y-85.54
X148.019Y-88.08
X148.019Y-90.62
X153.069Y-55.0
X153.069Y-63.0
X156.769Y-78.0
X159.269Y-78.0
X165.769Y-55.0
X165.769Y-63.0
T3
X105.769Y-59.96
X105.769Y-62.5
X142.069Y-107.5
X144.609Y-107.5
X147.149Y-107.5
X149.689Y-107.5
X152.229Y-107.5
X154.769Y-107.5
X177.189Y-109.0
X179.729Y-109.0
X182.269Y-109.0
X184.809Y-109.0
X187.769Y-50.92
X187.769Y-53.46
X187.769Y-56.0
X187.769Y-58.54
M30
