%TF.GenerationSoftware,KiCad,Pcbnew,9.0.1*%
%TF.CreationDate,2025-06-18T08:05:51+01:00*%
%TF.ProjectId,station_pcb,73746174-696f-46e5-9f70-63622e6b6963,rev?*%
%TF.SameCoordinates,Original*%
%TF.FileFunction,Copper,L2,Bot*%
%TF.FilePolarity,Positive*%
%FSLAX46Y46*%
G04 Gerber Fmt 4.6, Leading zero omitted, Abs format (unit mm)*
G04 Created by KiCad (PCBNEW 9.0.1) date 2025-06-18 08:05:51*
%MOMM*%
%LPD*%
G01*
G04 APERTURE LIST*
G04 Aperture macros list*
%AMRoundRect*
0 Rectangle with rounded corners*
0 $1 Rounding radius*
0 $2 $3 $4 $5 $6 $7 $8 $9 X,Y pos of 4 corners*
0 Add a 4 corners polygon primitive as box body*
4,1,4,$2,$3,$4,$5,$6,$7,$8,$9,$2,$3,0*
0 Add four circle primitives for the rounded corners*
1,1,$1+$1,$2,$3*
1,1,$1+$1,$4,$5*
1,1,$1+$1,$6,$7*
1,1,$1+$1,$8,$9*
0 Add four rect primitives between the rounded corners*
20,1,$1+$1,$2,$3,$4,$5,0*
20,1,$1+$1,$4,$5,$6,$7,0*
20,1,$1+$1,$6,$7,$8,$9,0*
20,1,$1+$1,$8,$9,$2,$3,0*%
G04 Aperture macros list end*
%TA.AperFunction,ComponentPad*%
%ADD10O,1.600000X1.600000*%
%TD*%
%TA.AperFunction,ComponentPad*%
%ADD11C,1.600000*%
%TD*%
%TA.AperFunction,ComponentPad*%
%ADD12C,1.700000*%
%TD*%
%TA.AperFunction,ComponentPad*%
%ADD13R,1.700000X1.700000*%
%TD*%
%TA.AperFunction,ComponentPad*%
%ADD14R,1.600000X1.600000*%
%TD*%
%TA.AperFunction,ComponentPad*%
%ADD15C,1.500000*%
%TD*%
%TA.AperFunction,ComponentPad*%
%ADD16RoundRect,0.250000X-0.550000X-0.550000X0.550000X-0.550000X0.550000X0.550000X-0.550000X0.550000X0*%
%TD*%
%TA.AperFunction,ViaPad*%
%ADD17C,0.600000*%
%TD*%
%TA.AperFunction,Conductor*%
%ADD18C,0.500000*%
%TD*%
%TA.AperFunction,Conductor*%
%ADD19C,0.250000*%
%TD*%
G04 APERTURE END LIST*
D10*
%TO.P,R2,2*%
%TO.N,/SDA*%
X165769182Y-55000000D03*
D11*
%TO.P,R2,1*%
%TO.N,/5V*%
X153069182Y-55000000D03*
%TD*%
D12*
%TO.P,J4,6,Pin_6*%
%TO.N,/GND*%
X142069182Y-107500000D03*
%TO.P,J4,5,Pin_5*%
%TO.N,/5 RST*%
X144609182Y-107500000D03*
%TO.P,J4,4,Pin_4*%
%TO.N,/4 MOSI*%
X147149182Y-107500000D03*
%TO.P,J4,3,Pin_3*%
%TO.N,/3 SCK*%
X149689182Y-107500000D03*
%TO.P,J4,2,Pin_2*%
%TO.N,/5V*%
X152229182Y-107500000D03*
D13*
%TO.P,J4,1,Pin_1*%
%TO.N,/1 MISO*%
X154769182Y-107500000D03*
%TD*%
D11*
%TO.P,C1,2*%
%TO.N,Net-(U1-XTAL1{slash}PB6)*%
X135269182Y-67500000D03*
D14*
%TO.P,C1,1*%
%TO.N,/GND*%
X132769182Y-67500000D03*
%TD*%
D15*
%TO.P,Y1,2,2*%
%TO.N,Net-(U1-XTAL1{slash}PB6)*%
X133769182Y-76000000D03*
%TO.P,Y1,1,1*%
%TO.N,Net-(U1-XTAL2{slash}PB7)*%
X133769182Y-80880000D03*
%TD*%
D11*
%TO.P,C3,2*%
%TO.N,/GND*%
X159269182Y-78000000D03*
D14*
%TO.P,C3,1*%
%TO.N,Net-(U1-AVCC)*%
X156769182Y-78000000D03*
%TD*%
D16*
%TO.P,U1,1,~{RESET}/PC6*%
%TO.N,/5 RST*%
X140399182Y-57600000D03*
D11*
%TO.P,U1,2,PD0*%
%TO.N,unconnected-(U1-PD0-Pad2)*%
X140399182Y-60140000D03*
%TO.P,U1,3,PD1*%
%TO.N,unconnected-(U1-PD1-Pad3)*%
X140399182Y-62680000D03*
%TO.P,U1,4,PD2*%
%TO.N,unconnected-(U1-PD2-Pad4)*%
X140399182Y-65220000D03*
%TO.P,U1,5,PD3*%
%TO.N,unconnected-(U1-PD3-Pad5)*%
X140399182Y-67760000D03*
%TO.P,U1,6,PD4*%
%TO.N,unconnected-(U1-PD4-Pad6)*%
X140399182Y-70300000D03*
%TO.P,U1,7,VCC*%
%TO.N,/5V*%
X140399182Y-72840000D03*
%TO.P,U1,8,GND*%
%TO.N,/GND*%
X140399182Y-75380000D03*
%TO.P,U1,9,XTAL1/PB6*%
%TO.N,Net-(U1-XTAL1{slash}PB6)*%
X140399182Y-77920000D03*
%TO.P,U1,10,XTAL2/PB7*%
%TO.N,Net-(U1-XTAL2{slash}PB7)*%
X140399182Y-80460000D03*
%TO.P,U1,11,PD5*%
%TO.N,unconnected-(U1-PD5-Pad11)*%
X140399182Y-83000000D03*
%TO.P,U1,12,PD6*%
%TO.N,unconnected-(U1-PD6-Pad12)*%
X140399182Y-85540000D03*
%TO.P,U1,13,PD7*%
%TO.N,unconnected-(U1-PD7-Pad13)*%
X140399182Y-88080000D03*
%TO.P,U1,14,PB0*%
%TO.N,unconnected-(U1-PB0-Pad14)*%
X140399182Y-90620000D03*
%TO.P,U1,15,PB1*%
%TO.N,unconnected-(U1-PB1-Pad15)*%
X148019182Y-90620000D03*
%TO.P,U1,16,PB2*%
%TO.N,unconnected-(U1-PB2-Pad16)*%
X148019182Y-88080000D03*
%TO.P,U1,17,PB3*%
%TO.N,/4 MOSI*%
X148019182Y-85540000D03*
%TO.P,U1,18,PB4*%
%TO.N,/1 MISO*%
X148019182Y-83000000D03*
%TO.P,U1,19,PB5*%
%TO.N,/3 SCK*%
X148019182Y-80460000D03*
%TO.P,U1,20,AVCC*%
%TO.N,Net-(U1-AVCC)*%
X148019182Y-77920000D03*
%TO.P,U1,21,AREF*%
%TO.N,unconnected-(U1-AREF-Pad21)*%
X148019182Y-75380000D03*
%TO.P,U1,22,GND*%
%TO.N,/GND*%
X148019182Y-72840000D03*
%TO.P,U1,23,PC0*%
%TO.N,unconnected-(U1-PC0-Pad23)*%
X148019182Y-70300000D03*
%TO.P,U1,24,PC1*%
%TO.N,unconnected-(U1-PC1-Pad24)*%
X148019182Y-67760000D03*
%TO.P,U1,25,PC2*%
%TO.N,unconnected-(U1-PC2-Pad25)*%
X148019182Y-65220000D03*
%TO.P,U1,26,PC3*%
%TO.N,unconnected-(U1-PC3-Pad26)*%
X148019182Y-62680000D03*
%TO.P,U1,27,PC4*%
%TO.N,/SDA*%
X148019182Y-60140000D03*
%TO.P,U1,28,PC5*%
%TO.N,/SCL*%
X148019182Y-57600000D03*
%TD*%
%TO.P,R3,1*%
%TO.N,/SCL*%
X153069182Y-63000000D03*
D10*
%TO.P,R3,2*%
%TO.N,/5V*%
X165769182Y-63000000D03*
%TD*%
D11*
%TO.P,R1,1*%
%TO.N,/5V*%
X119269182Y-55000000D03*
D10*
%TO.P,R1,2*%
%TO.N,/5 RST*%
X126889182Y-55000000D03*
%TD*%
D13*
%TO.P,J3,1,Pin_1*%
%TO.N,/GND*%
X177189182Y-109000000D03*
D12*
%TO.P,J3,2,Pin_2*%
%TO.N,/5V*%
X179729182Y-109000000D03*
%TO.P,J3,3,Pin_3*%
%TO.N,/SDA*%
X182269182Y-109000000D03*
%TO.P,J3,4,Pin_4*%
%TO.N,/SCL*%
X184809182Y-109000000D03*
%TD*%
D13*
%TO.P,J2,1,Pin_1*%
%TO.N,/SDA*%
X187769182Y-50920000D03*
D12*
%TO.P,J2,2,Pin_2*%
%TO.N,/SCL*%
X187769182Y-53460000D03*
%TO.P,J2,3,Pin_3*%
%TO.N,/5V*%
X187769182Y-56000000D03*
%TO.P,J2,4,Pin_4*%
%TO.N,/GND*%
X187769182Y-58540000D03*
%TD*%
D13*
%TO.P,J1,1,Pin_1*%
%TO.N,/5V*%
X105769182Y-59960000D03*
D12*
%TO.P,J1,2,Pin_2*%
%TO.N,/GND*%
X105769182Y-62500000D03*
%TD*%
D14*
%TO.P,C4,1*%
%TO.N,/5V*%
X121769182Y-71000000D03*
D11*
%TO.P,C4,2*%
%TO.N,/GND*%
X124269182Y-71000000D03*
%TD*%
D14*
%TO.P,C2,1*%
%TO.N,/GND*%
X135769182Y-89500000D03*
D11*
%TO.P,C2,2*%
%TO.N,Net-(U1-XTAL2{slash}PB7)*%
X133269182Y-89500000D03*
%TD*%
D17*
%TO.N,/GND*%
X143269182Y-72500000D03*
%TO.N,/SCL*%
X182269182Y-60500000D03*
%TO.N,/5V*%
X165769182Y-60500000D03*
%TD*%
D18*
%TO.N,/GND*%
X143269182Y-72500000D02*
X143269182Y-66500000D01*
D19*
%TO.N,/4 MOSI*%
X147149182Y-107500000D02*
X149769182Y-104880000D01*
X149769182Y-104880000D02*
X149769182Y-95500000D01*
X149769182Y-95500000D02*
X153269182Y-92000000D01*
X153269182Y-92000000D02*
X153269182Y-89000000D01*
X153269182Y-89000000D02*
X149769182Y-85500000D01*
X149769182Y-85500000D02*
X149729182Y-85540000D01*
X149729182Y-85540000D02*
X148019182Y-85540000D01*
%TO.N,/SCL*%
X174269182Y-68500000D02*
X182269182Y-60500000D01*
X167769182Y-68500000D02*
X174269182Y-68500000D01*
X153069182Y-65800000D02*
X155769182Y-68500000D01*
X153069182Y-63000000D02*
X153069182Y-65800000D01*
X155769182Y-68500000D02*
X167769182Y-68500000D01*
D18*
%TO.N,/5V*%
X176269182Y-57000000D02*
X186769182Y-57000000D01*
X186769182Y-57000000D02*
X187769182Y-56000000D01*
X172769182Y-60500000D02*
X176269182Y-57000000D01*
X165769182Y-60500000D02*
X172769182Y-60500000D01*
D19*
%TO.N,/SDA*%
X164269182Y-59000000D02*
X165769182Y-57500000D01*
X155269182Y-59000000D02*
X164269182Y-59000000D01*
X148019182Y-60140000D02*
X154129182Y-60140000D01*
X154129182Y-60140000D02*
X155269182Y-59000000D01*
X165769182Y-57500000D02*
X165769182Y-55000000D01*
%TO.N,/5 RST*%
X144609182Y-107500000D02*
X144609182Y-61810000D01*
X144609182Y-61810000D02*
X140399182Y-57600000D01*
%TO.N,/1 MISO*%
X154769182Y-107500000D02*
X154769182Y-86500000D01*
X154769182Y-86500000D02*
X151269182Y-83000000D01*
X151269182Y-83000000D02*
X148019182Y-83000000D01*
D18*
%TO.N,/GND*%
X135769182Y-89500000D02*
X135769182Y-105620000D01*
X135769182Y-105620000D02*
X137649182Y-107500000D01*
X137649182Y-107500000D02*
X142069182Y-107500000D01*
X140399182Y-75380000D02*
X143269182Y-72510000D01*
X143269182Y-72510000D02*
X143269182Y-72500000D01*
X130269182Y-64000000D02*
X132769182Y-66500000D01*
X143269182Y-66500000D02*
X138500000Y-66500000D01*
X138500000Y-66500000D02*
X136269182Y-64269182D01*
X136269182Y-64269182D02*
X136269182Y-62500000D01*
X132769182Y-66500000D02*
X132769182Y-67500000D01*
X136269182Y-62500000D02*
X131769182Y-62500000D01*
X131769182Y-62500000D02*
X130269182Y-64000000D01*
X135769182Y-89500000D02*
X138269182Y-87000000D01*
X138269182Y-87000000D02*
X138269182Y-77510000D01*
X138269182Y-77510000D02*
X140399182Y-75380000D01*
D19*
%TO.N,Net-(U1-XTAL2{slash}PB7)*%
X133769182Y-80880000D02*
X133769182Y-89000000D01*
X133769182Y-89000000D02*
X133269182Y-89500000D01*
%TO.N,Net-(U1-XTAL1{slash}PB6)*%
X135269182Y-67500000D02*
X135269182Y-74500000D01*
X135269182Y-74500000D02*
X133769182Y-76000000D01*
D18*
%TO.N,/GND*%
X124269182Y-71000000D02*
X124769182Y-71000000D01*
X124769182Y-71000000D02*
X128269182Y-67500000D01*
X128269182Y-67500000D02*
X132769182Y-67500000D01*
X105769182Y-62500000D02*
X115769182Y-62500000D01*
X115769182Y-62500000D02*
X124269182Y-71000000D01*
X159269182Y-78000000D02*
X168309182Y-78000000D01*
X168309182Y-78000000D02*
X187769182Y-58540000D01*
X159269182Y-78000000D02*
X159269182Y-91080000D01*
X159269182Y-91080000D02*
X177189182Y-109000000D01*
X148019182Y-72840000D02*
X154109182Y-72840000D01*
X154109182Y-72840000D02*
X159269182Y-78000000D01*
%TD*%
%TA.AperFunction,Conductor*%
%TO.N,/GND*%
G36*
X190971569Y-46906086D02*
G01*
X191017392Y-46958831D01*
X191028663Y-47010029D01*
X191268681Y-111864624D01*
X191268682Y-111865083D01*
X191268682Y-111875500D01*
X191248997Y-111942539D01*
X191196193Y-111988294D01*
X191144682Y-111999500D01*
X155216716Y-111999500D01*
X155215546Y-111999494D01*
X102269233Y-111500000D01*
X102269182Y-111500000D01*
X101396099Y-111500000D01*
X101329060Y-111480315D01*
X101283305Y-111427511D01*
X101272133Y-111373117D01*
X101319967Y-109316239D01*
X101333110Y-108751095D01*
X101337435Y-108565128D01*
X101364857Y-107385998D01*
X101387110Y-106429104D01*
X101648165Y-95203719D01*
X101783190Y-89397648D01*
X131968682Y-89397648D01*
X131968682Y-89602351D01*
X132000704Y-89804534D01*
X132063963Y-89999223D01*
X132156897Y-90181613D01*
X132277210Y-90347213D01*
X132421968Y-90491971D01*
X132576931Y-90604556D01*
X132587572Y-90612287D01*
X132675699Y-90657190D01*
X132769958Y-90705218D01*
X132769960Y-90705218D01*
X132769963Y-90705220D01*
X132822687Y-90722351D01*
X132964647Y-90768477D01*
X133065739Y-90784488D01*
X133166830Y-90800500D01*
X133166831Y-90800500D01*
X133371533Y-90800500D01*
X133371534Y-90800500D01*
X133573716Y-90768477D01*
X133768401Y-90705220D01*
X133950792Y-90612287D01*
X134047416Y-90542086D01*
X134116395Y-90491971D01*
X134116397Y-90491968D01*
X134116401Y-90491966D01*
X134261148Y-90347219D01*
X134261148Y-90347218D01*
X134264593Y-90343774D01*
X134265925Y-90345106D01*
X134317692Y-90311288D01*
X134387560Y-90310766D01*
X134446619Y-90348100D01*
X134474191Y-90401484D01*
X134475582Y-90407372D01*
X134525827Y-90542086D01*
X134525831Y-90542093D01*
X134611991Y-90657187D01*
X134611994Y-90657190D01*
X134727088Y-90743350D01*
X134727095Y-90743354D01*
X134861802Y-90793596D01*
X134861809Y-90793598D01*
X134921337Y-90799999D01*
X134921354Y-90800000D01*
X135519182Y-90800000D01*
X135519182Y-89815686D01*
X135523576Y-89820080D01*
X135614788Y-89872741D01*
X135716521Y-89900000D01*
X135821843Y-89900000D01*
X135923576Y-89872741D01*
X136014788Y-89820080D01*
X136019182Y-89815686D01*
X136019182Y-90800000D01*
X136617010Y-90800000D01*
X136617026Y-90799999D01*
X136676554Y-90793598D01*
X136676561Y-90793596D01*
X136811268Y-90743354D01*
X136811275Y-90743350D01*
X136926369Y-90657190D01*
X136926372Y-90657187D01*
X137012532Y-90542093D01*
X137012536Y-90542086D01*
X137062778Y-90407379D01*
X137062780Y-90407372D01*
X137069181Y-90347844D01*
X137069182Y-90347827D01*
X137069182Y-89750000D01*
X136084868Y-89750000D01*
X136089262Y-89745606D01*
X136141923Y-89654394D01*
X136169182Y-89552661D01*
X136169182Y-89447339D01*
X136141923Y-89345606D01*
X136089262Y-89254394D01*
X136084868Y-89250000D01*
X137069182Y-89250000D01*
X137069182Y-88652172D01*
X137069181Y-88652155D01*
X137062780Y-88592627D01*
X137062778Y-88592620D01*
X137012536Y-88457913D01*
X137012532Y-88457906D01*
X136926372Y-88342812D01*
X136926369Y-88342809D01*
X136811275Y-88256649D01*
X136811268Y-88256645D01*
X136676561Y-88206403D01*
X136676554Y-88206401D01*
X136617026Y-88200000D01*
X136019182Y-88200000D01*
X136019182Y-89184314D01*
X136014788Y-89179920D01*
X135923576Y-89127259D01*
X135821843Y-89100000D01*
X135716521Y-89100000D01*
X135614788Y-89127259D01*
X135523576Y-89179920D01*
X135519182Y-89184314D01*
X135519182Y-88200000D01*
X134921337Y-88200000D01*
X134861809Y-88206401D01*
X134861802Y-88206403D01*
X134727095Y-88256645D01*
X134727088Y-88256649D01*
X134611994Y-88342809D01*
X134606363Y-88348441D01*
X134545040Y-88381926D01*
X134475348Y-88376942D01*
X134419415Y-88335070D01*
X134394998Y-88269606D01*
X134394682Y-88260760D01*
X134394682Y-82034432D01*
X134414367Y-81967393D01*
X134445793Y-81934116D01*
X134583828Y-81833828D01*
X134723010Y-81694646D01*
X134838706Y-81535405D01*
X134928066Y-81360025D01*
X134988891Y-81172826D01*
X134993835Y-81141610D01*
X135019682Y-80978422D01*
X135019682Y-80781577D01*
X134988891Y-80587173D01*
X134928064Y-80399970D01*
X134838705Y-80224594D01*
X134723010Y-80065354D01*
X134583828Y-79926172D01*
X134424587Y-79810476D01*
X134249211Y-79721117D01*
X134062008Y-79660290D01*
X133867604Y-79629500D01*
X133867599Y-79629500D01*
X133670765Y-79629500D01*
X133670760Y-79629500D01*
X133476355Y-79660290D01*
X133289152Y-79721117D01*
X133113776Y-79810476D01*
X133022923Y-79876485D01*
X132954536Y-79926172D01*
X132954534Y-79926174D01*
X132954533Y-79926174D01*
X132815356Y-80065351D01*
X132815356Y-80065352D01*
X132815354Y-80065354D01*
X132765667Y-80133741D01*
X132699658Y-80224594D01*
X132610299Y-80399970D01*
X132549472Y-80587173D01*
X132518682Y-80781577D01*
X132518682Y-80978422D01*
X132549472Y-81172826D01*
X132610299Y-81360029D01*
X132699658Y-81535405D01*
X132815354Y-81694646D01*
X132954536Y-81833828D01*
X133092569Y-81934115D01*
X133135233Y-81989444D01*
X133143682Y-82034432D01*
X133143682Y-88097260D01*
X133123997Y-88164299D01*
X133071193Y-88210054D01*
X133039081Y-88219733D01*
X132964650Y-88231522D01*
X132769960Y-88294781D01*
X132587568Y-88387715D01*
X132421968Y-88508028D01*
X132277210Y-88652786D01*
X132156897Y-88818386D01*
X132063963Y-89000776D01*
X132000704Y-89195465D01*
X131968682Y-89397648D01*
X101783190Y-89397648D01*
X102230760Y-70152135D01*
X120468682Y-70152135D01*
X120468682Y-71847870D01*
X120468683Y-71847876D01*
X120475090Y-71907483D01*
X120525384Y-72042328D01*
X120525388Y-72042335D01*
X120611634Y-72157544D01*
X120611637Y-72157547D01*
X120726846Y-72243793D01*
X120726853Y-72243797D01*
X120861699Y-72294091D01*
X120861698Y-72294091D01*
X120868626Y-72294835D01*
X120921309Y-72300500D01*
X122617054Y-72300499D01*
X122676665Y-72294091D01*
X122811513Y-72243796D01*
X122926728Y-72157546D01*
X123012978Y-72042331D01*
X123063273Y-71907483D01*
X123069682Y-71847873D01*
X123069681Y-71835612D01*
X123073257Y-71821052D01*
X123083524Y-71803380D01*
X123089249Y-71783760D01*
X123100721Y-71773783D01*
X123108359Y-71760640D01*
X123126549Y-71751325D01*
X123141974Y-71737913D01*
X123158462Y-71734984D01*
X123170549Y-71728795D01*
X123185200Y-71730234D01*
X123185436Y-71730192D01*
X123869182Y-71046446D01*
X123869182Y-71052661D01*
X123896441Y-71154394D01*
X123949102Y-71245606D01*
X124023576Y-71320080D01*
X124114788Y-71372741D01*
X124216521Y-71400000D01*
X124222735Y-71400000D01*
X123543258Y-72079474D01*
X123587832Y-72111859D01*
X123770150Y-72204755D01*
X123964764Y-72267990D01*
X124166865Y-72300000D01*
X124371499Y-72300000D01*
X124573599Y-72267990D01*
X124768213Y-72204755D01*
X124950531Y-72111859D01*
X124995103Y-72079474D01*
X124315629Y-71400000D01*
X124321843Y-71400000D01*
X124423576Y-71372741D01*
X124514788Y-71320080D01*
X124589262Y-71245606D01*
X124641923Y-71154394D01*
X124669182Y-71052661D01*
X124669182Y-71046448D01*
X125348656Y-71725922D01*
X125348656Y-71725921D01*
X125381041Y-71681349D01*
X125473937Y-71499031D01*
X125537172Y-71304417D01*
X125569182Y-71102317D01*
X125569182Y-70897682D01*
X125537172Y-70695582D01*
X125473937Y-70500968D01*
X125381041Y-70318650D01*
X125348656Y-70274077D01*
X125348656Y-70274076D01*
X124669182Y-70953551D01*
X124669182Y-70947339D01*
X124641923Y-70845606D01*
X124589262Y-70754394D01*
X124514788Y-70679920D01*
X124423576Y-70627259D01*
X124321843Y-70600000D01*
X124315628Y-70600000D01*
X124995104Y-69920524D01*
X124995103Y-69920523D01*
X124950541Y-69888147D01*
X124950532Y-69888141D01*
X124768213Y-69795244D01*
X124573599Y-69732009D01*
X124371499Y-69700000D01*
X124166865Y-69700000D01*
X123964764Y-69732009D01*
X123770150Y-69795244D01*
X123587826Y-69888143D01*
X123543259Y-69920523D01*
X123543259Y-69920524D01*
X124222736Y-70600000D01*
X124216521Y-70600000D01*
X124114788Y-70627259D01*
X124023576Y-70679920D01*
X123949102Y-70754394D01*
X123896441Y-70845606D01*
X123869182Y-70947339D01*
X123869182Y-70953553D01*
X123184695Y-70269066D01*
X123135031Y-70258633D01*
X123085275Y-70209581D01*
X123073258Y-70178947D01*
X123069681Y-70164378D01*
X123069681Y-70152128D01*
X123063273Y-70092517D01*
X123030394Y-70004365D01*
X123030393Y-70004359D01*
X123012979Y-69957671D01*
X123012975Y-69957664D01*
X122926729Y-69842455D01*
X122926726Y-69842452D01*
X122811517Y-69756206D01*
X122811510Y-69756202D01*
X122676664Y-69705908D01*
X122676665Y-69705908D01*
X122617065Y-69699501D01*
X122617063Y-69699500D01*
X122617055Y-69699500D01*
X122617046Y-69699500D01*
X120921311Y-69699500D01*
X120921305Y-69699501D01*
X120861698Y-69705908D01*
X120726853Y-69756202D01*
X120726846Y-69756206D01*
X120611637Y-69842452D01*
X120611634Y-69842455D01*
X120525388Y-69957664D01*
X120525384Y-69957671D01*
X120475090Y-70092517D01*
X120468683Y-70152116D01*
X120468682Y-70152135D01*
X102230760Y-70152135D01*
X102312155Y-66652155D01*
X131469182Y-66652155D01*
X131469182Y-67250000D01*
X132453496Y-67250000D01*
X132449102Y-67254394D01*
X132396441Y-67345606D01*
X132369182Y-67447339D01*
X132369182Y-67552661D01*
X132396441Y-67654394D01*
X132449102Y-67745606D01*
X132453496Y-67750000D01*
X131469182Y-67750000D01*
X131469182Y-68347844D01*
X131475583Y-68407372D01*
X131475585Y-68407379D01*
X131525827Y-68542086D01*
X131525831Y-68542093D01*
X131611991Y-68657187D01*
X131611994Y-68657190D01*
X131727088Y-68743350D01*
X131727095Y-68743354D01*
X131861802Y-68793596D01*
X131861809Y-68793598D01*
X131921337Y-68799999D01*
X131921354Y-68800000D01*
X132519182Y-68800000D01*
X132519182Y-67815686D01*
X132523576Y-67820080D01*
X132614788Y-67872741D01*
X132716521Y-67900000D01*
X132821843Y-67900000D01*
X132923576Y-67872741D01*
X133014788Y-67820080D01*
X133019182Y-67815686D01*
X133019182Y-68800000D01*
X133617010Y-68800000D01*
X133617026Y-68799999D01*
X133676554Y-68793598D01*
X133676561Y-68793596D01*
X133811268Y-68743354D01*
X133811275Y-68743350D01*
X133926369Y-68657190D01*
X133926372Y-68657187D01*
X134012532Y-68542093D01*
X134012536Y-68542086D01*
X134062780Y-68407375D01*
X134064170Y-68401493D01*
X134098740Y-68340775D01*
X134160649Y-68308385D01*
X134230241Y-68314608D01*
X134272681Y-68344863D01*
X134273771Y-68343774D01*
X134277216Y-68347219D01*
X134421963Y-68491966D01*
X134587572Y-68612287D01*
X134587576Y-68612289D01*
X134591514Y-68615150D01*
X134590293Y-68616829D01*
X134631337Y-68662177D01*
X134643682Y-68716114D01*
X134643682Y-74189546D01*
X134623997Y-74256585D01*
X134607363Y-74277227D01*
X134143192Y-74741397D01*
X134081869Y-74774882D01*
X134036113Y-74776189D01*
X133867604Y-74749500D01*
X133867599Y-74749500D01*
X133670765Y-74749500D01*
X133670760Y-74749500D01*
X133476355Y-74780290D01*
X133289152Y-74841117D01*
X133113776Y-74930476D01*
X133045613Y-74980000D01*
X132954536Y-75046172D01*
X132954534Y-75046174D01*
X132954533Y-75046174D01*
X132815356Y-75185351D01*
X132815356Y-75185352D01*
X132815354Y-75185354D01*
X132786109Y-75225606D01*
X132699658Y-75344594D01*
X132610299Y-75519970D01*
X132549472Y-75707173D01*
X132518682Y-75901577D01*
X132518682Y-76098422D01*
X132549472Y-76292826D01*
X132610299Y-76480029D01*
X132694054Y-76644407D01*
X132699658Y-76655405D01*
X132815354Y-76814646D01*
X132954536Y-76953828D01*
X133113777Y-77069524D01*
X133158904Y-77092517D01*
X133289152Y-77158882D01*
X133289154Y-77158882D01*
X133289157Y-77158884D01*
X133389499Y-77191487D01*
X133476355Y-77219709D01*
X133670760Y-77250500D01*
X133670765Y-77250500D01*
X133867604Y-77250500D01*
X134062008Y-77219709D01*
X134249207Y-77158884D01*
X134424587Y-77069524D01*
X134583828Y-76953828D01*
X134723010Y-76814646D01*
X134838706Y-76655405D01*
X134928066Y-76480025D01*
X134988891Y-76292826D01*
X134999283Y-76227213D01*
X135019682Y-76098422D01*
X135019682Y-75901577D01*
X134992992Y-75733066D01*
X135001946Y-75663773D01*
X135027781Y-75625990D01*
X135755039Y-74898734D01*
X135793539Y-74841116D01*
X135823493Y-74796286D01*
X135870645Y-74682452D01*
X135894682Y-74561606D01*
X135894682Y-68716114D01*
X135914367Y-68649075D01*
X135947757Y-68616398D01*
X135946850Y-68615150D01*
X135950787Y-68612289D01*
X135950792Y-68612287D01*
X136116401Y-68491966D01*
X136261148Y-68347219D01*
X136261150Y-68347215D01*
X136261153Y-68347213D01*
X136325083Y-68259219D01*
X136381469Y-68181610D01*
X136474402Y-67999219D01*
X136537659Y-67804534D01*
X136569682Y-67602352D01*
X136569682Y-67397648D01*
X136548003Y-67260776D01*
X136537659Y-67195465D01*
X136474400Y-67000776D01*
X136429564Y-66912781D01*
X136381469Y-66818390D01*
X136344884Y-66768034D01*
X136261153Y-66652786D01*
X136116395Y-66508028D01*
X135950795Y-66387715D01*
X135950794Y-66387714D01*
X135950792Y-66387713D01*
X135862669Y-66342812D01*
X135768405Y-66294781D01*
X135573716Y-66231522D01*
X135399177Y-66203878D01*
X135371534Y-66199500D01*
X135166830Y-66199500D01*
X135142511Y-66203351D01*
X134964647Y-66231522D01*
X134769958Y-66294781D01*
X134587568Y-66387715D01*
X134421968Y-66508028D01*
X134421964Y-66508032D01*
X134273771Y-66656226D01*
X134272452Y-66654907D01*
X134220583Y-66688737D01*
X134150715Y-66689208D01*
X134091684Y-66651830D01*
X134064170Y-66598508D01*
X134062779Y-66592621D01*
X134012536Y-66457913D01*
X134012532Y-66457906D01*
X133926372Y-66342812D01*
X133926369Y-66342809D01*
X133811275Y-66256649D01*
X133811268Y-66256645D01*
X133676561Y-66206403D01*
X133676554Y-66206401D01*
X133617026Y-66200000D01*
X133019182Y-66200000D01*
X133019182Y-67184314D01*
X133014788Y-67179920D01*
X132923576Y-67127259D01*
X132821843Y-67100000D01*
X132716521Y-67100000D01*
X132614788Y-67127259D01*
X132523576Y-67179920D01*
X132519182Y-67184314D01*
X132519182Y-66200000D01*
X131921337Y-66200000D01*
X131861809Y-66206401D01*
X131861802Y-66206403D01*
X131727095Y-66256645D01*
X131727088Y-66256649D01*
X131611994Y-66342809D01*
X131611991Y-66342812D01*
X131525831Y-66457906D01*
X131525827Y-66457913D01*
X131475585Y-66592620D01*
X131475583Y-66592627D01*
X131469182Y-66652155D01*
X102312155Y-66652155D01*
X102488667Y-59062135D01*
X104418682Y-59062135D01*
X104418682Y-60857870D01*
X104418683Y-60857876D01*
X104425090Y-60917483D01*
X104475384Y-61052328D01*
X104475388Y-61052335D01*
X104561634Y-61167544D01*
X104561637Y-61167547D01*
X104676846Y-61253793D01*
X104676853Y-61253797D01*
X104719586Y-61269735D01*
X104811699Y-61304091D01*
X104871309Y-61310500D01*
X104881867Y-61310499D01*
X104948905Y-61330179D01*
X104969554Y-61346818D01*
X105639773Y-62017037D01*
X105576189Y-62034075D01*
X105462175Y-62099901D01*
X105369083Y-62192993D01*
X105303257Y-62307007D01*
X105286219Y-62370591D01*
X104653910Y-61738282D01*
X104653909Y-61738282D01*
X104614562Y-61792439D01*
X104518086Y-61981782D01*
X104452424Y-62183869D01*
X104452424Y-62183872D01*
X104419182Y-62393753D01*
X104419182Y-62606246D01*
X104452424Y-62816127D01*
X104452424Y-62816130D01*
X104518086Y-63018217D01*
X104614557Y-63207550D01*
X104653910Y-63261716D01*
X105286219Y-62629408D01*
X105303257Y-62692993D01*
X105369083Y-62807007D01*
X105462175Y-62900099D01*
X105576189Y-62965925D01*
X105639772Y-62982962D01*
X105007464Y-63615269D01*
X105007464Y-63615270D01*
X105061631Y-63654624D01*
X105250964Y-63751095D01*
X105453052Y-63816757D01*
X105662936Y-63850000D01*
X105875428Y-63850000D01*
X106085309Y-63816757D01*
X106085312Y-63816757D01*
X106287399Y-63751095D01*
X106476736Y-63654622D01*
X106530898Y-63615270D01*
X106530899Y-63615270D01*
X105898590Y-62982962D01*
X105962175Y-62965925D01*
X106076189Y-62900099D01*
X106169281Y-62807007D01*
X106235107Y-62692993D01*
X106252144Y-62629408D01*
X106884452Y-63261717D01*
X106884452Y-63261716D01*
X106923804Y-63207554D01*
X107020277Y-63018217D01*
X107085939Y-62816130D01*
X107085939Y-62816127D01*
X107119182Y-62606246D01*
X107119182Y-62393753D01*
X107085939Y-62183872D01*
X107085939Y-62183869D01*
X107020277Y-61981782D01*
X106923806Y-61792449D01*
X106884452Y-61738282D01*
X106884451Y-61738282D01*
X106252144Y-62370590D01*
X106235107Y-62307007D01*
X106169281Y-62192993D01*
X106076189Y-62099901D01*
X105962175Y-62034075D01*
X105898591Y-62017037D01*
X106568809Y-61346818D01*
X106630132Y-61313333D01*
X106656489Y-61310499D01*
X106667054Y-61310499D01*
X106726665Y-61304091D01*
X106861513Y-61253796D01*
X106976728Y-61167546D01*
X107062978Y-61052331D01*
X107113273Y-60917483D01*
X107119682Y-60857873D01*
X107119681Y-59062128D01*
X107113273Y-59002517D01*
X107087162Y-58932511D01*
X107062979Y-58867671D01*
X107062975Y-58867664D01*
X106976729Y-58752455D01*
X106976726Y-58752452D01*
X106861517Y-58666206D01*
X106861510Y-58666202D01*
X106726664Y-58615908D01*
X106726665Y-58615908D01*
X106667065Y-58609501D01*
X106667063Y-58609500D01*
X106667055Y-58609500D01*
X106667046Y-58609500D01*
X104871311Y-58609500D01*
X104871305Y-58609501D01*
X104811698Y-58615908D01*
X104676853Y-58666202D01*
X104676846Y-58666206D01*
X104561637Y-58752452D01*
X104561634Y-58752455D01*
X104475388Y-58867664D01*
X104475384Y-58867671D01*
X104425090Y-59002517D01*
X104421061Y-59040000D01*
X104418683Y-59062123D01*
X104418682Y-59062135D01*
X102488667Y-59062135D01*
X102536624Y-56999983D01*
X139098682Y-56999983D01*
X139098682Y-58200001D01*
X139098683Y-58200018D01*
X139109182Y-58302796D01*
X139109183Y-58302799D01*
X139156532Y-58445687D01*
X139164368Y-58469334D01*
X139256470Y-58618656D01*
X139380526Y-58742712D01*
X139529848Y-58834814D01*
X139611752Y-58861954D01*
X139669197Y-58901727D01*
X139696020Y-58966243D01*
X139683705Y-59035018D01*
X139645633Y-59079978D01*
X139551969Y-59148028D01*
X139551964Y-59148032D01*
X139407210Y-59292786D01*
X139286897Y-59458386D01*
X139193963Y-59640776D01*
X139130704Y-59835465D01*
X139098682Y-60037648D01*
X139098682Y-60242351D01*
X139130704Y-60444534D01*
X139193963Y-60639223D01*
X139222033Y-60694312D01*
X139264588Y-60777831D01*
X139286897Y-60821613D01*
X139407210Y-60987213D01*
X139551968Y-61131971D01*
X139706931Y-61244556D01*
X139717572Y-61252287D01*
X139796118Y-61292308D01*
X139810262Y-61299515D01*
X139861058Y-61347490D01*
X139877853Y-61415311D01*
X139855316Y-61481446D01*
X139810262Y-61520485D01*
X139717568Y-61567715D01*
X139551968Y-61688028D01*
X139407210Y-61832786D01*
X139286897Y-61998386D01*
X139193963Y-62180776D01*
X139130704Y-62375465D01*
X139098682Y-62577648D01*
X139098682Y-62782351D01*
X139130704Y-62984534D01*
X139193963Y-63179223D01*
X139286897Y-63361613D01*
X139407210Y-63527213D01*
X139551968Y-63671971D01*
X139706931Y-63784556D01*
X139717572Y-63792287D01*
X139809022Y-63838883D01*
X139810262Y-63839515D01*
X139861058Y-63887490D01*
X139877853Y-63955311D01*
X139855316Y-64021446D01*
X139810262Y-64060485D01*
X139717568Y-64107715D01*
X139551968Y-64228028D01*
X139407210Y-64372786D01*
X139286897Y-64538386D01*
X139193963Y-64720776D01*
X139130704Y-64915465D01*
X139098682Y-65117648D01*
X139098682Y-65322351D01*
X139130704Y-65524534D01*
X139193963Y-65719223D01*
X139257873Y-65844653D01*
X139266514Y-65861611D01*
X139286897Y-65901613D01*
X139407210Y-66067213D01*
X139551968Y-66211971D01*
X139665949Y-66294781D01*
X139717572Y-66332287D01*
X139809022Y-66378883D01*
X139810262Y-66379515D01*
X139861058Y-66427490D01*
X139877853Y-66495311D01*
X139855316Y-66561446D01*
X139810262Y-66600485D01*
X139717568Y-66647715D01*
X139551968Y-66768028D01*
X139407210Y-66912786D01*
X139286897Y-67078386D01*
X139193963Y-67260776D01*
X139130704Y-67455465D01*
X139107440Y-67602351D01*
X139098682Y-67657648D01*
X139098682Y-67862352D01*
X139100606Y-67874500D01*
X139130704Y-68064534D01*
X139193963Y-68259223D01*
X139257873Y-68384653D01*
X139269453Y-68407379D01*
X139286897Y-68441613D01*
X139407210Y-68607213D01*
X139551968Y-68751971D01*
X139706931Y-68864556D01*
X139717572Y-68872287D01*
X139809022Y-68918883D01*
X139810262Y-68919515D01*
X139861058Y-68967490D01*
X139877853Y-69035311D01*
X139855316Y-69101446D01*
X139810262Y-69140485D01*
X139717568Y-69187715D01*
X139551968Y-69308028D01*
X139407210Y-69452786D01*
X139286897Y-69618386D01*
X139193963Y-69800776D01*
X139130704Y-69995465D01*
X139098682Y-70197648D01*
X139098682Y-70402351D01*
X139130704Y-70604534D01*
X139193963Y-70799223D01*
X139286897Y-70981613D01*
X139407210Y-71147213D01*
X139551968Y-71291971D01*
X139663141Y-71372741D01*
X139717572Y-71412287D01*
X139809022Y-71458883D01*
X139810262Y-71459515D01*
X139861058Y-71507490D01*
X139877853Y-71575311D01*
X139855316Y-71641446D01*
X139810262Y-71680485D01*
X139717568Y-71727715D01*
X139551968Y-71848028D01*
X139407210Y-71992786D01*
X139286897Y-72158386D01*
X139193963Y-72340776D01*
X139130704Y-72535465D01*
X139098682Y-72737648D01*
X139098682Y-72942351D01*
X139130704Y-73144534D01*
X139193963Y-73339223D01*
X139257873Y-73464653D01*
X139286767Y-73521359D01*
X139286897Y-73521613D01*
X139407210Y-73687213D01*
X139551968Y-73831971D01*
X139717567Y-73952284D01*
X139717569Y-73952285D01*
X139717572Y-73952287D01*
X139809711Y-73999234D01*
X139810812Y-73999795D01*
X139861608Y-74047770D01*
X139878403Y-74115591D01*
X139855866Y-74181725D01*
X139810812Y-74220765D01*
X139717826Y-74268143D01*
X139673259Y-74300523D01*
X139673259Y-74300524D01*
X140352736Y-74980000D01*
X140346521Y-74980000D01*
X140244788Y-75007259D01*
X140153576Y-75059920D01*
X140079102Y-75134394D01*
X140026441Y-75225606D01*
X139999182Y-75327339D01*
X139999182Y-75333553D01*
X139319706Y-74654077D01*
X139319705Y-74654077D01*
X139287325Y-74698644D01*
X139194426Y-74880968D01*
X139131191Y-75075582D01*
X139099182Y-75277682D01*
X139099182Y-75482317D01*
X139131191Y-75684417D01*
X139194426Y-75879031D01*
X139287323Y-76061350D01*
X139287329Y-76061359D01*
X139319705Y-76105921D01*
X139319706Y-76105922D01*
X139999182Y-75426446D01*
X139999182Y-75432661D01*
X140026441Y-75534394D01*
X140079102Y-75625606D01*
X140153576Y-75700080D01*
X140244788Y-75752741D01*
X140346521Y-75780000D01*
X140352735Y-75780000D01*
X139673258Y-76459474D01*
X139717834Y-76491861D01*
X139810810Y-76539234D01*
X139861607Y-76587208D01*
X139878402Y-76655029D01*
X139855865Y-76721164D01*
X139810812Y-76760203D01*
X139717570Y-76807713D01*
X139551968Y-76928028D01*
X139407210Y-77072786D01*
X139286897Y-77238386D01*
X139193963Y-77420776D01*
X139130704Y-77615465D01*
X139098682Y-77817648D01*
X139098682Y-78022351D01*
X139130704Y-78224534D01*
X139193963Y-78419223D01*
X139286897Y-78601613D01*
X139407210Y-78767213D01*
X139551968Y-78911971D01*
X139706931Y-79024556D01*
X139717572Y-79032287D01*
X139809022Y-79078883D01*
X139810262Y-79079515D01*
X139861058Y-79127490D01*
X139877853Y-79195311D01*
X139855316Y-79261446D01*
X139810262Y-79300485D01*
X139717568Y-79347715D01*
X139551968Y-79468028D01*
X139407210Y-79612786D01*
X139286897Y-79778386D01*
X139193963Y-79960776D01*
X139130704Y-80155465D01*
X139098682Y-80357648D01*
X139098682Y-80562351D01*
X139130704Y-80764534D01*
X139193963Y-80959223D01*
X139286897Y-81141613D01*
X139407210Y-81307213D01*
X139551968Y-81451971D01*
X139706931Y-81564556D01*
X139717572Y-81572287D01*
X139809022Y-81618883D01*
X139810262Y-81619515D01*
X139861058Y-81667490D01*
X139877853Y-81735311D01*
X139855316Y-81801446D01*
X139810262Y-81840485D01*
X139717568Y-81887715D01*
X139551968Y-82008028D01*
X139407210Y-82152786D01*
X139286897Y-82318386D01*
X139193963Y-82500776D01*
X139130704Y-82695465D01*
X139098682Y-82897648D01*
X139098682Y-83102351D01*
X139130704Y-83304534D01*
X139193963Y-83499223D01*
X139257873Y-83624653D01*
X139264588Y-83637831D01*
X139286897Y-83681613D01*
X139407210Y-83847213D01*
X139551968Y-83991971D01*
X139706931Y-84104556D01*
X139717572Y-84112287D01*
X139809022Y-84158883D01*
X139810262Y-84159515D01*
X139861058Y-84207490D01*
X139877853Y-84275311D01*
X139855316Y-84341446D01*
X139810262Y-84380485D01*
X139717568Y-84427715D01*
X139551968Y-84548028D01*
X139407210Y-84692786D01*
X139286897Y-84858386D01*
X139193963Y-85040776D01*
X139130704Y-85235465D01*
X139098682Y-85437648D01*
X139098682Y-85642351D01*
X139130704Y-85844534D01*
X139193963Y-86039223D01*
X139257873Y-86164653D01*
X139264588Y-86177831D01*
X139286897Y-86221613D01*
X139407210Y-86387213D01*
X139551968Y-86531971D01*
X139706931Y-86644556D01*
X139717572Y-86652287D01*
X139809022Y-86698883D01*
X139810262Y-86699515D01*
X139861058Y-86747490D01*
X139877853Y-86815311D01*
X139855316Y-86881446D01*
X139810262Y-86920485D01*
X139717568Y-86967715D01*
X139551968Y-87088028D01*
X139407210Y-87232786D01*
X139286897Y-87398386D01*
X139193963Y-87580776D01*
X139130704Y-87775465D01*
X139098682Y-87977648D01*
X139098682Y-88182351D01*
X139130704Y-88384534D01*
X139193963Y-88579223D01*
X139286897Y-88761613D01*
X139407210Y-88927213D01*
X139551968Y-89071971D01*
X139700550Y-89179920D01*
X139717572Y-89192287D01*
X139809022Y-89238883D01*
X139810262Y-89239515D01*
X139861058Y-89287490D01*
X139877853Y-89355311D01*
X139855316Y-89421446D01*
X139810262Y-89460485D01*
X139717568Y-89507715D01*
X139551968Y-89628028D01*
X139407210Y-89772786D01*
X139286897Y-89938386D01*
X139193963Y-90120776D01*
X139130704Y-90315465D01*
X139098682Y-90517648D01*
X139098682Y-90722351D01*
X139130704Y-90924534D01*
X139193963Y-91119223D01*
X139286897Y-91301613D01*
X139407210Y-91467213D01*
X139551968Y-91611971D01*
X139706931Y-91724556D01*
X139717572Y-91732287D01*
X139805774Y-91777228D01*
X139899958Y-91825218D01*
X139899960Y-91825218D01*
X139899963Y-91825220D01*
X140004319Y-91859127D01*
X140094647Y-91888477D01*
X140195739Y-91904488D01*
X140296830Y-91920500D01*
X140296831Y-91920500D01*
X140501533Y-91920500D01*
X140501534Y-91920500D01*
X140703716Y-91888477D01*
X140898401Y-91825220D01*
X141080792Y-91732287D01*
X141173772Y-91664732D01*
X141246395Y-91611971D01*
X141246397Y-91611968D01*
X141246401Y-91611966D01*
X141391148Y-91467219D01*
X141391150Y-91467215D01*
X141391153Y-91467213D01*
X141443914Y-91394590D01*
X141511469Y-91301610D01*
X141604402Y-91119219D01*
X141667659Y-90924534D01*
X141699682Y-90722352D01*
X141699682Y-90517648D01*
X141667659Y-90315466D01*
X141666301Y-90311288D01*
X141638309Y-90225137D01*
X141604402Y-90120781D01*
X141604400Y-90120778D01*
X141604400Y-90120776D01*
X141542463Y-89999219D01*
X141511469Y-89938390D01*
X141503738Y-89927749D01*
X141391153Y-89772786D01*
X141246395Y-89628028D01*
X141080796Y-89507715D01*
X141074188Y-89504348D01*
X140988099Y-89460483D01*
X140937305Y-89412511D01*
X140920510Y-89344690D01*
X140943047Y-89278555D01*
X140988099Y-89239516D01*
X141080792Y-89192287D01*
X141101952Y-89176913D01*
X141246395Y-89071971D01*
X141246397Y-89071968D01*
X141246401Y-89071966D01*
X141391148Y-88927219D01*
X141391150Y-88927215D01*
X141391153Y-88927213D01*
X141470830Y-88817545D01*
X141511469Y-88761610D01*
X141604402Y-88579219D01*
X141667659Y-88384534D01*
X141699682Y-88182352D01*
X141699682Y-87977648D01*
X141667659Y-87775466D01*
X141604402Y-87580781D01*
X141604400Y-87580778D01*
X141604400Y-87580776D01*
X141570685Y-87514607D01*
X141511469Y-87398390D01*
X141503738Y-87387749D01*
X141391153Y-87232786D01*
X141246395Y-87088028D01*
X141080796Y-86967715D01*
X141074188Y-86964348D01*
X140988099Y-86920483D01*
X140937305Y-86872511D01*
X140920510Y-86804690D01*
X140943047Y-86738555D01*
X140988099Y-86699516D01*
X141080792Y-86652287D01*
X141101952Y-86636913D01*
X141246395Y-86531971D01*
X141246397Y-86531968D01*
X141246401Y-86531966D01*
X141391148Y-86387219D01*
X141391150Y-86387215D01*
X141391153Y-86387213D01*
X141443914Y-86314590D01*
X141511469Y-86221610D01*
X141604402Y-86039219D01*
X141667659Y-85844534D01*
X141699682Y-85642352D01*
X141699682Y-85437648D01*
X141667659Y-85235466D01*
X141604402Y-85040781D01*
X141604400Y-85040778D01*
X141604400Y-85040776D01*
X141555950Y-84945689D01*
X141511469Y-84858390D01*
X141503738Y-84847749D01*
X141391153Y-84692786D01*
X141246395Y-84548028D01*
X141080796Y-84427715D01*
X141074188Y-84424348D01*
X140988099Y-84380483D01*
X140937305Y-84332511D01*
X140920510Y-84264690D01*
X140943047Y-84198555D01*
X140988099Y-84159516D01*
X141080792Y-84112287D01*
X141101952Y-84096913D01*
X141246395Y-83991971D01*
X141246397Y-83991968D01*
X141246401Y-83991966D01*
X141391148Y-83847219D01*
X141391150Y-83847215D01*
X141391153Y-83847213D01*
X141443914Y-83774590D01*
X141511469Y-83681610D01*
X141604402Y-83499219D01*
X141667659Y-83304534D01*
X141699682Y-83102352D01*
X141699682Y-82897648D01*
X141667659Y-82695466D01*
X141604402Y-82500781D01*
X141604400Y-82500778D01*
X141604400Y-82500776D01*
X141560780Y-82415168D01*
X141511469Y-82318390D01*
X141503738Y-82307749D01*
X141391153Y-82152786D01*
X141246395Y-82008028D01*
X141080796Y-81887715D01*
X141074188Y-81884348D01*
X140988099Y-81840483D01*
X140937305Y-81792511D01*
X140920510Y-81724690D01*
X140943047Y-81658555D01*
X140988099Y-81619516D01*
X141080792Y-81572287D01*
X141131556Y-81535405D01*
X141246395Y-81451971D01*
X141246397Y-81451968D01*
X141246401Y-81451966D01*
X141391148Y-81307219D01*
X141391150Y-81307215D01*
X141391153Y-81307213D01*
X141488789Y-81172826D01*
X141511469Y-81141610D01*
X141604402Y-80959219D01*
X141667659Y-80764534D01*
X141699682Y-80562352D01*
X141699682Y-80357648D01*
X141667659Y-80155466D01*
X141604402Y-79960781D01*
X141604400Y-79960778D01*
X141604400Y-79960776D01*
X141570685Y-79894607D01*
X141511469Y-79778390D01*
X141469858Y-79721117D01*
X141391153Y-79612786D01*
X141246395Y-79468028D01*
X141080796Y-79347715D01*
X141074188Y-79344348D01*
X140988099Y-79300483D01*
X140937305Y-79252511D01*
X140920510Y-79184690D01*
X140943047Y-79118555D01*
X140988099Y-79079516D01*
X141080792Y-79032287D01*
X141131231Y-78995641D01*
X141246395Y-78911971D01*
X141246397Y-78911968D01*
X141246401Y-78911966D01*
X141391148Y-78767219D01*
X141391150Y-78767215D01*
X141391153Y-78767213D01*
X141453536Y-78681349D01*
X141511469Y-78601610D01*
X141604402Y-78419219D01*
X141667659Y-78224534D01*
X141699682Y-78022352D01*
X141699682Y-77817648D01*
X141667659Y-77615466D01*
X141604402Y-77420781D01*
X141604400Y-77420778D01*
X141604400Y-77420776D01*
X141570685Y-77354607D01*
X141511469Y-77238390D01*
X141490538Y-77209581D01*
X141391153Y-77072786D01*
X141246395Y-76928028D01*
X141080793Y-76807713D01*
X140987551Y-76760203D01*
X140936756Y-76712229D01*
X140919961Y-76644407D01*
X140942499Y-76578273D01*
X140987553Y-76539234D01*
X141080528Y-76491861D01*
X141080529Y-76491861D01*
X141125103Y-76459474D01*
X140445629Y-75780000D01*
X140451843Y-75780000D01*
X140553576Y-75752741D01*
X140644788Y-75700080D01*
X140719262Y-75625606D01*
X140771923Y-75534394D01*
X140799182Y-75432661D01*
X140799182Y-75426447D01*
X141478656Y-76105921D01*
X141511041Y-76061349D01*
X141603937Y-75879031D01*
X141667172Y-75684417D01*
X141699182Y-75482317D01*
X141699182Y-75277682D01*
X141667172Y-75075582D01*
X141603937Y-74880968D01*
X141511041Y-74698650D01*
X141478656Y-74654077D01*
X141478656Y-74654076D01*
X140799182Y-75333551D01*
X140799182Y-75327339D01*
X140771923Y-75225606D01*
X140719262Y-75134394D01*
X140644788Y-75059920D01*
X140553576Y-75007259D01*
X140451843Y-74980000D01*
X140445628Y-74980000D01*
X141125104Y-74300524D01*
X141125103Y-74300523D01*
X141080541Y-74268147D01*
X141080532Y-74268141D01*
X140987551Y-74220765D01*
X140936755Y-74172790D01*
X140919960Y-74104969D01*
X140942497Y-74038835D01*
X140987552Y-73999795D01*
X140988653Y-73999234D01*
X141080792Y-73952287D01*
X141130326Y-73916298D01*
X141246395Y-73831971D01*
X141246397Y-73831968D01*
X141246401Y-73831966D01*
X141391148Y-73687219D01*
X141391150Y-73687215D01*
X141391153Y-73687213D01*
X141443914Y-73614590D01*
X141511469Y-73521610D01*
X141604402Y-73339219D01*
X141667659Y-73144534D01*
X141699682Y-72942352D01*
X141699682Y-72737648D01*
X141691439Y-72685606D01*
X141667659Y-72535465D01*
X141636640Y-72440000D01*
X141604402Y-72340781D01*
X141604400Y-72340778D01*
X141604400Y-72340776D01*
X141554986Y-72243797D01*
X141511469Y-72158390D01*
X141479274Y-72114077D01*
X141391153Y-71992786D01*
X141246395Y-71848028D01*
X141080796Y-71727715D01*
X141074188Y-71724348D01*
X140988099Y-71680483D01*
X140937305Y-71632511D01*
X140920510Y-71564690D01*
X140943047Y-71498555D01*
X140988099Y-71459516D01*
X141080792Y-71412287D01*
X141161633Y-71353553D01*
X141246395Y-71291971D01*
X141246397Y-71291968D01*
X141246401Y-71291966D01*
X141391148Y-71147219D01*
X141391150Y-71147215D01*
X141391153Y-71147213D01*
X141498107Y-71000001D01*
X141511469Y-70981610D01*
X141604402Y-70799219D01*
X141667659Y-70604534D01*
X141699682Y-70402352D01*
X141699682Y-70197648D01*
X141667659Y-69995466D01*
X141655376Y-69957664D01*
X141632787Y-69888141D01*
X141604402Y-69800781D01*
X141604400Y-69800778D01*
X141604400Y-69800776D01*
X141556062Y-69705909D01*
X141511469Y-69618390D01*
X141503738Y-69607749D01*
X141391153Y-69452786D01*
X141246395Y-69308028D01*
X141080796Y-69187715D01*
X141074188Y-69184348D01*
X140988099Y-69140483D01*
X140937305Y-69092511D01*
X140920510Y-69024690D01*
X140943047Y-68958555D01*
X140988099Y-68919516D01*
X141080792Y-68872287D01*
X141101952Y-68856913D01*
X141246395Y-68751971D01*
X141246397Y-68751968D01*
X141246401Y-68751966D01*
X141391148Y-68607219D01*
X141391150Y-68607215D01*
X141391153Y-68607213D01*
X141443914Y-68534590D01*
X141511469Y-68441610D01*
X141604402Y-68259219D01*
X141667659Y-68064534D01*
X141699682Y-67862352D01*
X141699682Y-67657648D01*
X141690924Y-67602351D01*
X141667659Y-67455465D01*
X141604400Y-67260776D01*
X141563201Y-67179920D01*
X141511469Y-67078390D01*
X141503738Y-67067749D01*
X141391153Y-66912786D01*
X141246395Y-66768028D01*
X141080796Y-66647715D01*
X141074188Y-66644348D01*
X140988099Y-66600483D01*
X140937305Y-66552511D01*
X140920510Y-66484690D01*
X140943047Y-66418555D01*
X140988099Y-66379516D01*
X141080792Y-66332287D01*
X141132415Y-66294781D01*
X141246395Y-66211971D01*
X141246397Y-66211968D01*
X141246401Y-66211966D01*
X141391148Y-66067219D01*
X141391150Y-66067215D01*
X141391153Y-66067213D01*
X141452740Y-65982444D01*
X141511469Y-65901610D01*
X141604402Y-65719219D01*
X141667659Y-65524534D01*
X141699682Y-65322352D01*
X141699682Y-65117648D01*
X141667659Y-64915466D01*
X141604402Y-64720781D01*
X141604400Y-64720778D01*
X141604400Y-64720776D01*
X141570685Y-64654607D01*
X141511469Y-64538390D01*
X141503738Y-64527749D01*
X141391153Y-64372786D01*
X141246395Y-64228028D01*
X141080796Y-64107715D01*
X141074188Y-64104348D01*
X140988099Y-64060483D01*
X140937305Y-64012511D01*
X140920510Y-63944690D01*
X140943047Y-63878555D01*
X140988099Y-63839516D01*
X141080792Y-63792287D01*
X141101952Y-63776913D01*
X141246395Y-63671971D01*
X141246397Y-63671968D01*
X141246401Y-63671966D01*
X141391148Y-63527219D01*
X141391150Y-63527215D01*
X141391153Y-63527213D01*
X141443914Y-63454590D01*
X141511469Y-63361610D01*
X141604402Y-63179219D01*
X141667659Y-62984534D01*
X141699682Y-62782352D01*
X141699682Y-62577648D01*
X141687507Y-62500781D01*
X141667659Y-62375465D01*
X141604400Y-62180776D01*
X141570685Y-62114607D01*
X141511469Y-61998390D01*
X141431060Y-61887715D01*
X141391153Y-61832786D01*
X141246395Y-61688028D01*
X141080796Y-61567715D01*
X141074188Y-61564348D01*
X140988099Y-61520483D01*
X140937305Y-61472511D01*
X140920510Y-61404690D01*
X140943047Y-61338555D01*
X140988099Y-61299516D01*
X141080792Y-61252287D01*
X141197428Y-61167547D01*
X141246395Y-61131971D01*
X141246397Y-61131968D01*
X141246401Y-61131966D01*
X141391148Y-60987219D01*
X141391150Y-60987215D01*
X141391153Y-60987213D01*
X141443914Y-60914590D01*
X141511469Y-60821610D01*
X141604402Y-60639219D01*
X141667659Y-60444534D01*
X141699682Y-60242352D01*
X141699682Y-60084452D01*
X141719367Y-60017413D01*
X141772171Y-59971658D01*
X141841329Y-59961714D01*
X141904885Y-59990739D01*
X141911363Y-59996771D01*
X143947363Y-62032771D01*
X143980848Y-62094094D01*
X143983682Y-62120452D01*
X143983682Y-106227019D01*
X143963997Y-106294058D01*
X143915979Y-106337503D01*
X143901362Y-106344950D01*
X143729395Y-106469890D01*
X143579072Y-106620213D01*
X143454131Y-106792182D01*
X143449384Y-106801499D01*
X143401409Y-106852293D01*
X143333587Y-106869087D01*
X143267453Y-106846548D01*
X143228416Y-106801495D01*
X143223808Y-106792452D01*
X143184452Y-106738282D01*
X143184451Y-106738282D01*
X142552144Y-107370590D01*
X142535107Y-107307007D01*
X142469281Y-107192993D01*
X142376189Y-107099901D01*
X142262175Y-107034075D01*
X142198591Y-107017037D01*
X142830898Y-106384728D01*
X142776732Y-106345375D01*
X142587399Y-106248904D01*
X142385311Y-106183242D01*
X142175428Y-106150000D01*
X141962936Y-106150000D01*
X141753054Y-106183242D01*
X141753051Y-106183242D01*
X141550964Y-106248904D01*
X141361621Y-106345380D01*
X141307464Y-106384727D01*
X141307464Y-106384728D01*
X141939773Y-107017037D01*
X141876189Y-107034075D01*
X141762175Y-107099901D01*
X141669083Y-107192993D01*
X141603257Y-107307007D01*
X141586219Y-107370591D01*
X140953910Y-106738282D01*
X140953909Y-106738282D01*
X140914562Y-106792439D01*
X140818086Y-106981782D01*
X140752424Y-107183869D01*
X140752424Y-107183872D01*
X140719182Y-107393753D01*
X140719182Y-107606246D01*
X140752424Y-107816127D01*
X140752424Y-107816130D01*
X140818086Y-108018217D01*
X140914557Y-108207550D01*
X140953910Y-108261716D01*
X141586219Y-107629408D01*
X141603257Y-107692993D01*
X141669083Y-107807007D01*
X141762175Y-107900099D01*
X141876189Y-107965925D01*
X141939772Y-107982962D01*
X141307464Y-108615269D01*
X141307464Y-108615270D01*
X141361631Y-108654624D01*
X141550964Y-108751095D01*
X141753052Y-108816757D01*
X141962936Y-108850000D01*
X142175428Y-108850000D01*
X142385309Y-108816757D01*
X142385312Y-108816757D01*
X142587399Y-108751095D01*
X142776736Y-108654622D01*
X142830898Y-108615270D01*
X142830899Y-108615270D01*
X142198590Y-107982962D01*
X142262175Y-107965925D01*
X142376189Y-107900099D01*
X142469281Y-107807007D01*
X142535107Y-107692993D01*
X142552144Y-107629409D01*
X143184452Y-108261717D01*
X143184452Y-108261716D01*
X143223804Y-108207555D01*
X143228414Y-108198507D01*
X143276387Y-108147709D01*
X143344207Y-108130912D01*
X143410343Y-108153447D01*
X143449386Y-108198504D01*
X143454131Y-108207817D01*
X143579072Y-108379786D01*
X143729395Y-108530109D01*
X143901361Y-108655048D01*
X143901363Y-108655049D01*
X143901366Y-108655051D01*
X144090770Y-108751557D01*
X144292939Y-108817246D01*
X144502895Y-108850500D01*
X144502896Y-108850500D01*
X144715468Y-108850500D01*
X144715469Y-108850500D01*
X144925425Y-108817246D01*
X145127594Y-108751557D01*
X145316998Y-108655051D01*
X145403320Y-108592335D01*
X145488968Y-108530109D01*
X145488970Y-108530106D01*
X145488974Y-108530104D01*
X145639286Y-108379792D01*
X145639288Y-108379788D01*
X145639291Y-108379786D01*
X145764230Y-108207820D01*
X145764232Y-108207817D01*
X145764233Y-108207816D01*
X145768696Y-108199054D01*
X145816670Y-108148259D01*
X145884490Y-108131463D01*
X145950626Y-108153999D01*
X145989668Y-108199056D01*
X145994133Y-108207820D01*
X146119072Y-108379786D01*
X146269395Y-108530109D01*
X146441361Y-108655048D01*
X146441363Y-108655049D01*
X146441366Y-108655051D01*
X146630770Y-108751557D01*
X146832939Y-108817246D01*
X147042895Y-108850500D01*
X147042896Y-108850500D01*
X147255468Y-108850500D01*
X147255469Y-108850500D01*
X147465425Y-108817246D01*
X147667594Y-108751557D01*
X147856998Y-108655051D01*
X147943320Y-108592335D01*
X148028968Y-108530109D01*
X148028970Y-108530106D01*
X148028974Y-108530104D01*
X148179286Y-108379792D01*
X148179288Y-108379788D01*
X148179291Y-108379786D01*
X148304230Y-108207820D01*
X148304232Y-108207817D01*
X148304233Y-108207816D01*
X148308696Y-108199054D01*
X148356670Y-108148259D01*
X148424490Y-108131463D01*
X148490626Y-108153999D01*
X148529668Y-108199056D01*
X148534133Y-108207820D01*
X148659072Y-108379786D01*
X148809395Y-108530109D01*
X148981361Y-108655048D01*
X148981363Y-108655049D01*
X148981366Y-108655051D01*
X149170770Y-108751557D01*
X149372939Y-108817246D01*
X149582895Y-108850500D01*
X149582896Y-108850500D01*
X149795468Y-108850500D01*
X149795469Y-108850500D01*
X150005425Y-108817246D01*
X150207594Y-108751557D01*
X150396998Y-108655051D01*
X150483320Y-108592335D01*
X150568968Y-108530109D01*
X150568970Y-108530106D01*
X150568974Y-108530104D01*
X150719286Y-108379792D01*
X150719288Y-108379788D01*
X150719291Y-108379786D01*
X150844230Y-108207820D01*
X150844232Y-108207817D01*
X150844233Y-108207816D01*
X150848696Y-108199054D01*
X150896670Y-108148259D01*
X150964490Y-108131463D01*
X151030626Y-108153999D01*
X151069668Y-108199056D01*
X151074133Y-108207820D01*
X151199072Y-108379786D01*
X151349395Y-108530109D01*
X151521361Y-108655048D01*
X151521363Y-108655049D01*
X151521366Y-108655051D01*
X151710770Y-108751557D01*
X151912939Y-108817246D01*
X152122895Y-108850500D01*
X152122896Y-108850500D01*
X152335468Y-108850500D01*
X152335469Y-108850500D01*
X152545425Y-108817246D01*
X152747594Y-108751557D01*
X152936998Y-108655051D01*
X153097626Y-108538349D01*
X153108966Y-108530110D01*
X153108966Y-108530109D01*
X153108974Y-108530104D01*
X153222511Y-108416566D01*
X153283830Y-108383084D01*
X153353522Y-108388068D01*
X153409456Y-108429939D01*
X153426371Y-108460917D01*
X153475384Y-108592328D01*
X153475388Y-108592335D01*
X153561634Y-108707544D01*
X153561637Y-108707547D01*
X153676846Y-108793793D01*
X153676853Y-108793797D01*
X153811699Y-108844091D01*
X153811698Y-108844091D01*
X153818626Y-108844835D01*
X153871309Y-108850500D01*
X155667054Y-108850499D01*
X155726665Y-108844091D01*
X155861513Y-108793796D01*
X155976728Y-108707546D01*
X156062978Y-108592331D01*
X156113273Y-108457483D01*
X156119682Y-108397873D01*
X156119682Y-108102155D01*
X175839182Y-108102155D01*
X175839182Y-108750000D01*
X176756170Y-108750000D01*
X176723257Y-108807007D01*
X176689182Y-108934174D01*
X176689182Y-109065826D01*
X176723257Y-109192993D01*
X176756170Y-109250000D01*
X175839182Y-109250000D01*
X175839182Y-109897844D01*
X175845583Y-109957372D01*
X175845585Y-109957379D01*
X175895827Y-110092086D01*
X175895831Y-110092093D01*
X175981991Y-110207187D01*
X175981994Y-110207190D01*
X176097088Y-110293350D01*
X176097095Y-110293354D01*
X176231802Y-110343596D01*
X176231809Y-110343598D01*
X176291337Y-110349999D01*
X176291354Y-110350000D01*
X176939182Y-110350000D01*
X176939182Y-109433012D01*
X176996189Y-109465925D01*
X177123356Y-109500000D01*
X177255008Y-109500000D01*
X177382175Y-109465925D01*
X177439182Y-109433012D01*
X177439182Y-110350000D01*
X178087010Y-110350000D01*
X178087026Y-110349999D01*
X178146554Y-110343598D01*
X178146561Y-110343596D01*
X178281268Y-110293354D01*
X178281275Y-110293350D01*
X178396369Y-110207190D01*
X178396372Y-110207187D01*
X178482532Y-110092093D01*
X178482536Y-110092086D01*
X178531604Y-109960529D01*
X178573475Y-109904595D01*
X178638939Y-109880178D01*
X178707212Y-109895030D01*
X178735467Y-109916181D01*
X178849395Y-110030109D01*
X179021361Y-110155048D01*
X179021363Y-110155049D01*
X179021366Y-110155051D01*
X179210770Y-110251557D01*
X179412939Y-110317246D01*
X179622895Y-110350500D01*
X179622896Y-110350500D01*
X179835468Y-110350500D01*
X179835469Y-110350500D01*
X180045425Y-110317246D01*
X180247594Y-110251557D01*
X180436998Y-110155051D01*
X180523653Y-110092093D01*
X180608968Y-110030109D01*
X180608970Y-110030106D01*
X180608974Y-110030104D01*
X180759286Y-109879792D01*
X180759288Y-109879788D01*
X180759291Y-109879786D01*
X180884230Y-109707820D01*
X180884229Y-109707820D01*
X180884233Y-109707816D01*
X180888696Y-109699054D01*
X180936670Y-109648259D01*
X181004490Y-109631463D01*
X181070626Y-109653999D01*
X181109668Y-109699056D01*
X181114133Y-109707820D01*
X181239072Y-109879786D01*
X181389395Y-110030109D01*
X181561361Y-110155048D01*
X181561363Y-110155049D01*
X181561366Y-110155051D01*
X181750770Y-110251557D01*
X181952939Y-110317246D01*
X182162895Y-110350500D01*
X182162896Y-110350500D01*
X182375468Y-110350500D01*
X182375469Y-110350500D01*
X182585425Y-110317246D01*
X182787594Y-110251557D01*
X182976998Y-110155051D01*
X183063653Y-110092093D01*
X183148968Y-110030109D01*
X183148970Y-110030106D01*
X183148974Y-110030104D01*
X183299286Y-109879792D01*
X183299288Y-109879788D01*
X183299291Y-109879786D01*
X183424230Y-109707820D01*
X183424229Y-109707820D01*
X183424233Y-109707816D01*
X183428696Y-109699054D01*
X183476670Y-109648259D01*
X183544490Y-109631463D01*
X183610626Y-109653999D01*
X183649668Y-109699056D01*
X183654133Y-109707820D01*
X183779072Y-109879786D01*
X183929395Y-110030109D01*
X184101361Y-110155048D01*
X184101363Y-110155049D01*
X184101366Y-110155051D01*
X184290770Y-110251557D01*
X184492939Y-110317246D01*
X184702895Y-110350500D01*
X184702896Y-110350500D01*
X184915468Y-110350500D01*
X184915469Y-110350500D01*
X185125425Y-110317246D01*
X185327594Y-110251557D01*
X185516998Y-110155051D01*
X185603653Y-110092093D01*
X185688968Y-110030109D01*
X185688970Y-110030106D01*
X185688974Y-110030104D01*
X185839286Y-109879792D01*
X185839288Y-109879788D01*
X185839291Y-109879786D01*
X185964230Y-109707820D01*
X185964229Y-109707820D01*
X185964233Y-109707816D01*
X186060739Y-109518412D01*
X186126428Y-109316243D01*
X186159682Y-109106287D01*
X186159682Y-108893713D01*
X186126428Y-108683757D01*
X186060739Y-108481588D01*
X185964233Y-108292184D01*
X185964231Y-108292181D01*
X185964230Y-108292179D01*
X185839291Y-108120213D01*
X185688968Y-107969890D01*
X185517002Y-107844951D01*
X185327596Y-107748444D01*
X185327595Y-107748443D01*
X185327594Y-107748443D01*
X185125425Y-107682754D01*
X185125423Y-107682753D01*
X185125422Y-107682753D01*
X184964139Y-107657208D01*
X184915469Y-107649500D01*
X184702895Y-107649500D01*
X184654224Y-107657208D01*
X184492942Y-107682753D01*
X184290767Y-107748444D01*
X184101361Y-107844951D01*
X183929395Y-107969890D01*
X183779072Y-108120213D01*
X183654131Y-108292182D01*
X183649666Y-108300946D01*
X183601691Y-108351742D01*
X183533870Y-108368536D01*
X183467735Y-108345998D01*
X183428698Y-108300946D01*
X183424232Y-108292182D01*
X183299291Y-108120213D01*
X183148968Y-107969890D01*
X182977002Y-107844951D01*
X182787596Y-107748444D01*
X182787595Y-107748443D01*
X182787594Y-107748443D01*
X182585425Y-107682754D01*
X182585423Y-107682753D01*
X182585422Y-107682753D01*
X182424139Y-107657208D01*
X182375469Y-107649500D01*
X182162895Y-107649500D01*
X182114224Y-107657208D01*
X181952942Y-107682753D01*
X181750767Y-107748444D01*
X181561361Y-107844951D01*
X181389395Y-107969890D01*
X181239072Y-108120213D01*
X181114131Y-108292182D01*
X181109666Y-108300946D01*
X181061691Y-108351742D01*
X180993870Y-108368536D01*
X180927735Y-108345998D01*
X180888698Y-108300946D01*
X180884232Y-108292182D01*
X180759291Y-108120213D01*
X180608968Y-107969890D01*
X180437002Y-107844951D01*
X180247596Y-107748444D01*
X180247595Y-107748443D01*
X180247594Y-107748443D01*
X180045425Y-107682754D01*
X180045423Y-107682753D01*
X180045422Y-107682753D01*
X179884139Y-107657208D01*
X179835469Y-107649500D01*
X179622895Y-107649500D01*
X179574224Y-107657208D01*
X179412942Y-107682753D01*
X179210767Y-107748444D01*
X179021361Y-107844951D01*
X178849397Y-107969889D01*
X178735467Y-108083819D01*
X178674144Y-108117303D01*
X178604452Y-108112319D01*
X178548519Y-108070447D01*
X178531604Y-108039470D01*
X178482536Y-107907913D01*
X178482532Y-107907906D01*
X178396372Y-107792812D01*
X178396369Y-107792809D01*
X178281275Y-107706649D01*
X178281268Y-107706645D01*
X178146561Y-107656403D01*
X178146554Y-107656401D01*
X178087026Y-107650000D01*
X177439182Y-107650000D01*
X177439182Y-108566988D01*
X177382175Y-108534075D01*
X177255008Y-108500000D01*
X177123356Y-108500000D01*
X176996189Y-108534075D01*
X176939182Y-108566988D01*
X176939182Y-107650000D01*
X176291337Y-107650000D01*
X176231809Y-107656401D01*
X176231802Y-107656403D01*
X176097095Y-107706645D01*
X176097088Y-107706649D01*
X175981994Y-107792809D01*
X175981991Y-107792812D01*
X175895831Y-107907906D01*
X175895827Y-107907913D01*
X175845585Y-108042620D01*
X175845583Y-108042627D01*
X175839182Y-108102155D01*
X156119682Y-108102155D01*
X156119681Y-107500000D01*
X156119681Y-106602129D01*
X156119680Y-106602123D01*
X156113273Y-106542516D01*
X156062979Y-106407671D01*
X156062975Y-106407664D01*
X155976729Y-106292455D01*
X155976726Y-106292452D01*
X155861517Y-106206206D01*
X155861510Y-106206202D01*
X155726664Y-106155908D01*
X155726665Y-106155908D01*
X155667065Y-106149501D01*
X155667063Y-106149500D01*
X155667055Y-106149500D01*
X155667047Y-106149500D01*
X155518682Y-106149500D01*
X155451643Y-106129815D01*
X155405888Y-106077011D01*
X155394682Y-106025500D01*
X155394682Y-86438393D01*
X155394681Y-86438389D01*
X155370646Y-86317555D01*
X155370645Y-86317548D01*
X155323493Y-86203714D01*
X155323492Y-86203713D01*
X155323489Y-86203707D01*
X155255041Y-86101268D01*
X155255040Y-86101267D01*
X155167915Y-86014142D01*
X155167914Y-86014141D01*
X151755041Y-82601269D01*
X151755040Y-82601267D01*
X151667915Y-82514142D01*
X151616691Y-82479915D01*
X151565468Y-82445688D01*
X151565465Y-82445686D01*
X151565462Y-82445685D01*
X151491785Y-82415168D01*
X151491783Y-82415167D01*
X151484974Y-82412347D01*
X151451634Y-82398537D01*
X151391211Y-82386518D01*
X151386488Y-82385578D01*
X151386486Y-82385578D01*
X151330792Y-82374500D01*
X151330789Y-82374500D01*
X151330788Y-82374500D01*
X149235297Y-82374500D01*
X149168258Y-82354815D01*
X149135575Y-82321428D01*
X149134333Y-82322331D01*
X149011153Y-82152786D01*
X148866395Y-82008028D01*
X148700796Y-81887715D01*
X148694188Y-81884348D01*
X148608099Y-81840483D01*
X148557305Y-81792511D01*
X148540510Y-81724690D01*
X148563047Y-81658555D01*
X148608099Y-81619516D01*
X148700792Y-81572287D01*
X148751556Y-81535405D01*
X148866395Y-81451971D01*
X148866397Y-81451968D01*
X148866401Y-81451966D01*
X149011148Y-81307219D01*
X149011150Y-81307215D01*
X149011153Y-81307213D01*
X149108789Y-81172826D01*
X149131469Y-81141610D01*
X149224402Y-80959219D01*
X149287659Y-80764534D01*
X149319682Y-80562352D01*
X149319682Y-80357648D01*
X149287659Y-80155466D01*
X149224402Y-79960781D01*
X149224400Y-79960778D01*
X149224400Y-79960776D01*
X149190685Y-79894607D01*
X149131469Y-79778390D01*
X149089858Y-79721117D01*
X149011153Y-79612786D01*
X148866395Y-79468028D01*
X148700796Y-79347715D01*
X148694188Y-79344348D01*
X148608099Y-79300483D01*
X148557305Y-79252511D01*
X148540510Y-79184690D01*
X148563047Y-79118555D01*
X148608099Y-79079516D01*
X148700792Y-79032287D01*
X148751231Y-78995641D01*
X148866395Y-78911971D01*
X148866397Y-78911968D01*
X148866401Y-78911966D01*
X149011148Y-78767219D01*
X149011150Y-78767215D01*
X149011153Y-78767213D01*
X149073536Y-78681349D01*
X149131469Y-78601610D01*
X149224402Y-78419219D01*
X149287659Y-78224534D01*
X149319682Y-78022352D01*
X149319682Y-77817648D01*
X149287659Y-77615466D01*
X149224402Y-77420781D01*
X149224400Y-77420778D01*
X149224400Y-77420776D01*
X149131468Y-77238389D01*
X149119337Y-77221692D01*
X149068801Y-77152135D01*
X155468682Y-77152135D01*
X155468682Y-78847870D01*
X155468683Y-78847876D01*
X155475090Y-78907483D01*
X155525384Y-79042328D01*
X155525388Y-79042335D01*
X155611634Y-79157544D01*
X155611637Y-79157547D01*
X155726846Y-79243793D01*
X155726853Y-79243797D01*
X155861699Y-79294091D01*
X155861698Y-79294091D01*
X155868626Y-79294835D01*
X155921309Y-79300500D01*
X157617054Y-79300499D01*
X157676665Y-79294091D01*
X157811513Y-79243796D01*
X157926728Y-79157546D01*
X158012978Y-79042331D01*
X158063273Y-78907483D01*
X158069682Y-78847873D01*
X158069681Y-78835612D01*
X158073257Y-78821052D01*
X158083524Y-78803380D01*
X158089249Y-78783760D01*
X158100721Y-78773783D01*
X158108359Y-78760640D01*
X158126549Y-78751325D01*
X158141974Y-78737913D01*
X158158462Y-78734984D01*
X158170549Y-78728795D01*
X158185200Y-78730234D01*
X158185436Y-78730192D01*
X158869182Y-78046446D01*
X158869182Y-78052661D01*
X158896441Y-78154394D01*
X158949102Y-78245606D01*
X159023576Y-78320080D01*
X159114788Y-78372741D01*
X159216521Y-78400000D01*
X159222735Y-78400000D01*
X158543258Y-79079474D01*
X158587832Y-79111859D01*
X158770150Y-79204755D01*
X158964764Y-79267990D01*
X159166865Y-79300000D01*
X159371499Y-79300000D01*
X159573599Y-79267990D01*
X159768213Y-79204755D01*
X159950531Y-79111859D01*
X159995103Y-79079474D01*
X159315629Y-78400000D01*
X159321843Y-78400000D01*
X159423576Y-78372741D01*
X159514788Y-78320080D01*
X159589262Y-78245606D01*
X159641923Y-78154394D01*
X159669182Y-78052661D01*
X159669182Y-78046447D01*
X160348656Y-78725921D01*
X160381041Y-78681349D01*
X160473937Y-78499031D01*
X160537172Y-78304417D01*
X160569182Y-78102317D01*
X160569182Y-77897682D01*
X160537172Y-77695582D01*
X160473937Y-77500968D01*
X160381041Y-77318650D01*
X160348656Y-77274077D01*
X160348656Y-77274076D01*
X159669182Y-77953551D01*
X159669182Y-77947339D01*
X159641923Y-77845606D01*
X159589262Y-77754394D01*
X159514788Y-77679920D01*
X159423576Y-77627259D01*
X159321843Y-77600000D01*
X159315628Y-77600000D01*
X159995104Y-76920524D01*
X159995103Y-76920523D01*
X159950541Y-76888147D01*
X159950532Y-76888141D01*
X159768213Y-76795244D01*
X159573599Y-76732009D01*
X159371499Y-76700000D01*
X159166865Y-76700000D01*
X158964764Y-76732009D01*
X158770150Y-76795244D01*
X158587826Y-76888143D01*
X158543259Y-76920523D01*
X158543259Y-76920524D01*
X159222736Y-77600000D01*
X159216521Y-77600000D01*
X159114788Y-77627259D01*
X159023576Y-77679920D01*
X158949102Y-77754394D01*
X158896441Y-77845606D01*
X158869182Y-77947339D01*
X158869182Y-77953553D01*
X158184695Y-77269066D01*
X158135031Y-77258633D01*
X158085275Y-77209581D01*
X158073258Y-77178947D01*
X158069681Y-77164378D01*
X158069681Y-77152128D01*
X158063273Y-77092517D01*
X158030394Y-77004365D01*
X158030393Y-77004359D01*
X158012979Y-76957671D01*
X158012975Y-76957664D01*
X157926729Y-76842455D01*
X157926726Y-76842452D01*
X157811517Y-76756206D01*
X157811510Y-76756202D01*
X157676664Y-76705908D01*
X157676665Y-76705908D01*
X157617065Y-76699501D01*
X157617063Y-76699500D01*
X157617055Y-76699500D01*
X157617046Y-76699500D01*
X155921311Y-76699500D01*
X155921305Y-76699501D01*
X155861698Y-76705908D01*
X155726853Y-76756202D01*
X155726846Y-76756206D01*
X155611637Y-76842452D01*
X155611634Y-76842455D01*
X155525388Y-76957664D01*
X155525384Y-76957671D01*
X155475090Y-77092517D01*
X155468683Y-77152116D01*
X155468682Y-77152135D01*
X149068801Y-77152135D01*
X149011148Y-77072781D01*
X148866401Y-76928034D01*
X148866395Y-76928028D01*
X148700796Y-76807715D01*
X148676320Y-76795244D01*
X148608099Y-76760483D01*
X148557305Y-76712511D01*
X148540510Y-76644690D01*
X148563047Y-76578555D01*
X148608099Y-76539516D01*
X148700792Y-76492287D01*
X148745956Y-76459474D01*
X148866395Y-76371971D01*
X148866397Y-76371968D01*
X148866401Y-76371966D01*
X149011148Y-76227219D01*
X149011150Y-76227215D01*
X149011153Y-76227213D01*
X149063914Y-76154590D01*
X149131469Y-76061610D01*
X149224402Y-75879219D01*
X149287659Y-75684534D01*
X149319682Y-75482352D01*
X149319682Y-75277648D01*
X149305029Y-75185135D01*
X149287659Y-75075465D01*
X149240549Y-74930476D01*
X149224402Y-74880781D01*
X149224400Y-74880778D01*
X149224400Y-74880776D01*
X149190685Y-74814607D01*
X149131469Y-74698390D01*
X149119891Y-74682454D01*
X149011153Y-74532786D01*
X148866395Y-74388028D01*
X148700793Y-74267713D01*
X148607551Y-74220203D01*
X148556756Y-74172229D01*
X148539961Y-74104407D01*
X148562499Y-74038273D01*
X148607553Y-73999234D01*
X148700528Y-73951861D01*
X148700529Y-73951861D01*
X148745103Y-73919474D01*
X148065629Y-73240000D01*
X148071843Y-73240000D01*
X148173576Y-73212741D01*
X148264788Y-73160080D01*
X148339262Y-73085606D01*
X148391923Y-72994394D01*
X148419182Y-72892661D01*
X148419182Y-72886447D01*
X149098656Y-73565921D01*
X149131041Y-73521349D01*
X149223937Y-73339031D01*
X149287172Y-73144417D01*
X149319182Y-72942317D01*
X149319182Y-72737682D01*
X149287172Y-72535582D01*
X149223937Y-72340968D01*
X149131041Y-72158650D01*
X149098656Y-72114077D01*
X149098656Y-72114076D01*
X148419182Y-72793551D01*
X148419182Y-72787339D01*
X148391923Y-72685606D01*
X148339262Y-72594394D01*
X148264788Y-72519920D01*
X148173576Y-72467259D01*
X148071843Y-72440000D01*
X148065628Y-72440000D01*
X148745104Y-71760524D01*
X148745103Y-71760523D01*
X148700541Y-71728147D01*
X148700532Y-71728141D01*
X148607551Y-71680765D01*
X148556755Y-71632790D01*
X148539960Y-71564969D01*
X148562497Y-71498835D01*
X148607552Y-71459795D01*
X148608102Y-71459515D01*
X148700792Y-71412287D01*
X148781633Y-71353553D01*
X148866395Y-71291971D01*
X148866397Y-71291968D01*
X148866401Y-71291966D01*
X149011148Y-71147219D01*
X149011150Y-71147215D01*
X149011153Y-71147213D01*
X149118107Y-71000001D01*
X149131469Y-70981610D01*
X149224402Y-70799219D01*
X149287659Y-70604534D01*
X149319682Y-70402352D01*
X149319682Y-70197648D01*
X149287659Y-69995466D01*
X149275376Y-69957664D01*
X149252787Y-69888141D01*
X149224402Y-69800781D01*
X149224400Y-69800778D01*
X149224400Y-69800776D01*
X149176062Y-69705909D01*
X149131469Y-69618390D01*
X149123738Y-69607749D01*
X149011153Y-69452786D01*
X148866395Y-69308028D01*
X148700796Y-69187715D01*
X148694188Y-69184348D01*
X148608099Y-69140483D01*
X148557305Y-69092511D01*
X148540510Y-69024690D01*
X148563047Y-68958555D01*
X148608099Y-68919516D01*
X148700792Y-68872287D01*
X148721952Y-68856913D01*
X148866395Y-68751971D01*
X148866397Y-68751968D01*
X148866401Y-68751966D01*
X149011148Y-68607219D01*
X149011150Y-68607215D01*
X149011153Y-68607213D01*
X149063914Y-68534590D01*
X149131469Y-68441610D01*
X149224402Y-68259219D01*
X149287659Y-68064534D01*
X149319682Y-67862352D01*
X149319682Y-67657648D01*
X149310924Y-67602351D01*
X149287659Y-67455465D01*
X149224400Y-67260776D01*
X149183201Y-67179920D01*
X149131469Y-67078390D01*
X149123738Y-67067749D01*
X149011153Y-66912786D01*
X148866395Y-66768028D01*
X148700796Y-66647715D01*
X148694188Y-66644348D01*
X148608099Y-66600483D01*
X148557305Y-66552511D01*
X148540510Y-66484690D01*
X148563047Y-66418555D01*
X148608099Y-66379516D01*
X148700792Y-66332287D01*
X148752415Y-66294781D01*
X148866395Y-66211971D01*
X148866397Y-66211968D01*
X148866401Y-66211966D01*
X149011148Y-66067219D01*
X149011150Y-66067215D01*
X149011153Y-66067213D01*
X149072740Y-65982444D01*
X149131469Y-65901610D01*
X149224402Y-65719219D01*
X149287659Y-65524534D01*
X149319682Y-65322352D01*
X149319682Y-65117648D01*
X149287659Y-64915466D01*
X149224402Y-64720781D01*
X149224400Y-64720778D01*
X149224400Y-64720776D01*
X149190685Y-64654607D01*
X149131469Y-64538390D01*
X149123738Y-64527749D01*
X149011153Y-64372786D01*
X148866395Y-64228028D01*
X148700796Y-64107715D01*
X148694188Y-64104348D01*
X148608099Y-64060483D01*
X148557305Y-64012511D01*
X148540510Y-63944690D01*
X148563047Y-63878555D01*
X148608099Y-63839516D01*
X148700792Y-63792287D01*
X148721952Y-63776913D01*
X148866395Y-63671971D01*
X148866397Y-63671968D01*
X148866401Y-63671966D01*
X149011148Y-63527219D01*
X149011150Y-63527215D01*
X149011153Y-63527213D01*
X149063914Y-63454590D01*
X149131469Y-63361610D01*
X149224402Y-63179219D01*
X149287659Y-62984534D01*
X149290606Y-62965925D01*
X149301421Y-62897648D01*
X151768682Y-62897648D01*
X151768682Y-63102351D01*
X151800704Y-63304534D01*
X151863963Y-63499223D01*
X151923093Y-63615270D01*
X151951981Y-63671966D01*
X151956897Y-63681613D01*
X152077210Y-63847213D01*
X152077216Y-63847219D01*
X152221963Y-63991966D01*
X152387572Y-64112287D01*
X152387576Y-64112289D01*
X152391514Y-64115150D01*
X152390293Y-64116829D01*
X152431337Y-64162177D01*
X152443682Y-64216114D01*
X152443682Y-65861611D01*
X152467717Y-65982444D01*
X152467722Y-65982461D01*
X152514867Y-66096281D01*
X152514872Y-66096290D01*
X152531050Y-66120501D01*
X152531051Y-66120502D01*
X152583322Y-66198731D01*
X152583323Y-66198732D01*
X152583324Y-66198733D01*
X152670449Y-66285858D01*
X152670450Y-66285858D01*
X152677517Y-66292925D01*
X152677516Y-66292925D01*
X152677520Y-66292928D01*
X155370445Y-68985855D01*
X155370449Y-68985858D01*
X155472892Y-69054309D01*
X155472893Y-69054309D01*
X155472897Y-69054312D01*
X155539579Y-69081932D01*
X155586730Y-69101463D01*
X155606779Y-69105451D01*
X155671806Y-69118385D01*
X155707574Y-69125501D01*
X155707576Y-69125501D01*
X155836903Y-69125501D01*
X155836923Y-69125500D01*
X174330789Y-69125500D01*
X174391211Y-69113481D01*
X174451634Y-69101463D01*
X174484974Y-69087652D01*
X174565468Y-69054312D01*
X174616691Y-69020084D01*
X174667915Y-68985858D01*
X174755040Y-68898733D01*
X174755040Y-68898731D01*
X174765248Y-68888524D01*
X174765249Y-68888521D01*
X182327980Y-61325791D01*
X182389301Y-61292308D01*
X182391296Y-61291892D01*
X182502679Y-61269737D01*
X182648361Y-61209394D01*
X182779471Y-61121789D01*
X182890971Y-61010289D01*
X182978576Y-60879179D01*
X183038919Y-60733497D01*
X183069682Y-60578842D01*
X183069682Y-60421158D01*
X183069682Y-60421155D01*
X183069681Y-60421153D01*
X183038919Y-60266503D01*
X183038917Y-60266498D01*
X182978579Y-60120827D01*
X182978572Y-60120814D01*
X182890971Y-59989711D01*
X182890968Y-59989707D01*
X182779474Y-59878213D01*
X182779470Y-59878210D01*
X182648367Y-59790609D01*
X182648354Y-59790602D01*
X182502683Y-59730264D01*
X182502671Y-59730261D01*
X182499489Y-59729628D01*
X182499488Y-59729628D01*
X182348026Y-59699500D01*
X182348024Y-59699500D01*
X182190340Y-59699500D01*
X182190337Y-59699500D01*
X182035692Y-59730261D01*
X182035680Y-59730264D01*
X181890009Y-59790602D01*
X181889996Y-59790609D01*
X181758893Y-59878210D01*
X181758889Y-59878213D01*
X181647395Y-59989707D01*
X181647392Y-59989711D01*
X181559791Y-60120814D01*
X181559784Y-60120827D01*
X181499446Y-60266498D01*
X181499443Y-60266508D01*
X181477323Y-60377713D01*
X181444938Y-60439624D01*
X181443387Y-60441202D01*
X174046411Y-67838181D01*
X173985088Y-67871666D01*
X173958730Y-67874500D01*
X156079635Y-67874500D01*
X156012596Y-67854815D01*
X155991954Y-67838181D01*
X153731001Y-65577228D01*
X153697516Y-65515905D01*
X153694682Y-65489547D01*
X153694682Y-64216114D01*
X153714367Y-64149075D01*
X153747757Y-64116398D01*
X153746850Y-64115150D01*
X153750787Y-64112289D01*
X153750792Y-64112287D01*
X153916401Y-63991966D01*
X154061148Y-63847219D01*
X154061150Y-63847215D01*
X154061153Y-63847213D01*
X154113914Y-63774590D01*
X154181469Y-63681610D01*
X154274402Y-63499219D01*
X154337659Y-63304534D01*
X154369682Y-63102352D01*
X154369682Y-62897648D01*
X164468682Y-62897648D01*
X164468682Y-63102351D01*
X164500704Y-63304534D01*
X164563963Y-63499223D01*
X164623093Y-63615270D01*
X164651981Y-63671966D01*
X164656897Y-63681613D01*
X164777210Y-63847213D01*
X164921968Y-63991971D01*
X165076931Y-64104556D01*
X165087572Y-64112287D01*
X165203789Y-64171503D01*
X165269958Y-64205218D01*
X165269960Y-64205218D01*
X165269963Y-64205220D01*
X165374319Y-64239127D01*
X165464647Y-64268477D01*
X165565739Y-64284488D01*
X165666830Y-64300500D01*
X165666831Y-64300500D01*
X165871533Y-64300500D01*
X165871534Y-64300500D01*
X166073716Y-64268477D01*
X166268401Y-64205220D01*
X166450792Y-64112287D01*
X166585000Y-64014780D01*
X166616395Y-63991971D01*
X166616397Y-63991968D01*
X166616401Y-63991966D01*
X166761148Y-63847219D01*
X166761150Y-63847215D01*
X166761153Y-63847213D01*
X166813914Y-63774590D01*
X166881469Y-63681610D01*
X166974402Y-63499219D01*
X167037659Y-63304534D01*
X167069682Y-63102352D01*
X167069682Y-62897648D01*
X167051421Y-62782352D01*
X167037659Y-62695465D01*
X166974400Y-62500776D01*
X166919868Y-62393753D01*
X166881469Y-62318390D01*
X166873199Y-62307007D01*
X166761153Y-62152786D01*
X166616395Y-62008028D01*
X166450795Y-61887715D01*
X166450794Y-61887714D01*
X166450792Y-61887713D01*
X166393835Y-61858691D01*
X166268405Y-61794781D01*
X166073716Y-61731522D01*
X165899177Y-61703878D01*
X165871534Y-61699500D01*
X165666830Y-61699500D01*
X165642511Y-61703351D01*
X165464647Y-61731522D01*
X165269958Y-61794781D01*
X165087568Y-61887715D01*
X164921968Y-62008028D01*
X164777210Y-62152786D01*
X164656897Y-62318386D01*
X164563963Y-62500776D01*
X164500704Y-62695465D01*
X164468682Y-62897648D01*
X154369682Y-62897648D01*
X154351421Y-62782352D01*
X154337659Y-62695465D01*
X154274400Y-62500776D01*
X154219868Y-62393753D01*
X154181469Y-62318390D01*
X154173199Y-62307007D01*
X154061153Y-62152786D01*
X153916395Y-62008028D01*
X153750795Y-61887715D01*
X153750794Y-61887714D01*
X153750792Y-61887713D01*
X153693835Y-61858691D01*
X153568405Y-61794781D01*
X153373716Y-61731522D01*
X153199177Y-61703878D01*
X153171534Y-61699500D01*
X152966830Y-61699500D01*
X152942511Y-61703351D01*
X152764647Y-61731522D01*
X152569958Y-61794781D01*
X152387568Y-61887715D01*
X152221968Y-62008028D01*
X152077210Y-62152786D01*
X151956897Y-62318386D01*
X151863963Y-62500776D01*
X151800704Y-62695465D01*
X151768682Y-62897648D01*
X149301421Y-62897648D01*
X149305265Y-62873378D01*
X149319682Y-62782351D01*
X149319682Y-62577648D01*
X149287659Y-62375465D01*
X149224400Y-62180776D01*
X149190685Y-62114607D01*
X149131469Y-61998390D01*
X149051060Y-61887715D01*
X149011153Y-61832786D01*
X148866395Y-61688028D01*
X148700796Y-61567715D01*
X148694188Y-61564348D01*
X148608099Y-61520483D01*
X148557305Y-61472511D01*
X148540510Y-61404690D01*
X148563047Y-61338555D01*
X148608099Y-61299516D01*
X148700792Y-61252287D01*
X148817428Y-61167547D01*
X148866395Y-61131971D01*
X148866397Y-61131968D01*
X148866401Y-61131966D01*
X149011148Y-60987219D01*
X149011150Y-60987215D01*
X149011153Y-60987213D01*
X149134333Y-60817669D01*
X149136005Y-60818884D01*
X149181390Y-60777831D01*
X149235297Y-60765500D01*
X154190789Y-60765500D01*
X154251211Y-60753481D01*
X154311634Y-60741463D01*
X154344974Y-60727652D01*
X154425468Y-60694312D01*
X154476691Y-60660084D01*
X154527915Y-60625858D01*
X154615040Y-60538733D01*
X154615040Y-60538731D01*
X154625248Y-60528524D01*
X154625249Y-60528521D01*
X154732617Y-60421153D01*
X164968682Y-60421153D01*
X164968682Y-60578846D01*
X164999443Y-60733489D01*
X164999446Y-60733501D01*
X165059784Y-60879172D01*
X165059791Y-60879185D01*
X165147392Y-61010288D01*
X165147395Y-61010292D01*
X165258889Y-61121786D01*
X165258893Y-61121789D01*
X165389996Y-61209390D01*
X165390009Y-61209397D01*
X165497202Y-61253797D01*
X165535685Y-61269737D01*
X165685388Y-61299515D01*
X165690335Y-61300499D01*
X165690338Y-61300500D01*
X165690340Y-61300500D01*
X165848026Y-61300500D01*
X165848027Y-61300499D01*
X165924334Y-61285320D01*
X166002670Y-61269739D01*
X166002671Y-61269738D01*
X166002679Y-61269737D01*
X166026337Y-61259937D01*
X166073786Y-61250500D01*
X172843102Y-61250500D01*
X172940644Y-61231096D01*
X172988095Y-61221658D01*
X173124677Y-61165084D01*
X173189473Y-61121789D01*
X173189476Y-61121786D01*
X173189478Y-61121786D01*
X173218729Y-61102240D01*
X173247598Y-61082952D01*
X176543730Y-57786818D01*
X176605053Y-57753334D01*
X176631411Y-57750500D01*
X186453962Y-57750500D01*
X186521001Y-57770185D01*
X186566756Y-57822989D01*
X186576700Y-57892147D01*
X186564447Y-57930795D01*
X186518086Y-58021782D01*
X186452424Y-58223869D01*
X186452424Y-58223872D01*
X186419182Y-58433753D01*
X186419182Y-58646246D01*
X186452424Y-58856127D01*
X186452424Y-58856130D01*
X186518086Y-59058217D01*
X186614557Y-59247550D01*
X186653910Y-59301716D01*
X187286219Y-58669408D01*
X187303257Y-58732993D01*
X187369083Y-58847007D01*
X187462175Y-58940099D01*
X187576189Y-59005925D01*
X187639772Y-59022962D01*
X187007464Y-59655269D01*
X187007464Y-59655270D01*
X187061631Y-59694624D01*
X187250964Y-59791095D01*
X187453052Y-59856757D01*
X187662936Y-59890000D01*
X187875428Y-59890000D01*
X188085309Y-59856757D01*
X188085312Y-59856757D01*
X188287399Y-59791095D01*
X188476736Y-59694622D01*
X188530898Y-59655270D01*
X188530899Y-59655270D01*
X187898590Y-59022962D01*
X187962175Y-59005925D01*
X188076189Y-58940099D01*
X188169281Y-58847007D01*
X188235107Y-58732993D01*
X188252144Y-58669408D01*
X188884452Y-59301717D01*
X188884452Y-59301716D01*
X188923804Y-59247554D01*
X189020277Y-59058217D01*
X189085939Y-58856130D01*
X189085939Y-58856127D01*
X189119182Y-58646246D01*
X189119182Y-58433753D01*
X189085939Y-58223872D01*
X189085939Y-58223869D01*
X189020277Y-58021782D01*
X188923806Y-57832449D01*
X188884452Y-57778282D01*
X188884451Y-57778282D01*
X188252144Y-58410590D01*
X188235107Y-58347007D01*
X188169281Y-58232993D01*
X188076189Y-58139901D01*
X187962175Y-58074075D01*
X187898590Y-58057037D01*
X188530898Y-57424728D01*
X188476729Y-57385373D01*
X188476729Y-57385372D01*
X188467682Y-57380763D01*
X188416888Y-57332788D01*
X188400094Y-57264966D01*
X188422633Y-57198832D01*
X188467690Y-57159793D01*
X188476998Y-57155051D01*
X188556189Y-57097515D01*
X188648968Y-57030109D01*
X188648970Y-57030106D01*
X188648974Y-57030104D01*
X188799286Y-56879792D01*
X188799288Y-56879788D01*
X188799291Y-56879786D01*
X188924230Y-56707820D01*
X188924229Y-56707820D01*
X188924233Y-56707816D01*
X189020739Y-56518412D01*
X189086428Y-56316243D01*
X189119682Y-56106287D01*
X189119682Y-55893713D01*
X189086428Y-55683757D01*
X189020739Y-55481588D01*
X188924233Y-55292184D01*
X188924231Y-55292181D01*
X188924230Y-55292179D01*
X188799291Y-55120213D01*
X188648968Y-54969890D01*
X188477002Y-54844951D01*
X188476297Y-54844591D01*
X188468236Y-54840485D01*
X188417441Y-54792512D01*
X188400645Y-54724692D01*
X188423181Y-54658556D01*
X188468236Y-54619515D01*
X188476998Y-54615051D01*
X188498971Y-54599086D01*
X188648968Y-54490109D01*
X188648970Y-54490106D01*
X188648974Y-54490104D01*
X188799286Y-54339792D01*
X188799288Y-54339788D01*
X188799291Y-54339786D01*
X188924230Y-54167820D01*
X188924229Y-54167820D01*
X188924233Y-54167816D01*
X189020739Y-53978412D01*
X189086428Y-53776243D01*
X189119682Y-53566287D01*
X189119682Y-53353713D01*
X189086428Y-53143757D01*
X189020739Y-52941588D01*
X188924233Y-52752184D01*
X188924231Y-52752181D01*
X188924230Y-52752179D01*
X188799291Y-52580213D01*
X188685751Y-52466673D01*
X188652266Y-52405350D01*
X188657250Y-52335658D01*
X188699122Y-52279725D01*
X188730097Y-52262810D01*
X188861513Y-52213796D01*
X188976728Y-52127546D01*
X189062978Y-52012331D01*
X189113273Y-51877483D01*
X189119682Y-51817873D01*
X189119681Y-50022128D01*
X189113273Y-49962517D01*
X189062978Y-49827669D01*
X189062977Y-49827668D01*
X189062975Y-49827664D01*
X188976729Y-49712455D01*
X188976726Y-49712452D01*
X188861517Y-49626206D01*
X188861510Y-49626202D01*
X188726664Y-49575908D01*
X188726665Y-49575908D01*
X188667065Y-49569501D01*
X188667063Y-49569500D01*
X188667055Y-49569500D01*
X188667046Y-49569500D01*
X186871311Y-49569500D01*
X186871305Y-49569501D01*
X186811698Y-49575908D01*
X186676853Y-49626202D01*
X186676846Y-49626206D01*
X186561637Y-49712452D01*
X186561634Y-49712455D01*
X186475388Y-49827664D01*
X186475384Y-49827671D01*
X186425090Y-49962517D01*
X186418683Y-50022116D01*
X186418683Y-50022123D01*
X186418682Y-50022135D01*
X186418682Y-51817870D01*
X186418683Y-51817876D01*
X186425090Y-51877483D01*
X186475384Y-52012328D01*
X186475388Y-52012335D01*
X186561634Y-52127544D01*
X186561637Y-52127547D01*
X186676846Y-52213793D01*
X186676853Y-52213797D01*
X186808264Y-52262810D01*
X186864198Y-52304681D01*
X186888615Y-52370145D01*
X186873764Y-52438418D01*
X186852613Y-52466673D01*
X186739071Y-52580215D01*
X186614133Y-52752179D01*
X186517626Y-52941585D01*
X186451935Y-53143760D01*
X186418682Y-53353713D01*
X186418682Y-53566287D01*
X186451936Y-53776243D01*
X186457959Y-53794781D01*
X186517626Y-53978414D01*
X186614133Y-54167820D01*
X186739072Y-54339786D01*
X186889395Y-54490109D01*
X187061364Y-54615050D01*
X187070128Y-54619516D01*
X187120924Y-54667491D01*
X187137718Y-54735312D01*
X187115180Y-54801447D01*
X187070128Y-54840484D01*
X187061364Y-54844949D01*
X186889395Y-54969890D01*
X186739072Y-55120213D01*
X186614133Y-55292179D01*
X186517626Y-55481585D01*
X186451935Y-55683760D01*
X186418682Y-55893713D01*
X186418682Y-56106287D01*
X186419064Y-56111138D01*
X186417990Y-56111222D01*
X186409700Y-56175392D01*
X186364706Y-56228845D01*
X186297955Y-56249487D01*
X186296180Y-56249500D01*
X176195262Y-56249500D01*
X176050274Y-56278340D01*
X176050264Y-56278343D01*
X175913693Y-56334912D01*
X175913680Y-56334919D01*
X175790766Y-56417048D01*
X175790762Y-56417051D01*
X172494633Y-59713181D01*
X172433310Y-59746666D01*
X172406952Y-59749500D01*
X166073786Y-59749500D01*
X166026337Y-59740062D01*
X166002679Y-59730263D01*
X166002675Y-59730262D01*
X166002670Y-59730260D01*
X165848027Y-59699500D01*
X165848024Y-59699500D01*
X165690340Y-59699500D01*
X165690337Y-59699500D01*
X165535692Y-59730261D01*
X165535680Y-59730264D01*
X165390009Y-59790602D01*
X165389996Y-59790609D01*
X165258893Y-59878210D01*
X165258889Y-59878213D01*
X165147395Y-59989707D01*
X165147392Y-59989711D01*
X165059791Y-60120814D01*
X165059784Y-60120827D01*
X164999446Y-60266498D01*
X164999443Y-60266510D01*
X164968682Y-60421153D01*
X154732617Y-60421153D01*
X155491954Y-59661819D01*
X155553277Y-59628334D01*
X155579635Y-59625500D01*
X164330789Y-59625500D01*
X164391211Y-59613481D01*
X164451634Y-59601463D01*
X164484974Y-59587652D01*
X164565468Y-59554312D01*
X164625049Y-59514500D01*
X164667915Y-59485858D01*
X164755040Y-59398733D01*
X164755040Y-59398731D01*
X164765248Y-59388524D01*
X164765249Y-59388521D01*
X166255039Y-57898734D01*
X166323493Y-57796286D01*
X166362402Y-57702352D01*
X166370645Y-57682452D01*
X166394682Y-57561606D01*
X166394682Y-56216114D01*
X166414367Y-56149075D01*
X166447757Y-56116398D01*
X166446850Y-56115150D01*
X166450787Y-56112289D01*
X166450792Y-56112287D01*
X166616401Y-55991966D01*
X166761148Y-55847219D01*
X166761150Y-55847215D01*
X166761153Y-55847213D01*
X166813914Y-55774590D01*
X166881469Y-55681610D01*
X166974402Y-55499219D01*
X167037659Y-55304534D01*
X167069682Y-55102352D01*
X167069682Y-54897648D01*
X167037659Y-54695465D01*
X166974400Y-54500776D01*
X166940685Y-54434607D01*
X166881469Y-54318390D01*
X166873738Y-54307749D01*
X166761153Y-54152786D01*
X166616395Y-54008028D01*
X166450795Y-53887715D01*
X166450794Y-53887714D01*
X166450792Y-53887713D01*
X166393835Y-53858691D01*
X166268405Y-53794781D01*
X166073716Y-53731522D01*
X165899177Y-53703878D01*
X165871534Y-53699500D01*
X165666830Y-53699500D01*
X165642511Y-53703351D01*
X165464647Y-53731522D01*
X165269958Y-53794781D01*
X165087568Y-53887715D01*
X164921968Y-54008028D01*
X164777210Y-54152786D01*
X164656897Y-54318386D01*
X164563963Y-54500776D01*
X164500704Y-54695465D01*
X164468682Y-54897648D01*
X164468682Y-55102351D01*
X164500704Y-55304534D01*
X164563963Y-55499223D01*
X164656897Y-55681613D01*
X164777210Y-55847213D01*
X164777216Y-55847219D01*
X164921963Y-55991966D01*
X165087572Y-56112287D01*
X165087576Y-56112289D01*
X165091514Y-56115150D01*
X165090293Y-56116829D01*
X165131337Y-56162177D01*
X165143682Y-56216114D01*
X165143682Y-57189547D01*
X165123997Y-57256586D01*
X165107363Y-57277228D01*
X164046411Y-58338181D01*
X163985088Y-58371666D01*
X163958730Y-58374500D01*
X155207570Y-58374500D01*
X155086737Y-58398535D01*
X155086729Y-58398537D01*
X154972898Y-58445687D01*
X154870447Y-58514142D01*
X154870444Y-58514145D01*
X153906411Y-59478181D01*
X153845088Y-59511666D01*
X153818730Y-59514500D01*
X149235297Y-59514500D01*
X149168258Y-59494815D01*
X149135575Y-59461428D01*
X149134333Y-59462331D01*
X149011153Y-59292786D01*
X148866395Y-59148028D01*
X148700796Y-59027715D01*
X148694188Y-59024348D01*
X148608099Y-58980483D01*
X148557305Y-58932511D01*
X148540510Y-58864690D01*
X148563047Y-58798555D01*
X148608099Y-58759516D01*
X148700792Y-58712287D01*
X148764218Y-58666206D01*
X148866395Y-58591971D01*
X148866397Y-58591968D01*
X148866401Y-58591966D01*
X149011148Y-58447219D01*
X149011150Y-58447215D01*
X149011153Y-58447213D01*
X149072174Y-58363223D01*
X149131469Y-58281610D01*
X149224402Y-58099219D01*
X149287659Y-57904534D01*
X149319682Y-57702352D01*
X149319682Y-57497648D01*
X149287659Y-57295466D01*
X149224402Y-57100781D01*
X149224400Y-57100778D01*
X149224400Y-57100776D01*
X149173047Y-56999991D01*
X149131469Y-56918390D01*
X149103422Y-56879786D01*
X149011153Y-56752786D01*
X148866395Y-56608028D01*
X148700795Y-56487715D01*
X148700794Y-56487714D01*
X148700792Y-56487713D01*
X148641080Y-56457288D01*
X148518405Y-56394781D01*
X148323716Y-56331522D01*
X148149177Y-56303878D01*
X148121534Y-56299500D01*
X147916830Y-56299500D01*
X147892511Y-56303351D01*
X147714647Y-56331522D01*
X147519958Y-56394781D01*
X147337568Y-56487715D01*
X147171968Y-56608028D01*
X147027210Y-56752786D01*
X146906897Y-56918386D01*
X146813963Y-57100776D01*
X146750704Y-57295465D01*
X146718682Y-57497648D01*
X146718682Y-57702351D01*
X146750704Y-57904534D01*
X146813963Y-58099223D01*
X146906897Y-58281613D01*
X147027210Y-58447213D01*
X147171968Y-58591971D01*
X147274146Y-58666206D01*
X147337572Y-58712287D01*
X147416400Y-58752452D01*
X147430262Y-58759515D01*
X147481058Y-58807490D01*
X147497853Y-58875311D01*
X147475316Y-58941446D01*
X147430262Y-58980485D01*
X147337568Y-59027715D01*
X147171968Y-59148028D01*
X147027210Y-59292786D01*
X146906897Y-59458386D01*
X146813963Y-59640776D01*
X146750704Y-59835465D01*
X146718682Y-60037648D01*
X146718682Y-60242351D01*
X146750704Y-60444534D01*
X146813963Y-60639223D01*
X146842033Y-60694312D01*
X146884588Y-60777831D01*
X146906897Y-60821613D01*
X147027210Y-60987213D01*
X147171968Y-61131971D01*
X147326931Y-61244556D01*
X147337572Y-61252287D01*
X147416118Y-61292308D01*
X147430262Y-61299515D01*
X147481058Y-61347490D01*
X147497853Y-61415311D01*
X147475316Y-61481446D01*
X147430262Y-61520485D01*
X147337568Y-61567715D01*
X147171968Y-61688028D01*
X147027210Y-61832786D01*
X146906897Y-61998386D01*
X146813963Y-62180776D01*
X146750704Y-62375465D01*
X146718682Y-62577648D01*
X146718682Y-62782351D01*
X146750704Y-62984534D01*
X146813963Y-63179223D01*
X146906897Y-63361613D01*
X147027210Y-63527213D01*
X147171968Y-63671971D01*
X147326931Y-63784556D01*
X147337572Y-63792287D01*
X147429022Y-63838883D01*
X147430262Y-63839515D01*
X147481058Y-63887490D01*
X147497853Y-63955311D01*
X147475316Y-64021446D01*
X147430262Y-64060485D01*
X147337568Y-64107715D01*
X147171968Y-64228028D01*
X147027210Y-64372786D01*
X146906897Y-64538386D01*
X146813963Y-64720776D01*
X146750704Y-64915465D01*
X146718682Y-65117648D01*
X146718682Y-65322351D01*
X146750704Y-65524534D01*
X146813963Y-65719223D01*
X146877873Y-65844653D01*
X146886514Y-65861611D01*
X146906897Y-65901613D01*
X147027210Y-66067213D01*
X147171968Y-66211971D01*
X147285949Y-66294781D01*
X147337572Y-66332287D01*
X147429022Y-66378883D01*
X147430262Y-66379515D01*
X147481058Y-66427490D01*
X147497853Y-66495311D01*
X147475316Y-66561446D01*
X147430262Y-66600485D01*
X147337568Y-66647715D01*
X147171968Y-66768028D01*
X147027210Y-66912786D01*
X146906897Y-67078386D01*
X146813963Y-67260776D01*
X146750704Y-67455465D01*
X146727440Y-67602351D01*
X146718682Y-67657648D01*
X146718682Y-67862352D01*
X146720606Y-67874500D01*
X146750704Y-68064534D01*
X146813963Y-68259223D01*
X146877873Y-68384653D01*
X146889453Y-68407379D01*
X146906897Y-68441613D01*
X147027210Y-68607213D01*
X147171968Y-68751971D01*
X147326931Y-68864556D01*
X147337572Y-68872287D01*
X147429022Y-68918883D01*
X147430262Y-68919515D01*
X147481058Y-68967490D01*
X147497853Y-69035311D01*
X147475316Y-69101446D01*
X147430262Y-69140485D01*
X147337568Y-69187715D01*
X147171968Y-69308028D01*
X147027210Y-69452786D01*
X146906897Y-69618386D01*
X146813963Y-69800776D01*
X146750704Y-69995465D01*
X146718682Y-70197648D01*
X146718682Y-70402351D01*
X146750704Y-70604534D01*
X146813963Y-70799223D01*
X146906897Y-70981613D01*
X147027210Y-71147213D01*
X147171968Y-71291971D01*
X147337567Y-71412284D01*
X147337569Y-71412285D01*
X147337572Y-71412287D01*
X147430262Y-71459515D01*
X147430812Y-71459795D01*
X147481608Y-71507770D01*
X147498403Y-71575591D01*
X147475866Y-71641725D01*
X147430812Y-71680765D01*
X147337826Y-71728143D01*
X147293259Y-71760523D01*
X147293259Y-71760524D01*
X147972736Y-72440000D01*
X147966521Y-72440000D01*
X147864788Y-72467259D01*
X147773576Y-72519920D01*
X147699102Y-72594394D01*
X147646441Y-72685606D01*
X147619182Y-72787339D01*
X147619182Y-72793553D01*
X146939706Y-72114077D01*
X146939705Y-72114077D01*
X146907325Y-72158644D01*
X146814426Y-72340968D01*
X146751191Y-72535582D01*
X146719182Y-72737682D01*
X146719182Y-72942317D01*
X146751191Y-73144417D01*
X146814426Y-73339031D01*
X146907323Y-73521350D01*
X146907329Y-73521359D01*
X146939705Y-73565921D01*
X146939706Y-73565922D01*
X147619182Y-72886446D01*
X147619182Y-72892661D01*
X147646441Y-72994394D01*
X147699102Y-73085606D01*
X147773576Y-73160080D01*
X147864788Y-73212741D01*
X147966521Y-73240000D01*
X147972735Y-73240000D01*
X147293258Y-73919474D01*
X147337834Y-73951861D01*
X147430810Y-73999234D01*
X147481607Y-74047208D01*
X147498402Y-74115029D01*
X147475865Y-74181164D01*
X147430812Y-74220203D01*
X147337570Y-74267713D01*
X147171968Y-74388028D01*
X147027210Y-74532786D01*
X146906897Y-74698386D01*
X146813963Y-74880776D01*
X146750704Y-75075465D01*
X146718682Y-75277648D01*
X146718682Y-75482351D01*
X146750704Y-75684534D01*
X146813963Y-75879223D01*
X146877873Y-76004653D01*
X146906767Y-76061359D01*
X146906897Y-76061613D01*
X147027210Y-76227213D01*
X147171968Y-76371971D01*
X147292408Y-76459474D01*
X147337572Y-76492287D01*
X147429022Y-76538883D01*
X147430262Y-76539515D01*
X147481058Y-76587490D01*
X147497853Y-76655311D01*
X147475316Y-76721446D01*
X147430262Y-76760485D01*
X147337568Y-76807715D01*
X147171968Y-76928028D01*
X147027210Y-77072786D01*
X146906897Y-77238386D01*
X146813963Y-77420776D01*
X146750704Y-77615465D01*
X146718682Y-77817648D01*
X146718682Y-78022351D01*
X146750704Y-78224534D01*
X146813963Y-78419223D01*
X146906897Y-78601613D01*
X147027210Y-78767213D01*
X147171968Y-78911971D01*
X147326931Y-79024556D01*
X147337572Y-79032287D01*
X147429022Y-79078883D01*
X147430262Y-79079515D01*
X147481058Y-79127490D01*
X147497853Y-79195311D01*
X147475316Y-79261446D01*
X147430262Y-79300485D01*
X147337568Y-79347715D01*
X147171968Y-79468028D01*
X147027210Y-79612786D01*
X146906897Y-79778386D01*
X146813963Y-79960776D01*
X146750704Y-80155465D01*
X146718682Y-80357648D01*
X146718682Y-80562351D01*
X146750704Y-80764534D01*
X146813963Y-80959223D01*
X146906897Y-81141613D01*
X147027210Y-81307213D01*
X147171968Y-81451971D01*
X147326931Y-81564556D01*
X147337572Y-81572287D01*
X147429022Y-81618883D01*
X147430262Y-81619515D01*
X147481058Y-81667490D01*
X147497853Y-81735311D01*
X147475316Y-81801446D01*
X147430262Y-81840485D01*
X147337568Y-81887715D01*
X147171968Y-82008028D01*
X147027210Y-82152786D01*
X146906897Y-82318386D01*
X146813963Y-82500776D01*
X146750704Y-82695465D01*
X146718682Y-82897648D01*
X146718682Y-83102351D01*
X146750704Y-83304534D01*
X146813963Y-83499223D01*
X146877873Y-83624653D01*
X146884588Y-83637831D01*
X146906897Y-83681613D01*
X147027210Y-83847213D01*
X147171968Y-83991971D01*
X147326931Y-84104556D01*
X147337572Y-84112287D01*
X147429022Y-84158883D01*
X147430262Y-84159515D01*
X147481058Y-84207490D01*
X147497853Y-84275311D01*
X147475316Y-84341446D01*
X147430262Y-84380485D01*
X147337568Y-84427715D01*
X147171968Y-84548028D01*
X147027210Y-84692786D01*
X146906897Y-84858386D01*
X146813963Y-85040776D01*
X146750704Y-85235465D01*
X146718682Y-85437648D01*
X146718682Y-85642351D01*
X146750704Y-85844534D01*
X146813963Y-86039223D01*
X146877873Y-86164653D01*
X146884588Y-86177831D01*
X146906897Y-86221613D01*
X147027210Y-86387213D01*
X147171968Y-86531971D01*
X147326931Y-86644556D01*
X147337572Y-86652287D01*
X147429022Y-86698883D01*
X147430262Y-86699515D01*
X147481058Y-86747490D01*
X147497853Y-86815311D01*
X147475316Y-86881446D01*
X147430262Y-86920485D01*
X147337568Y-86967715D01*
X147171968Y-87088028D01*
X147027210Y-87232786D01*
X146906897Y-87398386D01*
X146813963Y-87580776D01*
X146750704Y-87775465D01*
X146718682Y-87977648D01*
X146718682Y-88182351D01*
X146750704Y-88384534D01*
X146813963Y-88579223D01*
X146906897Y-88761613D01*
X147027210Y-88927213D01*
X147171968Y-89071971D01*
X147320550Y-89179920D01*
X147337572Y-89192287D01*
X147429022Y-89238883D01*
X147430262Y-89239515D01*
X147481058Y-89287490D01*
X147497853Y-89355311D01*
X147475316Y-89421446D01*
X147430262Y-89460485D01*
X147337568Y-89507715D01*
X147171968Y-89628028D01*
X147027210Y-89772786D01*
X146906897Y-89938386D01*
X146813963Y-90120776D01*
X146750704Y-90315465D01*
X146718682Y-90517648D01*
X146718682Y-90722351D01*
X146750704Y-90924534D01*
X146813963Y-91119223D01*
X146906897Y-91301613D01*
X147027210Y-91467213D01*
X147171968Y-91611971D01*
X147326931Y-91724556D01*
X147337572Y-91732287D01*
X147425774Y-91777228D01*
X147519958Y-91825218D01*
X147519960Y-91825218D01*
X147519963Y-91825220D01*
X147624319Y-91859127D01*
X147714647Y-91888477D01*
X147815739Y-91904488D01*
X147916830Y-91920500D01*
X147916831Y-91920500D01*
X148121533Y-91920500D01*
X148121534Y-91920500D01*
X148323716Y-91888477D01*
X148518401Y-91825220D01*
X148700792Y-91732287D01*
X148793772Y-91664732D01*
X148866395Y-91611971D01*
X148866397Y-91611968D01*
X148866401Y-91611966D01*
X149011148Y-91467219D01*
X149011150Y-91467215D01*
X149011153Y-91467213D01*
X149063914Y-91394590D01*
X149131469Y-91301610D01*
X149224402Y-91119219D01*
X149287659Y-90924534D01*
X149319682Y-90722352D01*
X149319682Y-90517648D01*
X149287659Y-90315466D01*
X149286301Y-90311288D01*
X149258309Y-90225137D01*
X149224402Y-90120781D01*
X149224400Y-90120778D01*
X149224400Y-90120776D01*
X149162463Y-89999219D01*
X149131469Y-89938390D01*
X149123738Y-89927749D01*
X149011153Y-89772786D01*
X148866395Y-89628028D01*
X148700796Y-89507715D01*
X148694188Y-89504348D01*
X148608099Y-89460483D01*
X148557305Y-89412511D01*
X148540510Y-89344690D01*
X148563047Y-89278555D01*
X148608099Y-89239516D01*
X148700792Y-89192287D01*
X148721952Y-89176913D01*
X148866395Y-89071971D01*
X148866397Y-89071968D01*
X148866401Y-89071966D01*
X149011148Y-88927219D01*
X149011150Y-88927215D01*
X149011153Y-88927213D01*
X149090830Y-88817545D01*
X149131469Y-88761610D01*
X149224402Y-88579219D01*
X149287659Y-88384534D01*
X149319682Y-88182352D01*
X149319682Y-87977648D01*
X149287659Y-87775466D01*
X149224402Y-87580781D01*
X149224400Y-87580778D01*
X149224400Y-87580776D01*
X149190685Y-87514607D01*
X149131469Y-87398390D01*
X149123738Y-87387749D01*
X149011153Y-87232786D01*
X148866395Y-87088028D01*
X148700796Y-86967715D01*
X148694188Y-86964348D01*
X148608099Y-86920483D01*
X148557305Y-86872511D01*
X148540510Y-86804690D01*
X148563047Y-86738555D01*
X148608099Y-86699516D01*
X148700792Y-86652287D01*
X148721952Y-86636913D01*
X148866395Y-86531971D01*
X148866397Y-86531968D01*
X148866401Y-86531966D01*
X149011148Y-86387219D01*
X149011150Y-86387215D01*
X149011153Y-86387213D01*
X149134333Y-86217669D01*
X149136005Y-86218884D01*
X149181390Y-86177831D01*
X149235297Y-86165500D01*
X149498730Y-86165500D01*
X149565769Y-86185185D01*
X149586411Y-86201819D01*
X152607363Y-89222771D01*
X152640848Y-89284094D01*
X152643682Y-89310452D01*
X152643682Y-91689547D01*
X152623997Y-91756586D01*
X152607363Y-91777228D01*
X149283326Y-95101264D01*
X149283320Y-95101272D01*
X149214874Y-95203705D01*
X149214866Y-95203719D01*
X149181529Y-95284207D01*
X149176005Y-95297543D01*
X149167719Y-95317545D01*
X149167717Y-95317553D01*
X149143682Y-95438389D01*
X149143682Y-104569546D01*
X149123997Y-104636585D01*
X149107363Y-104657227D01*
X147607019Y-106157570D01*
X147545696Y-106191055D01*
X147481024Y-106187821D01*
X147465428Y-106182754D01*
X147306421Y-106157570D01*
X147255469Y-106149500D01*
X147042895Y-106149500D01*
X146994224Y-106157208D01*
X146832942Y-106182753D01*
X146630767Y-106248444D01*
X146441361Y-106344951D01*
X146269395Y-106469890D01*
X146119072Y-106620213D01*
X145994131Y-106792182D01*
X145989666Y-106800946D01*
X145941691Y-106851742D01*
X145873870Y-106868536D01*
X145807735Y-106845998D01*
X145768698Y-106800946D01*
X145764232Y-106792182D01*
X145639291Y-106620213D01*
X145488968Y-106469890D01*
X145317001Y-106344950D01*
X145302385Y-106337503D01*
X145251590Y-106289527D01*
X145234682Y-106227019D01*
X145234682Y-61748396D01*
X145234682Y-61748394D01*
X145210645Y-61627548D01*
X145196834Y-61594207D01*
X145163494Y-61513714D01*
X145129266Y-61462490D01*
X145095040Y-61411267D01*
X145095038Y-61411264D01*
X145004819Y-61321045D01*
X145004788Y-61321016D01*
X141736000Y-58052228D01*
X141702515Y-57990905D01*
X141699681Y-57964547D01*
X141699681Y-56999998D01*
X141699680Y-56999981D01*
X141689181Y-56897203D01*
X141689180Y-56897200D01*
X141633996Y-56730666D01*
X141541894Y-56581344D01*
X141417838Y-56457288D01*
X141268516Y-56365186D01*
X141101979Y-56310001D01*
X141101977Y-56310000D01*
X140999192Y-56299500D01*
X139799180Y-56299500D01*
X139799163Y-56299501D01*
X139696385Y-56310000D01*
X139696382Y-56310001D01*
X139529850Y-56365185D01*
X139529845Y-56365187D01*
X139380524Y-56457289D01*
X139256471Y-56581342D01*
X139164369Y-56730663D01*
X139164368Y-56730666D01*
X139109183Y-56897203D01*
X139109183Y-56897204D01*
X139109182Y-56897204D01*
X139098682Y-56999983D01*
X102536624Y-56999983D01*
X102585516Y-54897648D01*
X117968682Y-54897648D01*
X117968682Y-55102351D01*
X118000704Y-55304534D01*
X118063963Y-55499223D01*
X118156897Y-55681613D01*
X118277210Y-55847213D01*
X118421968Y-55991971D01*
X118576931Y-56104556D01*
X118587572Y-56112287D01*
X118703789Y-56171503D01*
X118769958Y-56205218D01*
X118769960Y-56205218D01*
X118769963Y-56205220D01*
X118874319Y-56239127D01*
X118964647Y-56268477D01*
X119026932Y-56278342D01*
X119166830Y-56300500D01*
X119166831Y-56300500D01*
X119371533Y-56300500D01*
X119371534Y-56300500D01*
X119573716Y-56268477D01*
X119768401Y-56205220D01*
X119950792Y-56112287D01*
X120043772Y-56044732D01*
X120116395Y-55991971D01*
X120116397Y-55991968D01*
X120116401Y-55991966D01*
X120261148Y-55847219D01*
X120261150Y-55847215D01*
X120261153Y-55847213D01*
X120313914Y-55774590D01*
X120381469Y-55681610D01*
X120474402Y-55499219D01*
X120537659Y-55304534D01*
X120569682Y-55102352D01*
X120569682Y-54897648D01*
X125588682Y-54897648D01*
X125588682Y-55102351D01*
X125620704Y-55304534D01*
X125683963Y-55499223D01*
X125776897Y-55681613D01*
X125897210Y-55847213D01*
X126041968Y-55991971D01*
X126196931Y-56104556D01*
X126207572Y-56112287D01*
X126323789Y-56171503D01*
X126389958Y-56205218D01*
X126389960Y-56205218D01*
X126389963Y-56205220D01*
X126494319Y-56239127D01*
X126584647Y-56268477D01*
X126646932Y-56278342D01*
X126786830Y-56300500D01*
X126786831Y-56300500D01*
X126991533Y-56300500D01*
X126991534Y-56300500D01*
X127193716Y-56268477D01*
X127388401Y-56205220D01*
X127570792Y-56112287D01*
X127663772Y-56044732D01*
X127736395Y-55991971D01*
X127736397Y-55991968D01*
X127736401Y-55991966D01*
X127881148Y-55847219D01*
X127881150Y-55847215D01*
X127881153Y-55847213D01*
X127933914Y-55774590D01*
X128001469Y-55681610D01*
X128094402Y-55499219D01*
X128157659Y-55304534D01*
X128189682Y-55102352D01*
X128189682Y-54897648D01*
X151768682Y-54897648D01*
X151768682Y-55102351D01*
X151800704Y-55304534D01*
X151863963Y-55499223D01*
X151956897Y-55681613D01*
X152077210Y-55847213D01*
X152221968Y-55991971D01*
X152376931Y-56104556D01*
X152387572Y-56112287D01*
X152503789Y-56171503D01*
X152569958Y-56205218D01*
X152569960Y-56205218D01*
X152569963Y-56205220D01*
X152674319Y-56239127D01*
X152764647Y-56268477D01*
X152826932Y-56278342D01*
X152966830Y-56300500D01*
X152966831Y-56300500D01*
X153171533Y-56300500D01*
X153171534Y-56300500D01*
X153373716Y-56268477D01*
X153568401Y-56205220D01*
X153750792Y-56112287D01*
X153843772Y-56044732D01*
X153916395Y-55991971D01*
X153916397Y-55991968D01*
X153916401Y-55991966D01*
X154061148Y-55847219D01*
X154061150Y-55847215D01*
X154061153Y-55847213D01*
X154113914Y-55774590D01*
X154181469Y-55681610D01*
X154274402Y-55499219D01*
X154337659Y-55304534D01*
X154369682Y-55102352D01*
X154369682Y-54897648D01*
X154337659Y-54695465D01*
X154274400Y-54500776D01*
X154240685Y-54434607D01*
X154181469Y-54318390D01*
X154173738Y-54307749D01*
X154061153Y-54152786D01*
X153916395Y-54008028D01*
X153750795Y-53887715D01*
X153750794Y-53887714D01*
X153750792Y-53887713D01*
X153693835Y-53858691D01*
X153568405Y-53794781D01*
X153373716Y-53731522D01*
X153199177Y-53703878D01*
X153171534Y-53699500D01*
X152966830Y-53699500D01*
X152942511Y-53703351D01*
X152764647Y-53731522D01*
X152569958Y-53794781D01*
X152387568Y-53887715D01*
X152221968Y-54008028D01*
X152077210Y-54152786D01*
X151956897Y-54318386D01*
X151863963Y-54500776D01*
X151800704Y-54695465D01*
X151768682Y-54897648D01*
X128189682Y-54897648D01*
X128157659Y-54695465D01*
X128094400Y-54500776D01*
X128060685Y-54434607D01*
X128001469Y-54318390D01*
X127993738Y-54307749D01*
X127881153Y-54152786D01*
X127736395Y-54008028D01*
X127570795Y-53887715D01*
X127570794Y-53887714D01*
X127570792Y-53887713D01*
X127513835Y-53858691D01*
X127388405Y-53794781D01*
X127193716Y-53731522D01*
X127019177Y-53703878D01*
X126991534Y-53699500D01*
X126786830Y-53699500D01*
X126762511Y-53703351D01*
X126584647Y-53731522D01*
X126389958Y-53794781D01*
X126207568Y-53887715D01*
X126041968Y-54008028D01*
X125897210Y-54152786D01*
X125776897Y-54318386D01*
X125683963Y-54500776D01*
X125620704Y-54695465D01*
X125588682Y-54897648D01*
X120569682Y-54897648D01*
X120537659Y-54695465D01*
X120474400Y-54500776D01*
X120440685Y-54434607D01*
X120381469Y-54318390D01*
X120373738Y-54307749D01*
X120261153Y-54152786D01*
X120116395Y-54008028D01*
X119950795Y-53887715D01*
X119950794Y-53887714D01*
X119950792Y-53887713D01*
X119893835Y-53858691D01*
X119768405Y-53794781D01*
X119573716Y-53731522D01*
X119399177Y-53703878D01*
X119371534Y-53699500D01*
X119166830Y-53699500D01*
X119142511Y-53703351D01*
X118964647Y-53731522D01*
X118769958Y-53794781D01*
X118587568Y-53887715D01*
X118421968Y-54008028D01*
X118277210Y-54152786D01*
X118156897Y-54318386D01*
X118063963Y-54500776D01*
X118000704Y-54695465D01*
X117968682Y-54897648D01*
X102585516Y-54897648D01*
X102766369Y-47120957D01*
X102787605Y-47054397D01*
X102841459Y-47009883D01*
X102890173Y-46999844D01*
X190904505Y-46886488D01*
X190971569Y-46906086D01*
G37*
%TD.AperFunction*%
%TD*%
M02*
